%TF.GenerationSoftware,KiCad,Pcbnew,8.0.1*%
%TF.CreationDate,2024-11-12T16:16:35-05:00*%
%TF.ProjectId,bitaxeGamma,62697461-7865-4476-916d-6d612e6b6963,rev?*%
%TF.SameCoordinates,Original*%
%TF.FileFunction,Copper,L3,Inr*%
%TF.FilePolarity,Positive*%
%FSLAX46Y46*%
G04 Gerber Fmt 4.6, Leading zero omitted, Abs format (unit mm)*
G04 Created by KiCad (PCBNEW 8.0.1) date 2024-11-12 16:16:35*
%MOMM*%
%LPD*%
G01*
G04 APERTURE LIST*
%TA.AperFunction,ComponentPad*%
%ADD10C,0.800000*%
%TD*%
%TA.AperFunction,ComponentPad*%
%ADD11C,6.000000*%
%TD*%
%TA.AperFunction,ComponentPad*%
%ADD12R,1.700000X1.700000*%
%TD*%
%TA.AperFunction,ComponentPad*%
%ADD13O,1.700000X1.700000*%
%TD*%
%TA.AperFunction,ComponentPad*%
%ADD14C,0.400000*%
%TD*%
%TA.AperFunction,ComponentPad*%
%ADD15C,1.574800*%
%TD*%
%TA.AperFunction,ComponentPad*%
%ADD16C,1.700000*%
%TD*%
%TA.AperFunction,ComponentPad*%
%ADD17O,1.800000X1.000000*%
%TD*%
%TA.AperFunction,ComponentPad*%
%ADD18O,2.100000X1.000000*%
%TD*%
%TA.AperFunction,ViaPad*%
%ADD19C,0.800000*%
%TD*%
%TA.AperFunction,ViaPad*%
%ADD20C,0.500000*%
%TD*%
%TA.AperFunction,ViaPad*%
%ADD21C,1.000000*%
%TD*%
%TA.AperFunction,ViaPad*%
%ADD22C,1.200000*%
%TD*%
%TA.AperFunction,Conductor*%
%ADD23C,0.508000*%
%TD*%
%TA.AperFunction,Conductor*%
%ADD24C,1.500000*%
%TD*%
G04 APERTURE END LIST*
D10*
%TO.N,GND*%
%TO.C,H1*%
X127985010Y-51120990D03*
X128644020Y-49530000D03*
X128644020Y-52711980D03*
X130235010Y-48870990D03*
D11*
X130235010Y-51120990D03*
D10*
X130235010Y-53370990D03*
X131826000Y-49530000D03*
X131826000Y-52711980D03*
X132485010Y-51120990D03*
%TD*%
%TO.N,GND*%
%TO.C,H3*%
X128052000Y-143728000D03*
X128711010Y-142137010D03*
X128711010Y-145318990D03*
X130302000Y-141478000D03*
D11*
X130302000Y-143728000D03*
D10*
X130302000Y-145978000D03*
X131892990Y-142137010D03*
X131892990Y-145318990D03*
X132552000Y-143728000D03*
%TD*%
D12*
%TO.N,/5V*%
%TO.C,J4*%
X99171505Y-51054000D03*
D13*
%TO.N,GND*%
X101711505Y-51054000D03*
%TO.N,Net-(J4-Pin_3)*%
X104251505Y-51054000D03*
%TO.N,Net-(J4-Pin_4)*%
X106791505Y-51054000D03*
%TO.N,Net-(J4-Pin_5)*%
X109331505Y-51054000D03*
%TO.N,Net-(J4-Pin_6)*%
X111871505Y-51054000D03*
%TD*%
D10*
%TO.N,GND*%
%TO.C,H4*%
X78455010Y-143830990D03*
X79114020Y-142240000D03*
X79114020Y-145421980D03*
X80705010Y-141580990D03*
D11*
X80705010Y-143830990D03*
D10*
X80705010Y-146080990D03*
X82296000Y-142240000D03*
X82296000Y-145421980D03*
X82955010Y-143830990D03*
%TD*%
%TO.N,GND*%
%TO.C,H2*%
X78558000Y-51054000D03*
X79217010Y-49463010D03*
X79217010Y-52644990D03*
X80808000Y-48804000D03*
D11*
X80808000Y-51054000D03*
D10*
X80808000Y-53304000D03*
X82398990Y-49463010D03*
X82398990Y-52644990D03*
X83058000Y-51054000D03*
%TD*%
D14*
%TO.N,GND*%
%TO.C,U2*%
X92180000Y-78870000D03*
X93580000Y-78870000D03*
X94980000Y-78870000D03*
X91180000Y-77590000D03*
X92180000Y-77590000D03*
X93580000Y-77590000D03*
X94980000Y-77590000D03*
X95980000Y-77590000D03*
X92180000Y-76310000D03*
X93580000Y-76310000D03*
X94980000Y-76310000D03*
%TD*%
D15*
%TO.N,GND*%
%TO.C,J6*%
X89621000Y-143622000D03*
%TO.N,/5V*%
X92161000Y-143622000D03*
%TO.N,/Fan/FAN_TACH*%
X94701000Y-143622000D03*
%TO.N,/Fan/FAN_PWM*%
X97241000Y-143622000D03*
%TD*%
D16*
%TO.N,GND*%
%TO.C,J3*%
X87005000Y-50292000D03*
D13*
%TO.N,/3V3*%
X87405000Y-52832000D03*
%TO.N,/SCL*%
X87005000Y-55372000D03*
%TO.N,/SDA*%
X87405000Y-57912000D03*
%TD*%
D17*
%TO.N,GND*%
%TO.C,J5*%
X79790000Y-87580000D03*
D18*
X83970000Y-87580000D03*
D17*
X79790000Y-78940000D03*
D18*
X83970000Y-78940000D03*
%TD*%
D14*
%TO.N,GND*%
%TO.C,U8*%
X107810562Y-117846000D03*
X107810562Y-115946000D03*
%TO.N,/VDD*%
X107810562Y-113746000D03*
%TO.N,GND*%
X107710562Y-119746000D03*
X105610562Y-117846000D03*
X105610562Y-115946000D03*
%TO.N,/VDD*%
X105610562Y-113746000D03*
%TO.N,GND*%
X105510562Y-119746000D03*
X103410562Y-117846000D03*
X103410562Y-115946000D03*
%TO.N,/VDD*%
X103410562Y-113746000D03*
%TO.N,GND*%
X103310562Y-119746000D03*
%TD*%
D19*
%TO.N,GND*%
X112180000Y-119260000D03*
D20*
X104500000Y-117000000D03*
D19*
X113580000Y-132650000D03*
X98050000Y-114260000D03*
X100050000Y-61700000D03*
X112180000Y-120800000D03*
X101350000Y-62800000D03*
X97450000Y-60200000D03*
X111900000Y-87400000D03*
X104640000Y-130470000D03*
X105540000Y-132550000D03*
X100050000Y-65750000D03*
D21*
X116540000Y-70920000D03*
D19*
X125600000Y-65940000D03*
X116770000Y-124080000D03*
D20*
X95080000Y-91220000D03*
D19*
X115260000Y-109040000D03*
X123750000Y-117530000D03*
X111900000Y-89050000D03*
X101400000Y-60700000D03*
X100050000Y-63800000D03*
X100100000Y-60700000D03*
D20*
X106750000Y-117000000D03*
D19*
X98450000Y-78230000D03*
X96070000Y-137650000D03*
X116050000Y-128010000D03*
X120300000Y-53900000D03*
X128130000Y-56090000D03*
X112980000Y-114270000D03*
D21*
X81444307Y-58757907D03*
X104600000Y-143100000D03*
D19*
X99550000Y-67970000D03*
X101350000Y-63800000D03*
X91790000Y-89910000D03*
X112000000Y-86150000D03*
X117090000Y-100360000D03*
X121580000Y-112400000D03*
X101350000Y-61700000D03*
X111860000Y-83000000D03*
X111850000Y-85100000D03*
X98750000Y-61100000D03*
X122640000Y-102460000D03*
X96070000Y-141200000D03*
D20*
X106750000Y-119000000D03*
D19*
X113180000Y-130220000D03*
D21*
X117910000Y-70950000D03*
D19*
X119440000Y-103510000D03*
X99370000Y-119240000D03*
X111900000Y-90200000D03*
X97450000Y-61100000D03*
X123710000Y-120230000D03*
X111900000Y-91400000D03*
X100050000Y-64750000D03*
X96600000Y-108920000D03*
X100490000Y-76620000D03*
X100050000Y-62800000D03*
X98460000Y-76630000D03*
X99490000Y-70390000D03*
X98440000Y-121490000D03*
X92680000Y-133370000D03*
X128690000Y-107620000D03*
X112512000Y-61250000D03*
X104560000Y-76600000D03*
D21*
X119454234Y-70914234D03*
X128020000Y-84450000D03*
D19*
X101350000Y-64750000D03*
X115440000Y-96940000D03*
X98750000Y-60200000D03*
X102570000Y-76600000D03*
X101350000Y-65750000D03*
D20*
X104500000Y-119000000D03*
D19*
X132297000Y-108743000D03*
X98460000Y-74920000D03*
%TO.N,/VDD*%
X102500000Y-101300000D03*
X103750000Y-100100000D03*
D20*
X120850000Y-69510000D03*
D19*
X105000000Y-99000000D03*
X106250000Y-99000000D03*
X102500000Y-97900000D03*
X107500000Y-101300000D03*
X84500000Y-76160000D03*
X107500000Y-97900000D03*
X108750000Y-97880000D03*
X102500000Y-99000000D03*
X106250000Y-100100000D03*
X103750000Y-99000000D03*
X108750000Y-101280000D03*
X107500000Y-99000000D03*
X108750000Y-102380000D03*
X103750000Y-101300000D03*
X103750000Y-97900000D03*
X102500000Y-100100000D03*
X106250000Y-97900000D03*
D20*
X99780000Y-81020000D03*
D19*
X107500000Y-100100000D03*
X106250000Y-101300000D03*
X108750000Y-98980000D03*
X105000000Y-97900000D03*
X105000000Y-101300000D03*
X108750000Y-100080000D03*
X102500000Y-102400000D03*
X107500000Y-102400000D03*
X103750000Y-102400000D03*
X105000000Y-100100000D03*
D20*
%TO.N,/ESP32/EN*%
X122101300Y-70905000D03*
X127228000Y-104448000D03*
D19*
%TO.N,/5V*%
X93620000Y-68280000D03*
X92350000Y-66250000D03*
X93600000Y-69250000D03*
X93600000Y-71200000D03*
X92350000Y-68300000D03*
D22*
X109280000Y-61185155D03*
D19*
X108290000Y-131179000D03*
X93600000Y-67250000D03*
X92350000Y-70250000D03*
X99710000Y-131420000D03*
D21*
X80680000Y-70950000D03*
D19*
X93620000Y-70230000D03*
X92330000Y-71220000D03*
X92330000Y-69270000D03*
X98770000Y-138720000D03*
X93620000Y-66230000D03*
X92330000Y-67270000D03*
D20*
X104700000Y-139400000D03*
D19*
%TO.N,/3V3*%
X129830000Y-56090000D03*
D21*
X126000000Y-84500000D03*
D19*
X123394000Y-86260000D03*
X112160000Y-74520000D03*
X95550000Y-135970000D03*
D22*
X111440000Y-55180000D03*
D19*
X122930000Y-99700000D03*
X120100000Y-57300000D03*
X127250000Y-107630000D03*
D21*
X115370000Y-61560000D03*
D19*
X95560000Y-126330000D03*
D20*
%TO.N,/TX*%
X116380000Y-79250000D03*
%TO.N,/RX*%
X115580000Y-78420000D03*
%TO.N,/RST*%
X121476817Y-70170000D03*
%TO.N,/SCL*%
X94317599Y-134229617D03*
X88970000Y-81220000D03*
%TO.N,/Fan/FAN_PWM*%
X90900000Y-132800000D03*
%TO.N,Net-(U2-BP1V5)*%
X91690000Y-82980000D03*
X83660000Y-76570000D03*
%TO.N,/ESP32/P_TX*%
X123105000Y-61285000D03*
%TO.N,/ESP32/P_RX*%
X123040000Y-59730000D03*
%TO.N,/ESP32/IO0*%
X121244400Y-66945600D03*
X124830000Y-55100000D03*
X126520000Y-102640000D03*
%TO.N,Net-(U2-VDD5)*%
X92570000Y-74110000D03*
X102820000Y-73740000D03*
%TO.N,/Power/PGOOD*%
X89020000Y-82280000D03*
X109410000Y-74490000D03*
%TO.N,/SDA*%
X82130000Y-73910000D03*
X94340000Y-133580000D03*
X88990000Y-80510000D03*
X82390000Y-75900000D03*
D19*
%TO.N,Net-(U8-VDDIO_12_1)*%
X100770000Y-123700000D03*
%TO.N,Net-(U8-VDDIO_08_1)*%
X99180000Y-123710000D03*
D20*
%TO.N,Net-(U8-ROSC_SEL)*%
X119430000Y-116250000D03*
%TO.N,Net-(U8-LITE_PAD)*%
X119420000Y-118020000D03*
%TO.N,Net-(U8-INV_CLKO)*%
X124540000Y-121820000D03*
%TO.N,/Fan/TEMP_N*%
X92180000Y-119960000D03*
%TO.N,/Fan/TEMP_P*%
X92940000Y-119930000D03*
%TO.N,/Power/AGND*%
X89170000Y-77830000D03*
X90700000Y-73500000D03*
X89340000Y-74960000D03*
%TO.N,/Power/PMB_ALRT*%
X93330000Y-81550000D03*
D19*
%TO.N,/BM1370/VDD3_0*%
X113470000Y-111290000D03*
%TO.N,/BM1370/1V2*%
X110950000Y-124990000D03*
X124600000Y-101830000D03*
X115430000Y-103510000D03*
%TO.N,/BM1370/0V8*%
X110970000Y-123700000D03*
%TO.N,/BM1370/VDD2_0*%
X112390000Y-109350000D03*
%TO.N,/BM1370/VDD1_0*%
X111030000Y-107870000D03*
%TO.N,/BM1370/VDD1_1*%
X100553800Y-107457400D03*
%TO.N,/BM1370/VDD2_1*%
X99360000Y-109210000D03*
%TO.N,/BM1370/VDD3_1*%
X98140000Y-111060000D03*
D20*
%TO.N,/BM1370/BI*%
X119420000Y-114790000D03*
%TO.N,/BM1370/RST_N*%
X113800000Y-98950000D03*
%TO.N,/BM1370/CI*%
X113770000Y-99770000D03*
%TO.N,/BM1370/RO*%
X113830000Y-100500000D03*
X118320000Y-108370000D03*
%TO.N,/BM1370/CLKI*%
X118740000Y-113660000D03*
%TO.N,/BM1370/NRSTO*%
X92480000Y-112210000D03*
%TO.N,/BM1370/CO*%
X92480000Y-113611428D03*
%TO.N,/BM1370/RI*%
X92480000Y-115012856D03*
%TO.N,/BM1370/CLKO*%
X92480000Y-116414284D03*
%TO.N,/BM1370/BO*%
X92480000Y-117815712D03*
%TO.N,/BM1370/PIN_MODE*%
X91400000Y-120430000D03*
%TO.N,/Fan/FAN_TACH*%
X93570000Y-136700000D03*
%TD*%
D23*
%TO.N,/5V*%
X104700000Y-139400000D02*
X98800000Y-139400000D01*
D24*
X92207000Y-143576000D02*
X92161000Y-143622000D01*
D23*
X98800000Y-139400000D02*
X93060000Y-139400000D01*
D24*
X92161000Y-143622000D02*
X92161000Y-138501000D01*
D23*
X98800000Y-138750000D02*
X98770000Y-138720000D01*
D24*
X86000000Y-92684466D02*
X88465000Y-95149466D01*
X89106600Y-67030406D02*
X86000000Y-70137006D01*
D23*
X93060000Y-139400000D02*
X92161000Y-138501000D01*
D24*
X89106600Y-58533400D02*
X89106600Y-67030406D01*
D23*
X108290000Y-133378216D02*
X108290000Y-131179000D01*
D24*
X96586000Y-51054000D02*
X89106600Y-58533400D01*
D23*
X106784599Y-134883617D02*
X108290000Y-133378216D01*
D24*
X106895155Y-61185155D02*
X99171505Y-53461505D01*
X109280000Y-61185155D02*
X106895155Y-61185155D01*
D23*
X88543617Y-134883617D02*
X106784599Y-134883617D01*
X88465000Y-134805000D02*
X88543617Y-134883617D01*
D24*
X99171505Y-53461505D02*
X99171505Y-51054000D01*
X99171505Y-51054000D02*
X96586000Y-51054000D01*
X92161000Y-138501000D02*
X88465000Y-134805000D01*
D23*
X98800000Y-139400000D02*
X98800000Y-138750000D01*
D24*
X88465000Y-95149466D02*
X88465000Y-134805000D01*
D23*
X99710000Y-131420000D02*
X99710000Y-134883617D01*
D24*
X86000000Y-70137006D02*
X86000000Y-92684466D01*
%TD*%
%TA.AperFunction,Conductor*%
%TO.N,GND*%
G36*
X115022143Y-104019685D02*
G01*
X115037331Y-104031185D01*
X115057756Y-104049280D01*
X115057758Y-104049281D01*
X115057760Y-104049283D01*
X115057764Y-104049285D01*
X115197634Y-104122696D01*
X115351014Y-104160500D01*
X115351015Y-104160500D01*
X115508985Y-104160500D01*
X115662365Y-104122696D01*
X115802240Y-104049283D01*
X115822669Y-104031185D01*
X115885902Y-104001463D01*
X115904896Y-104000000D01*
X123876000Y-104000000D01*
X123943039Y-104019685D01*
X123988794Y-104072489D01*
X124000000Y-104124000D01*
X124000000Y-129976687D01*
X123980315Y-130043726D01*
X123927511Y-130089481D01*
X123876689Y-130100685D01*
X89590189Y-130291165D01*
X89523041Y-130271853D01*
X89476994Y-130219304D01*
X89465500Y-130167167D01*
X89465500Y-126330000D01*
X94904722Y-126330000D01*
X94923762Y-126486818D01*
X94979780Y-126634523D01*
X95069517Y-126764530D01*
X95187760Y-126869283D01*
X95187762Y-126869284D01*
X95327634Y-126942696D01*
X95481014Y-126980500D01*
X95481015Y-126980500D01*
X95638985Y-126980500D01*
X95792365Y-126942696D01*
X95932240Y-126869283D01*
X96050483Y-126764530D01*
X96140220Y-126634523D01*
X96196237Y-126486818D01*
X96215278Y-126330000D01*
X96196237Y-126173182D01*
X96140220Y-126025477D01*
X96050483Y-125895470D01*
X95932240Y-125790717D01*
X95932238Y-125790716D01*
X95932237Y-125790715D01*
X95792365Y-125717303D01*
X95638986Y-125679500D01*
X95638985Y-125679500D01*
X95481015Y-125679500D01*
X95481014Y-125679500D01*
X95327634Y-125717303D01*
X95187762Y-125790715D01*
X95069516Y-125895471D01*
X94979781Y-126025475D01*
X94979780Y-126025476D01*
X94923762Y-126173181D01*
X94904722Y-126329999D01*
X94904722Y-126330000D01*
X89465500Y-126330000D01*
X89465500Y-124990000D01*
X110294722Y-124990000D01*
X110313762Y-125146818D01*
X110369780Y-125294523D01*
X110459517Y-125424530D01*
X110577760Y-125529283D01*
X110577762Y-125529284D01*
X110717634Y-125602696D01*
X110871014Y-125640500D01*
X110871015Y-125640500D01*
X111028985Y-125640500D01*
X111182365Y-125602696D01*
X111322240Y-125529283D01*
X111440483Y-125424530D01*
X111530220Y-125294523D01*
X111586237Y-125146818D01*
X111605278Y-124990000D01*
X111586237Y-124833182D01*
X111530220Y-124685477D01*
X111440483Y-124555470D01*
X111322240Y-124450717D01*
X111322238Y-124450716D01*
X111316626Y-124445744D01*
X111318243Y-124443918D01*
X111281685Y-124398793D01*
X111274037Y-124329343D01*
X111305149Y-124266783D01*
X111338499Y-124241246D01*
X111342240Y-124239283D01*
X111460483Y-124134530D01*
X111550220Y-124004523D01*
X111606237Y-123856818D01*
X111625278Y-123700000D01*
X111606237Y-123543182D01*
X111550220Y-123395477D01*
X111460483Y-123265470D01*
X111342240Y-123160717D01*
X111342238Y-123160716D01*
X111342237Y-123160715D01*
X111202365Y-123087303D01*
X111048986Y-123049500D01*
X111048985Y-123049500D01*
X110891015Y-123049500D01*
X110891014Y-123049500D01*
X110737634Y-123087303D01*
X110597762Y-123160715D01*
X110479516Y-123265471D01*
X110389781Y-123395475D01*
X110389780Y-123395476D01*
X110333762Y-123543181D01*
X110314722Y-123699999D01*
X110314722Y-123700000D01*
X110333762Y-123856818D01*
X110337555Y-123866818D01*
X110389780Y-124004523D01*
X110479517Y-124134530D01*
X110597760Y-124239283D01*
X110597761Y-124239283D01*
X110603374Y-124244256D01*
X110601755Y-124246082D01*
X110638310Y-124291198D01*
X110645964Y-124360647D01*
X110614856Y-124423209D01*
X110581506Y-124448750D01*
X110577763Y-124450714D01*
X110459516Y-124555471D01*
X110369781Y-124685475D01*
X110369780Y-124685476D01*
X110313762Y-124833181D01*
X110294722Y-124989999D01*
X110294722Y-124990000D01*
X89465500Y-124990000D01*
X89465500Y-123710000D01*
X98524722Y-123710000D01*
X98543762Y-123866818D01*
X98595988Y-124004524D01*
X98599780Y-124014523D01*
X98689517Y-124144530D01*
X98807760Y-124249283D01*
X98807762Y-124249284D01*
X98947634Y-124322696D01*
X99101014Y-124360500D01*
X99101015Y-124360500D01*
X99258985Y-124360500D01*
X99412365Y-124322696D01*
X99431418Y-124312696D01*
X99552240Y-124249283D01*
X99670483Y-124144530D01*
X99760220Y-124014523D01*
X99816237Y-123866818D01*
X99835278Y-123710000D01*
X99834064Y-123700000D01*
X100114722Y-123700000D01*
X100133762Y-123856818D01*
X100137555Y-123866818D01*
X100189780Y-124004523D01*
X100279517Y-124134530D01*
X100397760Y-124239283D01*
X100397762Y-124239284D01*
X100537634Y-124312696D01*
X100691014Y-124350500D01*
X100691015Y-124350500D01*
X100848985Y-124350500D01*
X101002365Y-124312696D01*
X101043325Y-124291198D01*
X101142240Y-124239283D01*
X101260483Y-124134530D01*
X101350220Y-124004523D01*
X101406237Y-123856818D01*
X101425278Y-123700000D01*
X101406237Y-123543182D01*
X101350220Y-123395477D01*
X101260483Y-123265470D01*
X101142240Y-123160717D01*
X101142238Y-123160716D01*
X101142237Y-123160715D01*
X101002365Y-123087303D01*
X100848986Y-123049500D01*
X100848985Y-123049500D01*
X100691015Y-123049500D01*
X100691014Y-123049500D01*
X100537634Y-123087303D01*
X100397762Y-123160715D01*
X100279516Y-123265471D01*
X100189781Y-123395475D01*
X100189780Y-123395476D01*
X100133762Y-123543181D01*
X100114722Y-123699999D01*
X100114722Y-123700000D01*
X99834064Y-123700000D01*
X99816237Y-123553182D01*
X99760220Y-123405477D01*
X99670483Y-123275470D01*
X99552240Y-123170717D01*
X99552238Y-123170716D01*
X99552237Y-123170715D01*
X99412365Y-123097303D01*
X99258986Y-123059500D01*
X99258985Y-123059500D01*
X99101015Y-123059500D01*
X99101014Y-123059500D01*
X98947634Y-123097303D01*
X98807762Y-123170715D01*
X98689516Y-123275471D01*
X98599781Y-123405475D01*
X98599780Y-123405476D01*
X98543762Y-123553181D01*
X98524722Y-123709999D01*
X98524722Y-123710000D01*
X89465500Y-123710000D01*
X89465500Y-120430000D01*
X90894353Y-120430000D01*
X90914834Y-120572456D01*
X90974622Y-120703371D01*
X90974623Y-120703373D01*
X91068872Y-120812143D01*
X91189947Y-120889953D01*
X91189950Y-120889954D01*
X91189949Y-120889954D01*
X91328036Y-120930499D01*
X91328038Y-120930500D01*
X91328039Y-120930500D01*
X91471962Y-120930500D01*
X91471962Y-120930499D01*
X91610053Y-120889953D01*
X91731128Y-120812143D01*
X91825377Y-120703373D01*
X91885165Y-120572457D01*
X91889272Y-120543892D01*
X91918297Y-120480336D01*
X91977074Y-120442561D01*
X92046944Y-120442561D01*
X92108039Y-120460500D01*
X92251962Y-120460500D01*
X92251962Y-120460499D01*
X92390053Y-120419953D01*
X92511128Y-120342143D01*
X92511128Y-120342142D01*
X92516300Y-120338819D01*
X92583340Y-120319134D01*
X92650379Y-120338818D01*
X92729947Y-120389953D01*
X92729950Y-120389954D01*
X92729949Y-120389954D01*
X92832119Y-120419953D01*
X92866336Y-120430000D01*
X92868036Y-120430499D01*
X92868038Y-120430500D01*
X92868039Y-120430500D01*
X93011962Y-120430500D01*
X93011962Y-120430499D01*
X93150053Y-120389953D01*
X93271128Y-120312143D01*
X93365377Y-120203373D01*
X93425165Y-120072457D01*
X93445647Y-119930000D01*
X93425165Y-119787543D01*
X93365377Y-119656627D01*
X93271128Y-119547857D01*
X93150053Y-119470047D01*
X93150051Y-119470046D01*
X93150049Y-119470045D01*
X93150050Y-119470045D01*
X93011963Y-119429500D01*
X93011961Y-119429500D01*
X92868039Y-119429500D01*
X92868036Y-119429500D01*
X92729949Y-119470045D01*
X92603698Y-119551181D01*
X92536658Y-119570865D01*
X92469620Y-119551181D01*
X92390050Y-119500045D01*
X92251963Y-119459500D01*
X92251961Y-119459500D01*
X92108039Y-119459500D01*
X92108036Y-119459500D01*
X91969949Y-119500045D01*
X91848873Y-119577856D01*
X91754623Y-119686626D01*
X91754622Y-119686628D01*
X91694834Y-119817544D01*
X91694833Y-119817547D01*
X91690726Y-119846111D01*
X91661700Y-119909666D01*
X91602921Y-119947439D01*
X91533055Y-119947438D01*
X91471963Y-119929500D01*
X91471961Y-119929500D01*
X91328039Y-119929500D01*
X91328036Y-119929500D01*
X91189949Y-119970045D01*
X91068873Y-120047856D01*
X90974623Y-120156626D01*
X90974622Y-120156628D01*
X90914834Y-120287543D01*
X90894353Y-120430000D01*
X89465500Y-120430000D01*
X89465500Y-117815712D01*
X91974353Y-117815712D01*
X91994834Y-117958168D01*
X92054622Y-118089083D01*
X92054623Y-118089085D01*
X92148872Y-118197855D01*
X92269947Y-118275665D01*
X92269950Y-118275666D01*
X92269949Y-118275666D01*
X92408036Y-118316211D01*
X92408038Y-118316212D01*
X92408039Y-118316212D01*
X92551962Y-118316212D01*
X92551962Y-118316211D01*
X92690053Y-118275665D01*
X92811128Y-118197855D01*
X92905377Y-118089085D01*
X92936927Y-118020000D01*
X118914353Y-118020000D01*
X118934834Y-118162456D01*
X118986536Y-118275665D01*
X118994623Y-118293373D01*
X119088872Y-118402143D01*
X119209947Y-118479953D01*
X119209950Y-118479954D01*
X119209949Y-118479954D01*
X119348036Y-118520499D01*
X119348038Y-118520500D01*
X119348039Y-118520500D01*
X119491962Y-118520500D01*
X119491962Y-118520499D01*
X119630053Y-118479953D01*
X119751128Y-118402143D01*
X119845377Y-118293373D01*
X119905165Y-118162457D01*
X119925647Y-118020000D01*
X119905165Y-117877543D01*
X119845377Y-117746627D01*
X119751128Y-117637857D01*
X119630053Y-117560047D01*
X119630051Y-117560046D01*
X119630049Y-117560045D01*
X119630050Y-117560045D01*
X119491963Y-117519500D01*
X119491961Y-117519500D01*
X119348039Y-117519500D01*
X119348036Y-117519500D01*
X119209949Y-117560045D01*
X119088873Y-117637856D01*
X118994623Y-117746626D01*
X118994622Y-117746628D01*
X118934834Y-117877543D01*
X118914353Y-118020000D01*
X92936927Y-118020000D01*
X92965165Y-117958169D01*
X92985647Y-117815712D01*
X92965165Y-117673255D01*
X92905377Y-117542339D01*
X92811128Y-117433569D01*
X92690053Y-117355759D01*
X92690051Y-117355758D01*
X92690049Y-117355757D01*
X92690050Y-117355757D01*
X92551963Y-117315212D01*
X92551961Y-117315212D01*
X92408039Y-117315212D01*
X92408036Y-117315212D01*
X92269949Y-117355757D01*
X92148873Y-117433568D01*
X92054623Y-117542338D01*
X92054622Y-117542340D01*
X91994834Y-117673255D01*
X91974353Y-117815712D01*
X89465500Y-117815712D01*
X89465500Y-116414284D01*
X91974353Y-116414284D01*
X91994834Y-116556740D01*
X92029270Y-116632143D01*
X92054623Y-116687657D01*
X92148872Y-116796427D01*
X92269947Y-116874237D01*
X92269950Y-116874238D01*
X92269949Y-116874238D01*
X92408036Y-116914783D01*
X92408038Y-116914784D01*
X92408039Y-116914784D01*
X92551962Y-116914784D01*
X92551962Y-116914783D01*
X92690053Y-116874237D01*
X92811128Y-116796427D01*
X92905377Y-116687657D01*
X92965165Y-116556741D01*
X92985647Y-116414284D01*
X92965165Y-116271827D01*
X92955197Y-116250000D01*
X118924353Y-116250000D01*
X118944834Y-116392456D01*
X118954803Y-116414284D01*
X119004623Y-116523373D01*
X119098872Y-116632143D01*
X119219947Y-116709953D01*
X119219950Y-116709954D01*
X119219949Y-116709954D01*
X119358036Y-116750499D01*
X119358038Y-116750500D01*
X119358039Y-116750500D01*
X119501962Y-116750500D01*
X119501962Y-116750499D01*
X119640053Y-116709953D01*
X119761128Y-116632143D01*
X119855377Y-116523373D01*
X119915165Y-116392457D01*
X119935647Y-116250000D01*
X119915165Y-116107543D01*
X119855377Y-115976627D01*
X119761128Y-115867857D01*
X119640053Y-115790047D01*
X119640051Y-115790046D01*
X119640049Y-115790045D01*
X119640050Y-115790045D01*
X119501963Y-115749500D01*
X119501961Y-115749500D01*
X119358039Y-115749500D01*
X119358036Y-115749500D01*
X119219949Y-115790045D01*
X119098873Y-115867856D01*
X119004623Y-115976626D01*
X119004622Y-115976628D01*
X118944834Y-116107543D01*
X118924353Y-116250000D01*
X92955197Y-116250000D01*
X92905377Y-116140911D01*
X92811128Y-116032141D01*
X92690053Y-115954331D01*
X92690051Y-115954330D01*
X92690049Y-115954329D01*
X92690050Y-115954329D01*
X92551963Y-115913784D01*
X92551961Y-115913784D01*
X92408039Y-115913784D01*
X92408036Y-115913784D01*
X92269949Y-115954329D01*
X92148873Y-116032140D01*
X92054623Y-116140910D01*
X92054622Y-116140912D01*
X91994834Y-116271827D01*
X91974353Y-116414284D01*
X89465500Y-116414284D01*
X89465500Y-115012856D01*
X91974353Y-115012856D01*
X91994834Y-115155312D01*
X92054622Y-115286227D01*
X92054623Y-115286229D01*
X92148872Y-115394999D01*
X92269947Y-115472809D01*
X92269950Y-115472810D01*
X92269949Y-115472810D01*
X92408036Y-115513355D01*
X92408038Y-115513356D01*
X92408039Y-115513356D01*
X92551962Y-115513356D01*
X92551962Y-115513355D01*
X92690053Y-115472809D01*
X92811128Y-115394999D01*
X92905377Y-115286229D01*
X92965165Y-115155313D01*
X92985647Y-115012856D01*
X92965165Y-114870399D01*
X92928448Y-114790000D01*
X118914353Y-114790000D01*
X118934834Y-114932456D01*
X118971552Y-115012856D01*
X118994623Y-115063373D01*
X119088872Y-115172143D01*
X119209947Y-115249953D01*
X119209950Y-115249954D01*
X119209949Y-115249954D01*
X119317107Y-115281417D01*
X119333486Y-115286227D01*
X119348036Y-115290499D01*
X119348038Y-115290500D01*
X119348039Y-115290500D01*
X119491962Y-115290500D01*
X119491962Y-115290499D01*
X119630053Y-115249953D01*
X119751128Y-115172143D01*
X119845377Y-115063373D01*
X119905165Y-114932457D01*
X119925647Y-114790000D01*
X119905165Y-114647543D01*
X119845377Y-114516627D01*
X119751128Y-114407857D01*
X119630053Y-114330047D01*
X119630051Y-114330046D01*
X119630049Y-114330045D01*
X119630050Y-114330045D01*
X119491963Y-114289500D01*
X119491961Y-114289500D01*
X119348039Y-114289500D01*
X119348036Y-114289500D01*
X119209949Y-114330045D01*
X119088873Y-114407856D01*
X118994623Y-114516626D01*
X118994622Y-114516628D01*
X118934834Y-114647543D01*
X118914353Y-114790000D01*
X92928448Y-114790000D01*
X92905377Y-114739483D01*
X92811128Y-114630713D01*
X92690053Y-114552903D01*
X92690051Y-114552902D01*
X92690049Y-114552901D01*
X92690050Y-114552901D01*
X92551963Y-114512356D01*
X92551961Y-114512356D01*
X92408039Y-114512356D01*
X92408036Y-114512356D01*
X92269949Y-114552901D01*
X92148873Y-114630712D01*
X92054623Y-114739482D01*
X92054622Y-114739484D01*
X91994834Y-114870399D01*
X91974353Y-115012856D01*
X89465500Y-115012856D01*
X89465500Y-113611428D01*
X91974353Y-113611428D01*
X91994834Y-113753884D01*
X92054622Y-113884799D01*
X92054623Y-113884801D01*
X92148872Y-113993571D01*
X92269947Y-114071381D01*
X92269950Y-114071382D01*
X92269949Y-114071382D01*
X92408036Y-114111927D01*
X92408038Y-114111928D01*
X92408039Y-114111928D01*
X92551962Y-114111928D01*
X92551962Y-114111927D01*
X92690053Y-114071381D01*
X92811128Y-113993571D01*
X92905377Y-113884801D01*
X92965165Y-113753885D01*
X92966299Y-113746000D01*
X102955429Y-113746000D01*
X102973864Y-113874225D01*
X102978694Y-113884801D01*
X103027680Y-113992063D01*
X103112513Y-114089967D01*
X103221493Y-114160004D01*
X103345787Y-114196499D01*
X103345789Y-114196500D01*
X103345790Y-114196500D01*
X103475335Y-114196500D01*
X103475335Y-114196499D01*
X103599631Y-114160004D01*
X103708611Y-114089967D01*
X103793444Y-113992063D01*
X103847259Y-113874226D01*
X103865695Y-113746000D01*
X105155429Y-113746000D01*
X105173864Y-113874225D01*
X105178694Y-113884801D01*
X105227680Y-113992063D01*
X105312513Y-114089967D01*
X105421493Y-114160004D01*
X105545787Y-114196499D01*
X105545789Y-114196500D01*
X105545790Y-114196500D01*
X105675335Y-114196500D01*
X105675335Y-114196499D01*
X105799631Y-114160004D01*
X105908611Y-114089967D01*
X105993444Y-113992063D01*
X106047259Y-113874226D01*
X106065695Y-113746000D01*
X107355429Y-113746000D01*
X107373864Y-113874225D01*
X107378694Y-113884801D01*
X107427680Y-113992063D01*
X107512513Y-114089967D01*
X107621493Y-114160004D01*
X107745787Y-114196499D01*
X107745789Y-114196500D01*
X107745790Y-114196500D01*
X107875335Y-114196500D01*
X107875335Y-114196499D01*
X107999631Y-114160004D01*
X108108611Y-114089967D01*
X108193444Y-113992063D01*
X108247259Y-113874226D01*
X108265695Y-113746000D01*
X108253330Y-113660000D01*
X118234353Y-113660000D01*
X118254834Y-113802456D01*
X118314622Y-113933371D01*
X118314623Y-113933373D01*
X118408872Y-114042143D01*
X118529947Y-114119953D01*
X118529950Y-114119954D01*
X118529949Y-114119954D01*
X118637107Y-114151417D01*
X118666353Y-114160005D01*
X118668036Y-114160499D01*
X118668038Y-114160500D01*
X118668039Y-114160500D01*
X118811962Y-114160500D01*
X118811962Y-114160499D01*
X118950053Y-114119953D01*
X119071128Y-114042143D01*
X119165377Y-113933373D01*
X119225165Y-113802457D01*
X119245647Y-113660000D01*
X119225165Y-113517543D01*
X119165377Y-113386627D01*
X119071128Y-113277857D01*
X118950053Y-113200047D01*
X118950051Y-113200046D01*
X118950049Y-113200045D01*
X118950050Y-113200045D01*
X118811963Y-113159500D01*
X118811961Y-113159500D01*
X118668039Y-113159500D01*
X118668036Y-113159500D01*
X118529949Y-113200045D01*
X118408873Y-113277856D01*
X118314623Y-113386626D01*
X118314622Y-113386628D01*
X118254834Y-113517543D01*
X118234353Y-113660000D01*
X108253330Y-113660000D01*
X108247259Y-113617774D01*
X108193444Y-113499937D01*
X108108611Y-113402033D01*
X107999631Y-113331996D01*
X107999627Y-113331994D01*
X107999626Y-113331994D01*
X107875336Y-113295500D01*
X107875334Y-113295500D01*
X107745790Y-113295500D01*
X107745788Y-113295500D01*
X107621497Y-113331994D01*
X107621494Y-113331995D01*
X107621493Y-113331996D01*
X107570239Y-113364934D01*
X107512512Y-113402033D01*
X107427680Y-113499937D01*
X107427679Y-113499938D01*
X107373864Y-113617774D01*
X107355429Y-113746000D01*
X106065695Y-113746000D01*
X106047259Y-113617774D01*
X105993444Y-113499937D01*
X105908611Y-113402033D01*
X105799631Y-113331996D01*
X105799627Y-113331994D01*
X105799626Y-113331994D01*
X105675336Y-113295500D01*
X105675334Y-113295500D01*
X105545790Y-113295500D01*
X105545788Y-113295500D01*
X105421497Y-113331994D01*
X105421494Y-113331995D01*
X105421493Y-113331996D01*
X105370239Y-113364934D01*
X105312512Y-113402033D01*
X105227680Y-113499937D01*
X105227679Y-113499938D01*
X105173864Y-113617774D01*
X105155429Y-113746000D01*
X103865695Y-113746000D01*
X103847259Y-113617774D01*
X103793444Y-113499937D01*
X103708611Y-113402033D01*
X103599631Y-113331996D01*
X103599627Y-113331994D01*
X103599626Y-113331994D01*
X103475336Y-113295500D01*
X103475334Y-113295500D01*
X103345790Y-113295500D01*
X103345788Y-113295500D01*
X103221497Y-113331994D01*
X103221494Y-113331995D01*
X103221493Y-113331996D01*
X103170239Y-113364934D01*
X103112512Y-113402033D01*
X103027680Y-113499937D01*
X103027679Y-113499938D01*
X102973864Y-113617774D01*
X102955429Y-113746000D01*
X92966299Y-113746000D01*
X92985647Y-113611428D01*
X92965165Y-113468971D01*
X92905377Y-113338055D01*
X92811128Y-113229285D01*
X92690053Y-113151475D01*
X92690051Y-113151474D01*
X92690049Y-113151473D01*
X92690050Y-113151473D01*
X92551963Y-113110928D01*
X92551961Y-113110928D01*
X92408039Y-113110928D01*
X92408036Y-113110928D01*
X92269949Y-113151473D01*
X92148873Y-113229284D01*
X92054623Y-113338054D01*
X92054622Y-113338056D01*
X91994834Y-113468971D01*
X91974353Y-113611428D01*
X89465500Y-113611428D01*
X89465500Y-112210000D01*
X91974353Y-112210000D01*
X91994834Y-112352456D01*
X92054622Y-112483371D01*
X92054623Y-112483373D01*
X92148872Y-112592143D01*
X92269947Y-112669953D01*
X92269950Y-112669954D01*
X92269949Y-112669954D01*
X92408036Y-112710499D01*
X92408038Y-112710500D01*
X92408039Y-112710500D01*
X92551962Y-112710500D01*
X92551962Y-112710499D01*
X92690053Y-112669953D01*
X92811128Y-112592143D01*
X92905377Y-112483373D01*
X92965165Y-112352457D01*
X92985647Y-112210000D01*
X92965165Y-112067543D01*
X92905377Y-111936627D01*
X92811128Y-111827857D01*
X92690053Y-111750047D01*
X92690051Y-111750046D01*
X92690049Y-111750045D01*
X92690050Y-111750045D01*
X92551963Y-111709500D01*
X92551961Y-111709500D01*
X92408039Y-111709500D01*
X92408036Y-111709500D01*
X92269949Y-111750045D01*
X92148873Y-111827856D01*
X92054623Y-111936626D01*
X92054622Y-111936628D01*
X91994834Y-112067543D01*
X91974353Y-112210000D01*
X89465500Y-112210000D01*
X89465500Y-111060000D01*
X97484722Y-111060000D01*
X97503762Y-111216818D01*
X97531517Y-111290000D01*
X97559780Y-111364523D01*
X97649517Y-111494530D01*
X97767760Y-111599283D01*
X97767762Y-111599284D01*
X97907634Y-111672696D01*
X98061014Y-111710500D01*
X98061015Y-111710500D01*
X98218985Y-111710500D01*
X98372365Y-111672696D01*
X98512240Y-111599283D01*
X98630483Y-111494530D01*
X98720220Y-111364523D01*
X98748483Y-111290000D01*
X112814722Y-111290000D01*
X112833762Y-111446818D01*
X112889780Y-111594523D01*
X112979517Y-111724530D01*
X113097760Y-111829283D01*
X113097762Y-111829284D01*
X113237634Y-111902696D01*
X113391014Y-111940500D01*
X113391015Y-111940500D01*
X113548985Y-111940500D01*
X113702365Y-111902696D01*
X113842240Y-111829283D01*
X113960483Y-111724530D01*
X114050220Y-111594523D01*
X114106237Y-111446818D01*
X114125278Y-111290000D01*
X114106237Y-111133182D01*
X114050220Y-110985477D01*
X113960483Y-110855470D01*
X113842240Y-110750717D01*
X113842238Y-110750716D01*
X113842237Y-110750715D01*
X113702365Y-110677303D01*
X113548986Y-110639500D01*
X113548985Y-110639500D01*
X113391015Y-110639500D01*
X113391014Y-110639500D01*
X113237634Y-110677303D01*
X113097762Y-110750715D01*
X112979516Y-110855471D01*
X112889781Y-110985475D01*
X112889780Y-110985476D01*
X112833762Y-111133181D01*
X112814722Y-111289999D01*
X112814722Y-111290000D01*
X98748483Y-111290000D01*
X98776237Y-111216818D01*
X98795278Y-111060000D01*
X98776237Y-110903182D01*
X98720220Y-110755477D01*
X98630483Y-110625470D01*
X98512240Y-110520717D01*
X98512238Y-110520716D01*
X98512237Y-110520715D01*
X98372365Y-110447303D01*
X98218986Y-110409500D01*
X98218985Y-110409500D01*
X98061015Y-110409500D01*
X98061014Y-110409500D01*
X97907634Y-110447303D01*
X97767762Y-110520715D01*
X97649516Y-110625471D01*
X97559781Y-110755475D01*
X97559780Y-110755476D01*
X97503762Y-110903181D01*
X97484722Y-111059999D01*
X97484722Y-111060000D01*
X89465500Y-111060000D01*
X89465500Y-109210000D01*
X98704722Y-109210000D01*
X98723762Y-109366818D01*
X98776858Y-109506818D01*
X98779780Y-109514523D01*
X98869517Y-109644530D01*
X98987760Y-109749283D01*
X98987762Y-109749284D01*
X99127634Y-109822696D01*
X99281014Y-109860500D01*
X99281015Y-109860500D01*
X99438985Y-109860500D01*
X99592365Y-109822696D01*
X99665087Y-109784528D01*
X99732240Y-109749283D01*
X99850483Y-109644530D01*
X99940220Y-109514523D01*
X99996237Y-109366818D01*
X99998279Y-109350000D01*
X111734722Y-109350000D01*
X111753762Y-109506818D01*
X111756685Y-109514524D01*
X111809780Y-109654523D01*
X111899517Y-109784530D01*
X112017760Y-109889283D01*
X112017762Y-109889284D01*
X112157634Y-109962696D01*
X112311014Y-110000500D01*
X112311015Y-110000500D01*
X112468985Y-110000500D01*
X112622365Y-109962696D01*
X112762240Y-109889283D01*
X112880483Y-109784530D01*
X112970220Y-109654523D01*
X113026237Y-109506818D01*
X113045278Y-109350000D01*
X113026237Y-109193182D01*
X112970220Y-109045477D01*
X112880483Y-108915470D01*
X112762240Y-108810717D01*
X112762238Y-108810716D01*
X112762237Y-108810715D01*
X112622365Y-108737303D01*
X112468986Y-108699500D01*
X112468985Y-108699500D01*
X112311015Y-108699500D01*
X112311014Y-108699500D01*
X112157634Y-108737303D01*
X112017762Y-108810715D01*
X111899516Y-108915471D01*
X111809781Y-109045475D01*
X111809780Y-109045476D01*
X111753762Y-109193181D01*
X111734722Y-109349999D01*
X111734722Y-109350000D01*
X99998279Y-109350000D01*
X100015278Y-109210000D01*
X99996237Y-109053182D01*
X99940220Y-108905477D01*
X99850483Y-108775470D01*
X99732240Y-108670717D01*
X99732238Y-108670716D01*
X99732237Y-108670715D01*
X99592365Y-108597303D01*
X99438986Y-108559500D01*
X99438985Y-108559500D01*
X99281015Y-108559500D01*
X99281014Y-108559500D01*
X99127634Y-108597303D01*
X98987762Y-108670715D01*
X98869516Y-108775471D01*
X98779781Y-108905475D01*
X98779780Y-108905476D01*
X98723762Y-109053181D01*
X98704722Y-109209999D01*
X98704722Y-109210000D01*
X89465500Y-109210000D01*
X89465500Y-107457400D01*
X99898522Y-107457400D01*
X99917562Y-107614218D01*
X99955095Y-107713182D01*
X99973580Y-107761923D01*
X100063317Y-107891930D01*
X100181560Y-107996683D01*
X100181562Y-107996684D01*
X100321434Y-108070096D01*
X100474814Y-108107900D01*
X100474815Y-108107900D01*
X100632785Y-108107900D01*
X100786165Y-108070096D01*
X100868623Y-108026818D01*
X100926040Y-107996683D01*
X101044283Y-107891930D01*
X101059420Y-107870000D01*
X110374722Y-107870000D01*
X110393762Y-108026818D01*
X110420238Y-108096628D01*
X110449780Y-108174523D01*
X110539517Y-108304530D01*
X110657760Y-108409283D01*
X110657762Y-108409284D01*
X110797634Y-108482696D01*
X110951014Y-108520500D01*
X110951015Y-108520500D01*
X111108985Y-108520500D01*
X111262365Y-108482696D01*
X111402240Y-108409283D01*
X111446582Y-108370000D01*
X117814353Y-108370000D01*
X117834834Y-108512456D01*
X117838508Y-108520500D01*
X117894623Y-108643373D01*
X117988872Y-108752143D01*
X118109947Y-108829953D01*
X118109950Y-108829954D01*
X118109949Y-108829954D01*
X118248036Y-108870499D01*
X118248038Y-108870500D01*
X118248039Y-108870500D01*
X118391962Y-108870500D01*
X118391962Y-108870499D01*
X118530053Y-108829953D01*
X118651128Y-108752143D01*
X118745377Y-108643373D01*
X118805165Y-108512457D01*
X118825647Y-108370000D01*
X118805165Y-108227543D01*
X118745377Y-108096627D01*
X118651128Y-107987857D01*
X118530053Y-107910047D01*
X118530051Y-107910046D01*
X118530049Y-107910045D01*
X118530050Y-107910045D01*
X118391963Y-107869500D01*
X118391961Y-107869500D01*
X118248039Y-107869500D01*
X118248036Y-107869500D01*
X118109949Y-107910045D01*
X117988873Y-107987856D01*
X117894623Y-108096626D01*
X117894622Y-108096628D01*
X117834834Y-108227543D01*
X117814353Y-108370000D01*
X111446582Y-108370000D01*
X111520483Y-108304530D01*
X111610220Y-108174523D01*
X111666237Y-108026818D01*
X111685278Y-107870000D01*
X111666237Y-107713182D01*
X111610220Y-107565477D01*
X111520483Y-107435470D01*
X111402240Y-107330717D01*
X111402238Y-107330716D01*
X111402237Y-107330715D01*
X111262365Y-107257303D01*
X111108986Y-107219500D01*
X111108985Y-107219500D01*
X110951015Y-107219500D01*
X110951014Y-107219500D01*
X110797634Y-107257303D01*
X110657762Y-107330715D01*
X110539516Y-107435471D01*
X110449781Y-107565475D01*
X110449780Y-107565476D01*
X110393762Y-107713181D01*
X110374722Y-107869999D01*
X110374722Y-107870000D01*
X101059420Y-107870000D01*
X101134020Y-107761923D01*
X101190037Y-107614218D01*
X101209078Y-107457400D01*
X101190037Y-107300582D01*
X101173623Y-107257303D01*
X101159287Y-107219500D01*
X101134020Y-107152877D01*
X101044283Y-107022870D01*
X100926040Y-106918117D01*
X100926038Y-106918116D01*
X100926037Y-106918115D01*
X100786165Y-106844703D01*
X100632786Y-106806900D01*
X100632785Y-106806900D01*
X100474815Y-106806900D01*
X100474814Y-106806900D01*
X100321434Y-106844703D01*
X100181562Y-106918115D01*
X100063316Y-107022871D01*
X99973581Y-107152875D01*
X99973580Y-107152876D01*
X99917562Y-107300581D01*
X99898522Y-107457399D01*
X99898522Y-107457400D01*
X89465500Y-107457400D01*
X89465500Y-104124000D01*
X89485185Y-104056961D01*
X89537989Y-104011206D01*
X89589500Y-104000000D01*
X114955104Y-104000000D01*
X115022143Y-104019685D01*
G37*
%TD.AperFunction*%
%TD*%
%TA.AperFunction,Conductor*%
%TO.N,/3V3*%
G36*
X119641084Y-54078002D02*
G01*
X119687577Y-54131658D01*
X119690770Y-54139308D01*
X119716213Y-54206395D01*
X119806502Y-54337201D01*
X119925471Y-54442599D01*
X119925472Y-54442599D01*
X119925474Y-54442601D01*
X120000200Y-54481820D01*
X120066207Y-54516463D01*
X120220529Y-54554500D01*
X120220530Y-54554500D01*
X120379470Y-54554500D01*
X120379471Y-54554500D01*
X120533793Y-54516463D01*
X120674529Y-54442599D01*
X120793498Y-54337201D01*
X120883787Y-54206395D01*
X120909225Y-54139318D01*
X120952083Y-54082719D01*
X121018739Y-54058274D01*
X121027037Y-54058000D01*
X128804664Y-54058000D01*
X128857570Y-54069646D01*
X129028614Y-54148780D01*
X129028626Y-54148785D01*
X129363060Y-54261469D01*
X129707717Y-54337334D01*
X130058556Y-54375490D01*
X130058564Y-54375490D01*
X130411456Y-54375490D01*
X130411464Y-54375490D01*
X130762303Y-54337334D01*
X131106960Y-54261469D01*
X131441394Y-54148785D01*
X131478414Y-54131658D01*
X131612450Y-54069646D01*
X131665356Y-54058000D01*
X133606000Y-54058000D01*
X133674121Y-54078002D01*
X133720614Y-54131658D01*
X133732000Y-54184000D01*
X133732000Y-62672096D01*
X133711998Y-62740217D01*
X133658342Y-62786710D01*
X133606621Y-62798094D01*
X127129999Y-62829999D01*
X127239999Y-82460000D01*
X127240000Y-82460000D01*
X133605387Y-82428835D01*
X133673601Y-82448502D01*
X133720356Y-82501929D01*
X133732000Y-82554832D01*
X133732000Y-141759470D01*
X133711998Y-141827591D01*
X133707193Y-141834543D01*
X133403080Y-142244469D01*
X133346429Y-142287260D01*
X133275636Y-142292631D01*
X133213177Y-142258875D01*
X133190564Y-142228415D01*
X133094739Y-142047670D01*
X133094737Y-142047666D01*
X132950236Y-141834543D01*
X132896690Y-141755568D01*
X132668223Y-141486595D01*
X132668222Y-141486594D01*
X132412027Y-141243912D01*
X132412012Y-141243899D01*
X132131070Y-141030333D01*
X132131064Y-141030329D01*
X131828674Y-140848387D01*
X131828668Y-140848384D01*
X131508395Y-140700209D01*
X131508383Y-140700204D01*
X131173959Y-140587524D01*
X131173958Y-140587523D01*
X131173950Y-140587521D01*
X131123836Y-140576490D01*
X130829305Y-140511658D01*
X130829281Y-140511654D01*
X130478461Y-140473500D01*
X130478454Y-140473500D01*
X130125546Y-140473500D01*
X130125538Y-140473500D01*
X129774718Y-140511654D01*
X129774694Y-140511658D01*
X129430054Y-140587520D01*
X129430040Y-140587524D01*
X129095616Y-140700204D01*
X129095604Y-140700209D01*
X128775331Y-140848384D01*
X128775324Y-140848388D01*
X128472935Y-141030329D01*
X128472929Y-141030333D01*
X128191987Y-141243899D01*
X128191972Y-141243912D01*
X127935777Y-141486594D01*
X127707308Y-141755570D01*
X127509262Y-142047666D01*
X127509260Y-142047670D01*
X127343957Y-142359466D01*
X127343953Y-142359475D01*
X127213332Y-142687308D01*
X127118918Y-143027355D01*
X127061826Y-143375609D01*
X127042720Y-143727996D01*
X127042720Y-143728003D01*
X127061826Y-144080390D01*
X127118918Y-144428644D01*
X127213332Y-144768691D01*
X127299926Y-144986026D01*
X127343958Y-145096536D01*
X127398560Y-145199526D01*
X127509260Y-145408329D01*
X127509262Y-145408333D01*
X127584978Y-145520006D01*
X127707310Y-145700432D01*
X127935777Y-145969405D01*
X128191972Y-146212087D01*
X128191987Y-146212100D01*
X128472934Y-146425670D01*
X128775326Y-146607613D01*
X128857609Y-146645681D01*
X129095604Y-146755790D01*
X129095616Y-146755795D01*
X129430050Y-146868479D01*
X129684817Y-146924557D01*
X129706434Y-146929316D01*
X129768662Y-146963494D01*
X129802533Y-147025890D01*
X129797294Y-147096693D01*
X129780541Y-147127441D01*
X129702175Y-147233073D01*
X129645527Y-147275864D01*
X129600984Y-147284000D01*
X92284774Y-147284000D01*
X92216653Y-147263998D01*
X92170160Y-147210342D01*
X92158775Y-147158415D01*
X92158654Y-147121776D01*
X92150949Y-144784541D01*
X92170725Y-144716359D01*
X92224227Y-144669690D01*
X92264596Y-144658737D01*
X92325226Y-144652765D01*
X92365240Y-144648825D01*
X92365241Y-144648824D01*
X92365248Y-144648824D01*
X92561647Y-144589247D01*
X92742649Y-144492500D01*
X92901299Y-144362299D01*
X93031500Y-144203649D01*
X93128247Y-144022647D01*
X93187824Y-143826248D01*
X93193518Y-143768426D01*
X93195325Y-143756247D01*
X93211500Y-143674935D01*
X93211500Y-143622002D01*
X93654059Y-143622002D01*
X93674174Y-143826241D01*
X93674175Y-143826247D01*
X93674176Y-143826248D01*
X93733753Y-144022647D01*
X93830500Y-144203649D01*
X93960701Y-144362299D01*
X94119351Y-144492500D01*
X94300353Y-144589247D01*
X94496752Y-144648824D01*
X94496756Y-144648824D01*
X94496758Y-144648825D01*
X94518950Y-144651011D01*
X94584782Y-144677593D01*
X94625792Y-144735548D01*
X94628959Y-144806474D01*
X94593278Y-144867853D01*
X94531182Y-144899983D01*
X94439004Y-144918318D01*
X94438999Y-144918320D01*
X94275543Y-144986026D01*
X94128431Y-145084323D01*
X94128425Y-145084328D01*
X94003327Y-145209426D01*
X94003322Y-145209432D01*
X93905025Y-145356544D01*
X93837319Y-145520000D01*
X93837317Y-145520005D01*
X93802800Y-145693533D01*
X93802800Y-145693536D01*
X93802800Y-145870466D01*
X93837317Y-146043996D01*
X93905025Y-146207458D01*
X93908127Y-146212100D01*
X94003322Y-146354569D01*
X94003327Y-146354575D01*
X94128425Y-146479673D01*
X94128431Y-146479678D01*
X94275543Y-146577976D01*
X94439005Y-146645684D01*
X94612535Y-146680201D01*
X94612536Y-146680201D01*
X94789464Y-146680201D01*
X94789465Y-146680201D01*
X94962995Y-146645684D01*
X95126457Y-146577976D01*
X95273569Y-146479678D01*
X95398677Y-146354570D01*
X95496975Y-146207458D01*
X95564683Y-146043996D01*
X95599200Y-145870466D01*
X95599200Y-145693536D01*
X95564683Y-145520006D01*
X95496975Y-145356544D01*
X95398677Y-145209432D01*
X95398672Y-145209426D01*
X95273574Y-145084328D01*
X95273568Y-145084323D01*
X95224754Y-145051706D01*
X95126457Y-144986026D01*
X94962995Y-144918318D01*
X94870816Y-144899982D01*
X94807908Y-144867075D01*
X94772776Y-144805380D01*
X94776576Y-144734485D01*
X94818102Y-144676899D01*
X94883049Y-144651011D01*
X94905241Y-144648825D01*
X94905242Y-144648824D01*
X94905248Y-144648824D01*
X95101647Y-144589247D01*
X95282649Y-144492500D01*
X95441299Y-144362299D01*
X95571500Y-144203649D01*
X95668247Y-144022647D01*
X95727824Y-143826248D01*
X95731978Y-143784080D01*
X95747941Y-143622002D01*
X96194059Y-143622002D01*
X96214174Y-143826241D01*
X96214175Y-143826247D01*
X96214176Y-143826248D01*
X96273753Y-144022647D01*
X96370500Y-144203649D01*
X96500701Y-144362299D01*
X96659351Y-144492500D01*
X96840353Y-144589247D01*
X97036752Y-144648824D01*
X97036756Y-144648824D01*
X97036758Y-144648825D01*
X97240997Y-144668941D01*
X97241000Y-144668941D01*
X97241003Y-144668941D01*
X97445241Y-144648825D01*
X97445242Y-144648824D01*
X97445248Y-144648824D01*
X97641647Y-144589247D01*
X97822649Y-144492500D01*
X97981299Y-144362299D01*
X98111500Y-144203649D01*
X98208247Y-144022647D01*
X98267824Y-143826248D01*
X98271978Y-143784080D01*
X98287941Y-143622002D01*
X98287941Y-143621997D01*
X98267825Y-143417758D01*
X98267824Y-143417756D01*
X98267824Y-143417752D01*
X98208247Y-143221353D01*
X98143383Y-143100000D01*
X103840726Y-143100000D01*
X103859763Y-143268954D01*
X103864677Y-143282997D01*
X103915918Y-143429437D01*
X103915919Y-143429439D01*
X104006375Y-143573399D01*
X104006377Y-143573402D01*
X104126597Y-143693622D01*
X104126600Y-143693624D01*
X104270563Y-143784082D01*
X104431046Y-143840237D01*
X104600000Y-143859274D01*
X104768954Y-143840237D01*
X104929437Y-143784082D01*
X105073400Y-143693624D01*
X105193624Y-143573400D01*
X105284082Y-143429437D01*
X105340237Y-143268954D01*
X105359274Y-143100000D01*
X105340237Y-142931046D01*
X105284082Y-142770563D01*
X105193624Y-142626600D01*
X105193622Y-142626597D01*
X105073402Y-142506377D01*
X105073399Y-142506375D01*
X104929439Y-142415919D01*
X104929437Y-142415918D01*
X104768954Y-142359763D01*
X104600000Y-142340726D01*
X104431046Y-142359763D01*
X104431043Y-142359763D01*
X104431043Y-142359764D01*
X104270562Y-142415918D01*
X104270560Y-142415919D01*
X104126600Y-142506375D01*
X104126597Y-142506377D01*
X104006377Y-142626597D01*
X104006375Y-142626600D01*
X103915919Y-142770560D01*
X103915918Y-142770562D01*
X103915918Y-142770563D01*
X103859763Y-142931046D01*
X103840726Y-143100000D01*
X98143383Y-143100000D01*
X98111500Y-143040351D01*
X97981299Y-142881701D01*
X97822649Y-142751500D01*
X97641647Y-142654753D01*
X97445248Y-142595176D01*
X97445247Y-142595175D01*
X97445241Y-142595174D01*
X97241003Y-142575059D01*
X97240997Y-142575059D01*
X97036758Y-142595174D01*
X96840352Y-142654753D01*
X96659350Y-142751500D01*
X96500701Y-142881701D01*
X96370500Y-143040350D01*
X96273753Y-143221352D01*
X96214174Y-143417758D01*
X96194059Y-143621997D01*
X96194059Y-143622002D01*
X95747941Y-143622002D01*
X95747941Y-143621997D01*
X95727825Y-143417758D01*
X95727824Y-143417756D01*
X95727824Y-143417752D01*
X95668247Y-143221353D01*
X95571500Y-143040351D01*
X95441299Y-142881701D01*
X95282649Y-142751500D01*
X95101647Y-142654753D01*
X94905248Y-142595176D01*
X94905247Y-142595175D01*
X94905241Y-142595174D01*
X94701003Y-142575059D01*
X94700997Y-142575059D01*
X94496758Y-142595174D01*
X94300352Y-142654753D01*
X94119350Y-142751500D01*
X93960701Y-142881701D01*
X93830500Y-143040350D01*
X93733753Y-143221352D01*
X93674174Y-143417758D01*
X93654059Y-143621997D01*
X93654059Y-143622002D01*
X93211500Y-143622002D01*
X93211500Y-143477065D01*
X93172897Y-143282998D01*
X93172894Y-143282991D01*
X93171099Y-143277071D01*
X93172751Y-143276569D01*
X93165500Y-143240076D01*
X93165500Y-141200003D01*
X95410693Y-141200003D01*
X95429849Y-141357779D01*
X95478447Y-141485919D01*
X95486213Y-141506395D01*
X95576502Y-141637201D01*
X95695471Y-141742599D01*
X95695472Y-141742599D01*
X95695474Y-141742601D01*
X95720181Y-141755568D01*
X95836207Y-141816463D01*
X95990529Y-141854500D01*
X95990530Y-141854500D01*
X96149470Y-141854500D01*
X96149471Y-141854500D01*
X96303793Y-141816463D01*
X96444529Y-141742599D01*
X96563498Y-141637201D01*
X96653787Y-141506395D01*
X96710149Y-141357782D01*
X96710149Y-141357781D01*
X96710150Y-141357779D01*
X96729307Y-141200003D01*
X96729307Y-141199996D01*
X96710150Y-141042220D01*
X96675697Y-140951377D01*
X96653787Y-140893605D01*
X96563498Y-140762799D01*
X96444529Y-140657401D01*
X96444528Y-140657400D01*
X96444525Y-140657398D01*
X96303797Y-140583539D01*
X96303795Y-140583538D01*
X96303793Y-140583537D01*
X96303791Y-140583536D01*
X96303790Y-140583536D01*
X96149472Y-140545500D01*
X96149471Y-140545500D01*
X95990529Y-140545500D01*
X95990527Y-140545500D01*
X95836209Y-140583536D01*
X95836202Y-140583539D01*
X95695474Y-140657398D01*
X95695469Y-140657402D01*
X95576501Y-140762800D01*
X95486215Y-140893601D01*
X95486212Y-140893607D01*
X95429849Y-141042220D01*
X95410693Y-141199996D01*
X95410693Y-141200003D01*
X93165500Y-141200003D01*
X93165500Y-140034500D01*
X93185502Y-139966379D01*
X93239158Y-139919886D01*
X93291500Y-139908500D01*
X104766943Y-139908500D01*
X104766945Y-139908500D01*
X104896274Y-139873847D01*
X105012226Y-139806901D01*
X105106901Y-139712226D01*
X105120648Y-139688414D01*
X105124251Y-139683369D01*
X105123901Y-139683144D01*
X105128770Y-139675565D01*
X105128777Y-139675558D01*
X105128949Y-139675180D01*
X105134444Y-139664518D01*
X105173847Y-139596274D01*
X105183705Y-139559480D01*
X105187375Y-139549274D01*
X105189040Y-139543603D01*
X105189040Y-139543599D01*
X105189042Y-139543596D01*
X105189223Y-139542329D01*
X105192229Y-139527664D01*
X105208500Y-139466945D01*
X105208500Y-139417273D01*
X105209688Y-139400664D01*
X105209688Y-139399336D01*
X105208500Y-139382724D01*
X105208500Y-139333055D01*
X105192235Y-139272353D01*
X105189223Y-139257662D01*
X105189170Y-139257296D01*
X105189042Y-139256404D01*
X105189041Y-139256401D01*
X105187379Y-139250738D01*
X105183705Y-139240519D01*
X105173847Y-139203726D01*
X105134447Y-139135484D01*
X105128946Y-139124813D01*
X105128776Y-139124440D01*
X105123906Y-139116862D01*
X105124251Y-139116639D01*
X105120652Y-139111592D01*
X105106901Y-139087774D01*
X105106897Y-139087770D01*
X105106894Y-139087766D01*
X105012227Y-138993099D01*
X105012224Y-138993097D01*
X104896278Y-138926155D01*
X104896276Y-138926154D01*
X104896274Y-138926153D01*
X104766945Y-138891500D01*
X104766943Y-138891500D01*
X99550708Y-138891500D01*
X99482587Y-138871498D01*
X99436094Y-138817842D01*
X99425627Y-138750313D01*
X99429307Y-138720004D01*
X99429307Y-138719996D01*
X99410150Y-138562220D01*
X99396538Y-138526331D01*
X99353787Y-138413605D01*
X99263498Y-138282799D01*
X99144529Y-138177401D01*
X99144528Y-138177400D01*
X99144525Y-138177398D01*
X99003797Y-138103539D01*
X99003795Y-138103538D01*
X99003793Y-138103537D01*
X99003791Y-138103536D01*
X99003790Y-138103536D01*
X98849472Y-138065500D01*
X98849471Y-138065500D01*
X98690529Y-138065500D01*
X98690527Y-138065500D01*
X98536209Y-138103536D01*
X98536202Y-138103539D01*
X98395474Y-138177398D01*
X98395469Y-138177402D01*
X98276501Y-138282800D01*
X98186215Y-138413601D01*
X98186212Y-138413607D01*
X98129849Y-138562220D01*
X98110693Y-138719996D01*
X98110693Y-138720004D01*
X98114373Y-138750313D01*
X98102728Y-138820348D01*
X98055067Y-138872969D01*
X97989292Y-138891500D01*
X93322818Y-138891500D01*
X93254697Y-138871498D01*
X93233723Y-138854595D01*
X93202405Y-138823277D01*
X93168379Y-138760965D01*
X93165500Y-138734182D01*
X93165500Y-138402064D01*
X93165499Y-138402061D01*
X93150423Y-138326270D01*
X93126897Y-138207998D01*
X93051176Y-138025191D01*
X92941246Y-137860669D01*
X92801331Y-137720754D01*
X92730580Y-137650003D01*
X95410693Y-137650003D01*
X95429849Y-137807779D01*
X95473678Y-137923344D01*
X95486213Y-137956395D01*
X95576502Y-138087201D01*
X95695471Y-138192599D01*
X95695472Y-138192599D01*
X95695474Y-138192601D01*
X95724809Y-138207997D01*
X95836207Y-138266463D01*
X95990529Y-138304500D01*
X95990530Y-138304500D01*
X96149470Y-138304500D01*
X96149471Y-138304500D01*
X96303793Y-138266463D01*
X96444529Y-138192599D01*
X96563498Y-138087201D01*
X96653787Y-137956395D01*
X96710149Y-137807782D01*
X96710149Y-137807781D01*
X96710150Y-137807779D01*
X96729307Y-137650003D01*
X96729307Y-137649996D01*
X96710150Y-137492220D01*
X96696538Y-137456331D01*
X96653787Y-137343605D01*
X96563498Y-137212799D01*
X96444529Y-137107401D01*
X96444528Y-137107400D01*
X96444525Y-137107398D01*
X96303797Y-137033539D01*
X96303795Y-137033538D01*
X96303793Y-137033537D01*
X96303791Y-137033536D01*
X96303790Y-137033536D01*
X96149472Y-136995500D01*
X96149471Y-136995500D01*
X95990529Y-136995500D01*
X95990527Y-136995500D01*
X95836209Y-137033536D01*
X95836202Y-137033539D01*
X95695474Y-137107398D01*
X95695469Y-137107402D01*
X95576501Y-137212800D01*
X95486215Y-137343601D01*
X95486212Y-137343607D01*
X95429849Y-137492220D01*
X95410693Y-137649996D01*
X95410693Y-137650003D01*
X92730580Y-137650003D01*
X91780577Y-136700000D01*
X93060312Y-136700000D01*
X93080958Y-136843596D01*
X93141223Y-136975558D01*
X93236225Y-137085196D01*
X93358268Y-137163629D01*
X93497464Y-137204500D01*
X93642536Y-137204500D01*
X93781732Y-137163629D01*
X93903775Y-137085196D01*
X93998777Y-136975558D01*
X94059042Y-136843596D01*
X94079688Y-136700000D01*
X94059042Y-136556404D01*
X94017179Y-136464736D01*
X124379500Y-136464736D01*
X124409450Y-136692231D01*
X124409452Y-136692238D01*
X124468842Y-136913887D01*
X124556656Y-137125888D01*
X124556657Y-137125889D01*
X124556662Y-137125900D01*
X124671386Y-137324608D01*
X124671391Y-137324615D01*
X124811073Y-137506652D01*
X124811092Y-137506673D01*
X124973326Y-137668907D01*
X124973347Y-137668926D01*
X125155384Y-137808608D01*
X125155391Y-137808613D01*
X125354099Y-137923337D01*
X125354103Y-137923338D01*
X125354112Y-137923344D01*
X125566113Y-138011158D01*
X125787762Y-138070548D01*
X125787766Y-138070548D01*
X125787768Y-138070549D01*
X125846398Y-138078267D01*
X126015266Y-138100500D01*
X126015273Y-138100500D01*
X126244727Y-138100500D01*
X126244734Y-138100500D01*
X126450345Y-138073430D01*
X126472231Y-138070549D01*
X126472231Y-138070548D01*
X126472238Y-138070548D01*
X126693887Y-138011158D01*
X126905888Y-137923344D01*
X127104612Y-137808611D01*
X127286661Y-137668919D01*
X127448919Y-137506661D01*
X127588611Y-137324612D01*
X127703344Y-137125888D01*
X127791158Y-136913887D01*
X127850548Y-136692238D01*
X127880500Y-136464734D01*
X127880500Y-136235266D01*
X127850548Y-136007762D01*
X127791158Y-135786113D01*
X127703344Y-135574112D01*
X127703338Y-135574103D01*
X127703337Y-135574099D01*
X127588613Y-135375391D01*
X127588608Y-135375384D01*
X127448926Y-135193347D01*
X127448907Y-135193326D01*
X127286673Y-135031092D01*
X127286652Y-135031073D01*
X127104615Y-134891391D01*
X127104608Y-134891386D01*
X126905900Y-134776662D01*
X126905892Y-134776658D01*
X126905888Y-134776656D01*
X126693887Y-134688842D01*
X126472238Y-134629452D01*
X126472231Y-134629450D01*
X126244736Y-134599500D01*
X126244734Y-134599500D01*
X126015266Y-134599500D01*
X126015263Y-134599500D01*
X125787768Y-134629450D01*
X125566113Y-134688842D01*
X125354110Y-134776657D01*
X125354099Y-134776662D01*
X125155391Y-134891386D01*
X125155384Y-134891391D01*
X124973347Y-135031073D01*
X124973326Y-135031092D01*
X124811092Y-135193326D01*
X124811073Y-135193347D01*
X124671391Y-135375384D01*
X124671386Y-135375391D01*
X124556662Y-135574099D01*
X124556657Y-135574110D01*
X124556656Y-135574112D01*
X124498057Y-135715581D01*
X124468842Y-135786113D01*
X124409450Y-136007768D01*
X124379500Y-136235263D01*
X124379500Y-136464736D01*
X94017179Y-136464736D01*
X93998777Y-136424442D01*
X93903775Y-136314804D01*
X93903774Y-136314803D01*
X93842753Y-136275587D01*
X93781732Y-136236371D01*
X93781731Y-136236370D01*
X93781730Y-136236370D01*
X93642536Y-136195500D01*
X93497464Y-136195500D01*
X93358269Y-136236370D01*
X93358266Y-136236372D01*
X93236225Y-136314803D01*
X93141223Y-136424441D01*
X93141223Y-136424442D01*
X93080958Y-136556404D01*
X93060312Y-136700000D01*
X91780577Y-136700000D01*
X90687789Y-135607212D01*
X90653763Y-135544900D01*
X90658828Y-135474085D01*
X90701375Y-135417249D01*
X90767895Y-135392438D01*
X90776884Y-135392117D01*
X106851542Y-135392117D01*
X106851544Y-135392117D01*
X106980873Y-135357464D01*
X107096826Y-135290518D01*
X108696901Y-133690442D01*
X108738583Y-133618248D01*
X108763847Y-133574490D01*
X108798500Y-133445161D01*
X108798500Y-132650003D01*
X112920693Y-132650003D01*
X112939849Y-132807779D01*
X112988447Y-132935919D01*
X112996213Y-132956395D01*
X113086502Y-133087201D01*
X113205471Y-133192599D01*
X113205472Y-133192599D01*
X113205474Y-133192601D01*
X113280200Y-133231820D01*
X113346207Y-133266463D01*
X113500529Y-133304500D01*
X113500530Y-133304500D01*
X113659470Y-133304500D01*
X113659471Y-133304500D01*
X113813793Y-133266463D01*
X113954529Y-133192599D01*
X114073498Y-133087201D01*
X114163787Y-132956395D01*
X114220149Y-132807782D01*
X114220149Y-132807781D01*
X114220150Y-132807779D01*
X114239307Y-132650003D01*
X114239307Y-132649996D01*
X114220150Y-132492220D01*
X114182224Y-132392220D01*
X114163787Y-132343605D01*
X114073498Y-132212799D01*
X113954529Y-132107401D01*
X113954528Y-132107400D01*
X113954525Y-132107398D01*
X113813797Y-132033539D01*
X113813795Y-132033538D01*
X113813793Y-132033537D01*
X113813791Y-132033536D01*
X113813790Y-132033536D01*
X113659472Y-131995500D01*
X113659471Y-131995500D01*
X113500529Y-131995500D01*
X113500527Y-131995500D01*
X113346209Y-132033536D01*
X113346202Y-132033539D01*
X113205474Y-132107398D01*
X113205469Y-132107402D01*
X113086501Y-132212800D01*
X112996215Y-132343601D01*
X112996212Y-132343607D01*
X112939849Y-132492220D01*
X112920693Y-132649996D01*
X112920693Y-132650003D01*
X108798500Y-132650003D01*
X108798500Y-131633729D01*
X108818502Y-131565608D01*
X108820777Y-131562191D01*
X108873787Y-131485395D01*
X108930149Y-131336782D01*
X108930149Y-131336781D01*
X108930150Y-131336779D01*
X108949307Y-131179003D01*
X108949307Y-131178996D01*
X108930150Y-131021220D01*
X108915578Y-130982799D01*
X108873787Y-130872605D01*
X108783498Y-130741799D01*
X108696102Y-130664372D01*
X108658378Y-130604230D01*
X108659158Y-130533238D01*
X108698196Y-130473937D01*
X108763097Y-130445155D01*
X108778953Y-130444064D01*
X112469540Y-130423561D01*
X112537771Y-130443184D01*
X112584561Y-130496581D01*
X112588050Y-130504875D01*
X112596208Y-130526384D01*
X112596215Y-130526398D01*
X112600936Y-130533238D01*
X112686502Y-130657201D01*
X112805471Y-130762599D01*
X112805472Y-130762599D01*
X112805474Y-130762601D01*
X112880200Y-130801820D01*
X112946207Y-130836463D01*
X113100529Y-130874500D01*
X113100530Y-130874500D01*
X113259470Y-130874500D01*
X113259471Y-130874500D01*
X113413793Y-130836463D01*
X113554529Y-130762599D01*
X113673498Y-130657201D01*
X113763787Y-130526395D01*
X113774943Y-130496977D01*
X113817800Y-130440376D01*
X113884456Y-130415930D01*
X113892032Y-130415658D01*
X123878131Y-130360181D01*
X123932556Y-130354100D01*
X123983378Y-130342896D01*
X124009461Y-130335701D01*
X124097448Y-130285598D01*
X124150252Y-130239843D01*
X124182371Y-130206556D01*
X124229303Y-130116838D01*
X124248988Y-130049799D01*
X124259500Y-129976687D01*
X124259500Y-122431752D01*
X124279502Y-122363631D01*
X124333158Y-122317138D01*
X124403432Y-122307034D01*
X124420987Y-122310853D01*
X124467464Y-122324500D01*
X124467465Y-122324500D01*
X124612536Y-122324500D01*
X124751732Y-122283629D01*
X124873775Y-122205196D01*
X124968777Y-122095558D01*
X125029042Y-121963596D01*
X125049688Y-121820000D01*
X125029042Y-121676404D01*
X124968777Y-121544442D01*
X124873775Y-121434804D01*
X124873774Y-121434803D01*
X124812753Y-121395587D01*
X124751732Y-121356371D01*
X124751731Y-121356370D01*
X124751730Y-121356370D01*
X124612536Y-121315500D01*
X124467464Y-121315500D01*
X124467463Y-121315500D01*
X124420997Y-121329143D01*
X124350000Y-121329143D01*
X124290275Y-121290758D01*
X124260782Y-121226177D01*
X124259500Y-121208247D01*
X124259500Y-120625331D01*
X124279502Y-120557210D01*
X124281804Y-120553755D01*
X124293787Y-120536395D01*
X124350149Y-120387782D01*
X124350149Y-120387781D01*
X124350150Y-120387779D01*
X124369307Y-120230003D01*
X124369307Y-120229996D01*
X124350150Y-120072220D01*
X124334363Y-120030596D01*
X124293787Y-119923605D01*
X124281802Y-119906242D01*
X124259568Y-119838818D01*
X124259500Y-119834668D01*
X124259500Y-117983281D01*
X124279502Y-117915160D01*
X124281804Y-117911705D01*
X124333787Y-117836395D01*
X124390149Y-117687782D01*
X124390149Y-117687781D01*
X124390150Y-117687779D01*
X124409307Y-117530003D01*
X124409307Y-117529996D01*
X124390150Y-117372220D01*
X124333785Y-117223601D01*
X124281804Y-117148293D01*
X124259568Y-117080868D01*
X124259500Y-117076717D01*
X124259500Y-108743003D01*
X131637693Y-108743003D01*
X131656849Y-108900779D01*
X131705447Y-109028919D01*
X131713213Y-109049395D01*
X131803502Y-109180201D01*
X131922471Y-109285599D01*
X131922472Y-109285599D01*
X131922474Y-109285601D01*
X131997200Y-109324820D01*
X132063207Y-109359463D01*
X132217529Y-109397500D01*
X132217530Y-109397500D01*
X132376470Y-109397500D01*
X132376471Y-109397500D01*
X132530793Y-109359463D01*
X132671529Y-109285599D01*
X132790498Y-109180201D01*
X132880787Y-109049395D01*
X132937149Y-108900782D01*
X132937149Y-108900781D01*
X132937150Y-108900779D01*
X132956307Y-108743003D01*
X132956307Y-108742996D01*
X132937150Y-108585220D01*
X132923538Y-108549331D01*
X132880787Y-108436605D01*
X132790498Y-108305799D01*
X132671529Y-108200401D01*
X132671528Y-108200400D01*
X132671525Y-108200398D01*
X132530797Y-108126539D01*
X132530795Y-108126538D01*
X132530793Y-108126537D01*
X132530791Y-108126536D01*
X132530790Y-108126536D01*
X132376472Y-108088500D01*
X132376471Y-108088500D01*
X132217529Y-108088500D01*
X132217527Y-108088500D01*
X132063209Y-108126536D01*
X132063202Y-108126539D01*
X131922474Y-108200398D01*
X131922469Y-108200402D01*
X131803501Y-108305800D01*
X131713215Y-108436601D01*
X131713212Y-108436607D01*
X131656849Y-108585220D01*
X131637693Y-108742996D01*
X131637693Y-108743003D01*
X124259500Y-108743003D01*
X124259500Y-107620003D01*
X128030693Y-107620003D01*
X128049849Y-107777779D01*
X128098447Y-107905919D01*
X128106213Y-107926395D01*
X128196502Y-108057201D01*
X128315471Y-108162599D01*
X128315472Y-108162599D01*
X128315474Y-108162601D01*
X128387491Y-108200398D01*
X128456207Y-108236463D01*
X128610529Y-108274500D01*
X128610530Y-108274500D01*
X128769470Y-108274500D01*
X128769471Y-108274500D01*
X128923793Y-108236463D01*
X129064529Y-108162599D01*
X129183498Y-108057201D01*
X129273787Y-107926395D01*
X129330149Y-107777782D01*
X129330149Y-107777781D01*
X129330150Y-107777779D01*
X129349307Y-107620003D01*
X129349307Y-107619996D01*
X129330150Y-107462220D01*
X129316538Y-107426331D01*
X129273787Y-107313605D01*
X129183498Y-107182799D01*
X129064529Y-107077401D01*
X129064528Y-107077400D01*
X129064525Y-107077398D01*
X128923797Y-107003539D01*
X128923795Y-107003538D01*
X128923793Y-107003537D01*
X128923791Y-107003536D01*
X128923790Y-107003536D01*
X128769472Y-106965500D01*
X128769471Y-106965500D01*
X128610529Y-106965500D01*
X128610527Y-106965500D01*
X128456209Y-107003536D01*
X128456202Y-107003539D01*
X128315474Y-107077398D01*
X128315469Y-107077402D01*
X128196501Y-107182800D01*
X128106215Y-107313601D01*
X128106212Y-107313607D01*
X128049849Y-107462220D01*
X128030693Y-107619996D01*
X128030693Y-107620003D01*
X124259500Y-107620003D01*
X124259500Y-104448000D01*
X126718312Y-104448000D01*
X126738958Y-104591596D01*
X126799223Y-104723558D01*
X126894225Y-104833196D01*
X127016268Y-104911629D01*
X127155464Y-104952500D01*
X127300536Y-104952500D01*
X127439732Y-104911629D01*
X127561775Y-104833196D01*
X127656777Y-104723558D01*
X127717042Y-104591596D01*
X127737688Y-104448000D01*
X127717042Y-104304404D01*
X127656777Y-104172442D01*
X127561775Y-104062804D01*
X127561774Y-104062803D01*
X127491051Y-104017352D01*
X127439732Y-103984371D01*
X127439731Y-103984370D01*
X127439730Y-103984370D01*
X127300536Y-103943500D01*
X127155464Y-103943500D01*
X127016269Y-103984370D01*
X127016266Y-103984372D01*
X126894225Y-104062803D01*
X126799223Y-104172441D01*
X126799223Y-104172442D01*
X126738958Y-104304404D01*
X126718312Y-104448000D01*
X124259500Y-104448000D01*
X124259500Y-104124004D01*
X124259499Y-104123992D01*
X124253569Y-104068837D01*
X124252257Y-104062804D01*
X124242369Y-104017352D01*
X124242367Y-104017345D01*
X124242363Y-104017326D01*
X124235014Y-103990539D01*
X124184911Y-103902552D01*
X124139156Y-103849748D01*
X124139150Y-103849742D01*
X124105870Y-103817629D01*
X124016154Y-103770698D01*
X124016143Y-103770694D01*
X123949109Y-103751011D01*
X123949110Y-103751011D01*
X123876005Y-103740500D01*
X123876000Y-103740500D01*
X120213544Y-103740500D01*
X120145423Y-103720498D01*
X120098930Y-103666842D01*
X120088463Y-103599313D01*
X120099307Y-103510003D01*
X120099307Y-103509996D01*
X120080150Y-103352220D01*
X120066538Y-103316331D01*
X120023787Y-103203605D01*
X119933498Y-103072799D01*
X119814529Y-102967401D01*
X119814528Y-102967400D01*
X119814525Y-102967398D01*
X119673797Y-102893539D01*
X119673795Y-102893538D01*
X119673793Y-102893537D01*
X119673791Y-102893536D01*
X119673790Y-102893536D01*
X119519472Y-102855500D01*
X119519471Y-102855500D01*
X119360529Y-102855500D01*
X119360527Y-102855500D01*
X119206209Y-102893536D01*
X119206202Y-102893539D01*
X119065474Y-102967398D01*
X119065469Y-102967402D01*
X118946501Y-103072800D01*
X118856215Y-103203601D01*
X118856212Y-103203607D01*
X118799849Y-103352220D01*
X118780693Y-103509996D01*
X118780693Y-103510003D01*
X118791537Y-103599313D01*
X118779892Y-103669348D01*
X118732232Y-103721969D01*
X118666456Y-103740500D01*
X116203544Y-103740500D01*
X116135423Y-103720498D01*
X116088930Y-103666842D01*
X116078463Y-103599313D01*
X116089307Y-103510003D01*
X116089307Y-103509996D01*
X116070150Y-103352220D01*
X116056538Y-103316331D01*
X116013787Y-103203605D01*
X115923498Y-103072799D01*
X115804529Y-102967401D01*
X115804528Y-102967400D01*
X115804525Y-102967398D01*
X115663797Y-102893539D01*
X115663795Y-102893538D01*
X115663793Y-102893537D01*
X115663791Y-102893536D01*
X115663790Y-102893536D01*
X115509472Y-102855500D01*
X115509471Y-102855500D01*
X115350529Y-102855500D01*
X115350527Y-102855500D01*
X115196209Y-102893536D01*
X115196202Y-102893539D01*
X115055474Y-102967398D01*
X115055469Y-102967402D01*
X114936501Y-103072800D01*
X114846215Y-103203601D01*
X114846212Y-103203607D01*
X114789849Y-103352220D01*
X114770693Y-103509996D01*
X114770693Y-103510003D01*
X114781537Y-103599313D01*
X114769892Y-103669348D01*
X114722232Y-103721969D01*
X114656456Y-103740500D01*
X89595500Y-103740500D01*
X89527379Y-103720498D01*
X89480886Y-103666842D01*
X89469500Y-103614500D01*
X89469500Y-97120756D01*
X89489502Y-97052635D01*
X89543158Y-97006142D01*
X89595652Y-96994756D01*
X102336121Y-97010572D01*
X102404214Y-97030659D01*
X102450641Y-97084372D01*
X102460657Y-97154658D01*
X102431084Y-97219203D01*
X102371310Y-97257512D01*
X102366117Y-97258910D01*
X102266215Y-97283534D01*
X102266202Y-97283539D01*
X102125474Y-97357398D01*
X102125469Y-97357402D01*
X102006501Y-97462800D01*
X101916215Y-97593601D01*
X101916212Y-97593607D01*
X101859849Y-97742220D01*
X101840693Y-97899996D01*
X101840693Y-97900003D01*
X101859849Y-98057779D01*
X101908447Y-98185919D01*
X101916213Y-98206395D01*
X102006502Y-98337201D01*
X102027370Y-98355689D01*
X102065095Y-98415832D01*
X102064315Y-98486825D01*
X102027370Y-98544310D01*
X102006502Y-98562799D01*
X102006501Y-98562800D01*
X101916215Y-98693601D01*
X101916212Y-98693607D01*
X101859849Y-98842220D01*
X101840693Y-98999996D01*
X101840693Y-99000003D01*
X101859849Y-99157779D01*
X101908447Y-99285919D01*
X101916213Y-99306395D01*
X102006502Y-99437201D01*
X102027370Y-99455689D01*
X102065095Y-99515832D01*
X102064315Y-99586825D01*
X102027370Y-99644310D01*
X102006502Y-99662799D01*
X102006501Y-99662800D01*
X101916215Y-99793601D01*
X101916212Y-99793607D01*
X101859849Y-99942220D01*
X101840693Y-100099996D01*
X101840693Y-100100003D01*
X101859849Y-100257779D01*
X101908447Y-100385919D01*
X101916213Y-100406395D01*
X102006502Y-100537201D01*
X102061232Y-100585688D01*
X102083807Y-100605688D01*
X102121532Y-100665833D01*
X102120752Y-100736825D01*
X102083807Y-100794312D01*
X102006501Y-100862800D01*
X101916215Y-100993601D01*
X101916212Y-100993607D01*
X101859849Y-101142220D01*
X101840693Y-101299996D01*
X101840693Y-101300003D01*
X101859849Y-101457779D01*
X101884815Y-101523607D01*
X101916213Y-101606395D01*
X102006502Y-101737201D01*
X102027370Y-101755689D01*
X102065095Y-101815832D01*
X102064315Y-101886825D01*
X102027370Y-101944310D01*
X102015871Y-101954499D01*
X102006501Y-101962800D01*
X101916215Y-102093601D01*
X101916212Y-102093607D01*
X101859849Y-102242220D01*
X101840693Y-102399996D01*
X101840693Y-102400003D01*
X101859849Y-102557779D01*
X101882605Y-102617779D01*
X101916213Y-102706395D01*
X102006502Y-102837201D01*
X102125471Y-102942599D01*
X102125472Y-102942599D01*
X102125474Y-102942601D01*
X102172727Y-102967401D01*
X102266207Y-103016463D01*
X102420529Y-103054500D01*
X102420530Y-103054500D01*
X102579470Y-103054500D01*
X102579471Y-103054500D01*
X102733793Y-103016463D01*
X102874529Y-102942599D01*
X102993498Y-102837201D01*
X103021305Y-102796915D01*
X103076461Y-102752217D01*
X103147030Y-102744433D01*
X103210604Y-102776037D01*
X103228691Y-102796910D01*
X103256502Y-102837201D01*
X103375471Y-102942599D01*
X103375472Y-102942599D01*
X103375474Y-102942601D01*
X103422727Y-102967401D01*
X103516207Y-103016463D01*
X103670529Y-103054500D01*
X103670530Y-103054500D01*
X103829470Y-103054500D01*
X103829471Y-103054500D01*
X103983793Y-103016463D01*
X104124529Y-102942599D01*
X104243498Y-102837201D01*
X104333787Y-102706395D01*
X104390149Y-102557782D01*
X104390149Y-102557781D01*
X104390150Y-102557779D01*
X104409307Y-102400003D01*
X104409307Y-102399996D01*
X104390150Y-102242220D01*
X104371207Y-102192273D01*
X104333787Y-102093605D01*
X104243498Y-101962799D01*
X104222630Y-101944311D01*
X104184905Y-101884170D01*
X104185684Y-101813177D01*
X104222630Y-101755688D01*
X104243498Y-101737201D01*
X104271305Y-101696915D01*
X104326461Y-101652217D01*
X104397030Y-101644433D01*
X104460604Y-101676037D01*
X104478691Y-101696910D01*
X104506502Y-101737201D01*
X104625471Y-101842599D01*
X104625472Y-101842599D01*
X104625474Y-101842601D01*
X104666571Y-101864170D01*
X104766207Y-101916463D01*
X104920529Y-101954500D01*
X104920530Y-101954500D01*
X105079470Y-101954500D01*
X105079471Y-101954500D01*
X105233793Y-101916463D01*
X105374529Y-101842599D01*
X105493498Y-101737201D01*
X105521305Y-101696915D01*
X105576461Y-101652217D01*
X105647030Y-101644433D01*
X105710604Y-101676037D01*
X105728691Y-101696910D01*
X105756502Y-101737201D01*
X105875471Y-101842599D01*
X105875472Y-101842599D01*
X105875474Y-101842601D01*
X105916571Y-101864170D01*
X106016207Y-101916463D01*
X106170529Y-101954500D01*
X106170530Y-101954500D01*
X106329470Y-101954500D01*
X106329471Y-101954500D01*
X106483793Y-101916463D01*
X106624529Y-101842599D01*
X106743498Y-101737201D01*
X106771305Y-101696915D01*
X106826461Y-101652217D01*
X106897030Y-101644433D01*
X106960604Y-101676037D01*
X106978691Y-101696910D01*
X107006502Y-101737201D01*
X107027370Y-101755689D01*
X107065095Y-101815832D01*
X107064315Y-101886825D01*
X107027370Y-101944310D01*
X107015871Y-101954499D01*
X107006501Y-101962800D01*
X106916215Y-102093601D01*
X106916212Y-102093607D01*
X106859849Y-102242220D01*
X106840693Y-102399996D01*
X106840693Y-102400003D01*
X106859849Y-102557779D01*
X106882605Y-102617779D01*
X106916213Y-102706395D01*
X107006502Y-102837201D01*
X107125471Y-102942599D01*
X107125472Y-102942599D01*
X107125474Y-102942601D01*
X107172727Y-102967401D01*
X107266207Y-103016463D01*
X107420529Y-103054500D01*
X107420530Y-103054500D01*
X107579470Y-103054500D01*
X107579471Y-103054500D01*
X107733793Y-103016463D01*
X107874529Y-102942599D01*
X107993498Y-102837201D01*
X108028207Y-102786915D01*
X108083364Y-102742217D01*
X108153932Y-102734434D01*
X108217507Y-102766038D01*
X108235597Y-102786916D01*
X108256499Y-102817198D01*
X108256501Y-102817200D01*
X108256502Y-102817201D01*
X108375471Y-102922599D01*
X108375472Y-102922599D01*
X108375474Y-102922601D01*
X108450200Y-102961820D01*
X108516207Y-102996463D01*
X108670529Y-103034500D01*
X108670530Y-103034500D01*
X108829470Y-103034500D01*
X108829471Y-103034500D01*
X108983793Y-102996463D01*
X109124529Y-102922599D01*
X109243498Y-102817201D01*
X109333787Y-102686395D01*
X109390149Y-102537782D01*
X109390149Y-102537781D01*
X109390150Y-102537779D01*
X109399593Y-102460003D01*
X121980693Y-102460003D01*
X121999849Y-102617779D01*
X122033458Y-102706395D01*
X122056213Y-102766395D01*
X122146502Y-102897201D01*
X122265471Y-103002599D01*
X122265472Y-103002599D01*
X122265474Y-103002601D01*
X122308526Y-103025196D01*
X122406207Y-103076463D01*
X122560529Y-103114500D01*
X122560530Y-103114500D01*
X122719470Y-103114500D01*
X122719471Y-103114500D01*
X122873793Y-103076463D01*
X123014529Y-103002599D01*
X123133498Y-102897201D01*
X123223787Y-102766395D01*
X123271723Y-102640000D01*
X126010312Y-102640000D01*
X126030958Y-102783596D01*
X126091223Y-102915558D01*
X126186225Y-103025196D01*
X126308268Y-103103629D01*
X126447464Y-103144500D01*
X126592536Y-103144500D01*
X126731732Y-103103629D01*
X126853775Y-103025196D01*
X126948777Y-102915558D01*
X127009042Y-102783596D01*
X127029688Y-102640000D01*
X127009042Y-102496404D01*
X126948777Y-102364442D01*
X126853775Y-102254804D01*
X126853774Y-102254803D01*
X126772036Y-102202273D01*
X126731732Y-102176371D01*
X126731731Y-102176370D01*
X126731730Y-102176370D01*
X126592536Y-102135500D01*
X126447464Y-102135500D01*
X126308269Y-102176370D01*
X126308266Y-102176372D01*
X126186225Y-102254803D01*
X126091223Y-102364441D01*
X126036395Y-102484499D01*
X126030958Y-102496404D01*
X126010312Y-102640000D01*
X123271723Y-102640000D01*
X123280149Y-102617782D01*
X123280149Y-102617781D01*
X123280150Y-102617779D01*
X123299307Y-102460003D01*
X123299307Y-102459996D01*
X123280150Y-102302220D01*
X123262167Y-102254803D01*
X123223787Y-102153605D01*
X123133498Y-102022799D01*
X123014529Y-101917401D01*
X123014528Y-101917400D01*
X123014525Y-101917398D01*
X122873797Y-101843539D01*
X122873795Y-101843538D01*
X122873793Y-101843537D01*
X122873791Y-101843536D01*
X122873790Y-101843536D01*
X122818885Y-101830003D01*
X123940693Y-101830003D01*
X123959849Y-101987779D01*
X124008447Y-102115919D01*
X124016213Y-102136395D01*
X124106502Y-102267201D01*
X124225471Y-102372599D01*
X124225472Y-102372599D01*
X124225474Y-102372601D01*
X124277679Y-102400000D01*
X124366207Y-102446463D01*
X124520529Y-102484500D01*
X124520530Y-102484500D01*
X124679470Y-102484500D01*
X124679471Y-102484500D01*
X124833793Y-102446463D01*
X124974529Y-102372599D01*
X125093498Y-102267201D01*
X125183787Y-102136395D01*
X125240149Y-101987782D01*
X125240149Y-101987781D01*
X125240150Y-101987779D01*
X125259307Y-101830003D01*
X125259307Y-101829996D01*
X125240150Y-101672220D01*
X125226538Y-101636331D01*
X125183787Y-101523605D01*
X125093498Y-101392799D01*
X124974529Y-101287401D01*
X124974528Y-101287400D01*
X124974525Y-101287398D01*
X124833797Y-101213539D01*
X124833795Y-101213538D01*
X124833793Y-101213537D01*
X124833791Y-101213536D01*
X124833790Y-101213536D01*
X124679472Y-101175500D01*
X124679471Y-101175500D01*
X124520529Y-101175500D01*
X124520527Y-101175500D01*
X124366209Y-101213536D01*
X124366202Y-101213539D01*
X124225474Y-101287398D01*
X124225469Y-101287402D01*
X124106501Y-101392800D01*
X124016215Y-101523601D01*
X124016212Y-101523607D01*
X123959849Y-101672220D01*
X123940693Y-101829996D01*
X123940693Y-101830003D01*
X122818885Y-101830003D01*
X122719472Y-101805500D01*
X122719471Y-101805500D01*
X122560529Y-101805500D01*
X122560527Y-101805500D01*
X122406209Y-101843536D01*
X122406202Y-101843539D01*
X122265474Y-101917398D01*
X122265469Y-101917402D01*
X122146501Y-102022800D01*
X122056215Y-102153601D01*
X122056212Y-102153607D01*
X121999849Y-102302220D01*
X121980693Y-102459996D01*
X121980693Y-102460003D01*
X109399593Y-102460003D01*
X109409307Y-102380003D01*
X109409307Y-102379996D01*
X109390150Y-102222220D01*
X109357261Y-102135500D01*
X109333787Y-102073605D01*
X109243498Y-101942799D01*
X109222630Y-101924311D01*
X109184905Y-101864170D01*
X109185684Y-101793177D01*
X109222630Y-101735688D01*
X109243498Y-101717201D01*
X109333787Y-101586395D01*
X109390149Y-101437782D01*
X109390149Y-101437781D01*
X109390150Y-101437779D01*
X109409307Y-101280003D01*
X109409307Y-101279996D01*
X109390150Y-101122220D01*
X109376538Y-101086331D01*
X109333787Y-100973605D01*
X109243498Y-100842799D01*
X109166191Y-100774310D01*
X109128467Y-100714168D01*
X109129247Y-100643175D01*
X109166191Y-100585689D01*
X109243498Y-100517201D01*
X109333787Y-100386395D01*
X109390149Y-100237782D01*
X109390149Y-100237781D01*
X109390150Y-100237779D01*
X109409307Y-100080003D01*
X109409307Y-100079996D01*
X109390150Y-99922220D01*
X109350397Y-99817402D01*
X109333787Y-99773605D01*
X109331299Y-99770000D01*
X113260312Y-99770000D01*
X113280958Y-99913596D01*
X113341223Y-100045558D01*
X113380985Y-100091446D01*
X113410478Y-100156026D01*
X113400374Y-100226300D01*
X113340958Y-100356403D01*
X113333771Y-100406392D01*
X113320312Y-100500000D01*
X113340958Y-100643596D01*
X113401223Y-100775558D01*
X113496225Y-100885196D01*
X113618268Y-100963629D01*
X113757464Y-101004500D01*
X113902536Y-101004500D01*
X114041732Y-100963629D01*
X114163775Y-100885196D01*
X114258777Y-100775558D01*
X114319042Y-100643596D01*
X114339688Y-100500000D01*
X114319559Y-100360003D01*
X116430693Y-100360003D01*
X116449849Y-100517779D01*
X116489603Y-100622599D01*
X116506213Y-100666395D01*
X116596502Y-100797201D01*
X116715471Y-100902599D01*
X116715472Y-100902599D01*
X116715474Y-100902601D01*
X116782508Y-100937783D01*
X116856207Y-100976463D01*
X117010529Y-101014500D01*
X117010530Y-101014500D01*
X117169470Y-101014500D01*
X117169471Y-101014500D01*
X117323793Y-100976463D01*
X117464529Y-100902599D01*
X117583498Y-100797201D01*
X117673787Y-100666395D01*
X117730149Y-100517782D01*
X117730149Y-100517781D01*
X117730150Y-100517779D01*
X117749307Y-100360003D01*
X117749307Y-100359996D01*
X117730150Y-100202220D01*
X117716229Y-100165515D01*
X117673787Y-100053605D01*
X117583498Y-99922799D01*
X117464529Y-99817401D01*
X117464528Y-99817400D01*
X117464525Y-99817398D01*
X117323797Y-99743539D01*
X117323795Y-99743538D01*
X117323793Y-99743537D01*
X117323791Y-99743536D01*
X117323790Y-99743536D01*
X117169472Y-99705500D01*
X117169471Y-99705500D01*
X117010529Y-99705500D01*
X117010527Y-99705500D01*
X116856209Y-99743536D01*
X116856202Y-99743539D01*
X116715474Y-99817398D01*
X116715469Y-99817402D01*
X116596501Y-99922800D01*
X116506215Y-100053601D01*
X116506212Y-100053607D01*
X116449849Y-100202220D01*
X116430693Y-100359996D01*
X116430693Y-100360003D01*
X114319559Y-100360003D01*
X114319042Y-100356404D01*
X114258777Y-100224442D01*
X114258776Y-100224440D01*
X114219015Y-100178554D01*
X114189522Y-100113973D01*
X114199624Y-100043702D01*
X114259042Y-99913596D01*
X114279688Y-99770000D01*
X114259042Y-99626404D01*
X114198777Y-99494442D01*
X114168779Y-99459822D01*
X114139286Y-99395241D01*
X114149391Y-99324967D01*
X114168777Y-99294801D01*
X114228777Y-99225558D01*
X114289042Y-99093596D01*
X114309688Y-98950000D01*
X114289042Y-98806404D01*
X114228777Y-98674442D01*
X114133775Y-98564804D01*
X114133774Y-98564803D01*
X114012438Y-98486825D01*
X114011732Y-98486371D01*
X114011731Y-98486370D01*
X114011730Y-98486370D01*
X113872536Y-98445500D01*
X113727464Y-98445500D01*
X113588269Y-98486370D01*
X113588266Y-98486372D01*
X113466225Y-98564803D01*
X113371223Y-98674441D01*
X113310958Y-98806403D01*
X113290312Y-98950000D01*
X113310958Y-99093596D01*
X113371223Y-99225558D01*
X113401220Y-99260177D01*
X113430713Y-99324758D01*
X113420608Y-99395032D01*
X113401220Y-99425201D01*
X113341223Y-99494441D01*
X113280958Y-99626403D01*
X113260312Y-99770000D01*
X109331299Y-99770000D01*
X109243498Y-99642799D01*
X109222630Y-99624311D01*
X109184905Y-99564170D01*
X109185684Y-99493177D01*
X109222630Y-99435688D01*
X109243498Y-99417201D01*
X109333787Y-99286395D01*
X109390149Y-99137782D01*
X109390149Y-99137781D01*
X109390150Y-99137779D01*
X109409307Y-98980003D01*
X109409307Y-98979996D01*
X109390150Y-98822220D01*
X109376538Y-98786331D01*
X109333787Y-98673605D01*
X109243498Y-98542799D01*
X109222630Y-98524311D01*
X109184905Y-98464170D01*
X109185684Y-98393177D01*
X109222630Y-98335688D01*
X109243498Y-98317201D01*
X109333787Y-98186395D01*
X109390149Y-98037782D01*
X109390149Y-98037781D01*
X109390150Y-98037779D01*
X109409307Y-97880003D01*
X109409307Y-97879996D01*
X109390150Y-97722220D01*
X109376538Y-97686331D01*
X109333787Y-97573605D01*
X109243498Y-97442799D01*
X109124529Y-97337401D01*
X109124528Y-97337400D01*
X109124525Y-97337398D01*
X108983794Y-97263537D01*
X108981550Y-97262686D01*
X108980145Y-97261622D01*
X108977045Y-97259995D01*
X108977315Y-97259479D01*
X108924952Y-97219823D01*
X108900512Y-97153165D01*
X108915990Y-97083877D01*
X108966471Y-97033955D01*
X109026391Y-97018878D01*
X109930000Y-97020000D01*
X109930566Y-96940003D01*
X114780693Y-96940003D01*
X114799849Y-97097779D01*
X114856212Y-97246392D01*
X114856215Y-97246398D01*
X114864851Y-97258910D01*
X114946502Y-97377201D01*
X115065471Y-97482599D01*
X115065472Y-97482599D01*
X115065474Y-97482601D01*
X115085448Y-97493084D01*
X115206207Y-97556463D01*
X115360529Y-97594500D01*
X115360530Y-97594500D01*
X115519470Y-97594500D01*
X115519471Y-97594500D01*
X115673793Y-97556463D01*
X115814529Y-97482599D01*
X115933498Y-97377201D01*
X116023787Y-97246395D01*
X116080149Y-97097782D01*
X116080149Y-97097781D01*
X116080150Y-97097779D01*
X116099307Y-96940003D01*
X116099307Y-96939996D01*
X116080150Y-96782220D01*
X116050692Y-96704548D01*
X116023787Y-96633605D01*
X115933498Y-96502799D01*
X115814529Y-96397401D01*
X115814528Y-96397400D01*
X115814525Y-96397398D01*
X115673797Y-96323539D01*
X115673795Y-96323538D01*
X115673793Y-96323537D01*
X115673791Y-96323536D01*
X115673790Y-96323536D01*
X115519472Y-96285500D01*
X115519471Y-96285500D01*
X115360529Y-96285500D01*
X115360527Y-96285500D01*
X115206209Y-96323536D01*
X115206202Y-96323539D01*
X115065474Y-96397398D01*
X115065469Y-96397402D01*
X114946501Y-96502800D01*
X114856215Y-96633601D01*
X114856212Y-96633607D01*
X114799849Y-96782220D01*
X114780693Y-96939996D01*
X114780693Y-96940003D01*
X109930566Y-96940003D01*
X109944002Y-95041121D01*
X124059500Y-95041121D01*
X124093728Y-95301108D01*
X124093729Y-95301114D01*
X124093730Y-95301116D01*
X124161602Y-95554419D01*
X124261957Y-95796697D01*
X124261958Y-95796698D01*
X124261963Y-95796709D01*
X124393073Y-96023799D01*
X124393077Y-96023805D01*
X124552710Y-96231842D01*
X124552729Y-96231863D01*
X124738136Y-96417270D01*
X124738157Y-96417289D01*
X124946194Y-96576922D01*
X124946200Y-96576926D01*
X125173290Y-96708036D01*
X125173294Y-96708037D01*
X125173303Y-96708043D01*
X125415581Y-96808398D01*
X125668884Y-96876270D01*
X125668890Y-96876270D01*
X125668891Y-96876271D01*
X125693900Y-96879563D01*
X125928880Y-96910500D01*
X125928887Y-96910500D01*
X126191113Y-96910500D01*
X126191120Y-96910500D01*
X126451116Y-96876270D01*
X126704419Y-96808398D01*
X126946697Y-96708043D01*
X127173803Y-96576924D01*
X127381851Y-96417282D01*
X127567282Y-96231851D01*
X127726924Y-96023803D01*
X127858043Y-95796697D01*
X127958398Y-95554419D01*
X128026270Y-95301116D01*
X128060500Y-95041120D01*
X128060500Y-94778880D01*
X128026270Y-94518884D01*
X127958398Y-94265581D01*
X127858043Y-94023303D01*
X127858037Y-94023294D01*
X127858036Y-94023290D01*
X127726926Y-93796200D01*
X127726922Y-93796194D01*
X127567289Y-93588157D01*
X127567270Y-93588136D01*
X127381863Y-93402729D01*
X127381842Y-93402710D01*
X127173805Y-93243077D01*
X127173799Y-93243073D01*
X126946709Y-93111963D01*
X126946701Y-93111959D01*
X126946697Y-93111957D01*
X126704419Y-93011602D01*
X126451116Y-92943730D01*
X126451114Y-92943729D01*
X126451108Y-92943728D01*
X126191121Y-92909500D01*
X126191120Y-92909500D01*
X125928880Y-92909500D01*
X125928878Y-92909500D01*
X125668891Y-92943728D01*
X125415581Y-93011602D01*
X125173301Y-93111958D01*
X125173290Y-93111963D01*
X124946200Y-93243073D01*
X124946194Y-93243077D01*
X124738157Y-93402710D01*
X124738136Y-93402729D01*
X124552729Y-93588136D01*
X124552710Y-93588157D01*
X124393077Y-93796194D01*
X124393073Y-93796200D01*
X124261963Y-94023290D01*
X124261958Y-94023301D01*
X124261957Y-94023303D01*
X124161602Y-94265581D01*
X124093728Y-94518891D01*
X124059500Y-94778878D01*
X124059500Y-95041121D01*
X109944002Y-95041121D01*
X109969767Y-91400003D01*
X111240693Y-91400003D01*
X111259849Y-91557779D01*
X111308447Y-91685919D01*
X111316213Y-91706395D01*
X111406502Y-91837201D01*
X111525471Y-91942599D01*
X111525472Y-91942599D01*
X111525474Y-91942601D01*
X111600200Y-91981820D01*
X111666207Y-92016463D01*
X111820529Y-92054500D01*
X111820530Y-92054500D01*
X111979470Y-92054500D01*
X111979471Y-92054500D01*
X112133793Y-92016463D01*
X112274529Y-91942599D01*
X112393498Y-91837201D01*
X112483787Y-91706395D01*
X112540149Y-91557782D01*
X112540149Y-91557781D01*
X112540150Y-91557779D01*
X112559307Y-91400003D01*
X112559307Y-91399996D01*
X112540150Y-91242220D01*
X112526538Y-91206331D01*
X112483787Y-91093605D01*
X112393498Y-90962799D01*
X112316191Y-90894310D01*
X112278467Y-90834168D01*
X112279247Y-90763175D01*
X112316191Y-90705689D01*
X112393498Y-90637201D01*
X112483787Y-90506395D01*
X112540149Y-90357782D01*
X112540149Y-90357781D01*
X112540150Y-90357779D01*
X112559307Y-90200003D01*
X112559307Y-90199996D01*
X112540150Y-90042220D01*
X112526538Y-90006331D01*
X112483787Y-89893605D01*
X112393498Y-89762799D01*
X112344410Y-89719310D01*
X112306686Y-89659168D01*
X112307466Y-89588175D01*
X112344410Y-89530689D01*
X112393498Y-89487201D01*
X112483787Y-89356395D01*
X112540149Y-89207782D01*
X112540149Y-89207781D01*
X112540150Y-89207779D01*
X112559307Y-89050003D01*
X112559307Y-89049996D01*
X112540150Y-88892220D01*
X112526538Y-88856331D01*
X112483787Y-88743605D01*
X112393498Y-88612799D01*
X112274529Y-88507401D01*
X112274528Y-88507400D01*
X112274525Y-88507398D01*
X112133797Y-88433539D01*
X112133795Y-88433538D01*
X112133793Y-88433537D01*
X112133791Y-88433536D01*
X112133790Y-88433536D01*
X111979472Y-88395500D01*
X111979471Y-88395500D01*
X111820529Y-88395500D01*
X111820527Y-88395500D01*
X111666209Y-88433536D01*
X111666202Y-88433539D01*
X111525474Y-88507398D01*
X111525469Y-88507402D01*
X111406501Y-88612800D01*
X111316215Y-88743601D01*
X111316212Y-88743607D01*
X111259849Y-88892220D01*
X111240693Y-89049996D01*
X111240693Y-89050003D01*
X111259849Y-89207779D01*
X111308447Y-89335919D01*
X111316213Y-89356395D01*
X111406502Y-89487201D01*
X111441709Y-89518392D01*
X111455589Y-89530689D01*
X111493313Y-89590833D01*
X111492532Y-89661826D01*
X111455589Y-89719311D01*
X111406501Y-89762800D01*
X111316215Y-89893601D01*
X111316212Y-89893607D01*
X111259849Y-90042220D01*
X111240693Y-90199996D01*
X111240693Y-90200003D01*
X111259849Y-90357779D01*
X111308447Y-90485919D01*
X111316213Y-90506395D01*
X111406502Y-90637201D01*
X111466753Y-90690579D01*
X111483807Y-90705688D01*
X111521532Y-90765833D01*
X111520752Y-90836825D01*
X111483807Y-90894312D01*
X111406501Y-90962800D01*
X111316215Y-91093601D01*
X111316212Y-91093607D01*
X111259849Y-91242220D01*
X111240693Y-91399996D01*
X111240693Y-91400003D01*
X109969767Y-91400003D01*
X110014346Y-85100003D01*
X111190693Y-85100003D01*
X111209849Y-85257779D01*
X111258447Y-85385919D01*
X111266212Y-85406393D01*
X111266215Y-85406398D01*
X111356500Y-85537199D01*
X111356501Y-85537200D01*
X111356502Y-85537201D01*
X111441242Y-85612275D01*
X111478967Y-85672418D01*
X111478187Y-85743411D01*
X111461385Y-85778161D01*
X111416214Y-85843602D01*
X111416212Y-85843607D01*
X111359849Y-85992220D01*
X111340693Y-86149996D01*
X111340693Y-86150003D01*
X111359849Y-86307779D01*
X111384257Y-86372135D01*
X111416213Y-86456395D01*
X111506502Y-86587201D01*
X111568452Y-86642084D01*
X111606177Y-86702229D01*
X111605397Y-86773221D01*
X111566359Y-86832522D01*
X111543454Y-86847963D01*
X111525471Y-86857400D01*
X111525469Y-86857402D01*
X111406501Y-86962800D01*
X111316215Y-87093601D01*
X111316212Y-87093607D01*
X111259849Y-87242220D01*
X111240693Y-87399996D01*
X111240693Y-87400003D01*
X111259849Y-87557779D01*
X111296460Y-87654312D01*
X111316213Y-87706395D01*
X111406502Y-87837201D01*
X111525471Y-87942599D01*
X111525472Y-87942599D01*
X111525474Y-87942601D01*
X111600200Y-87981820D01*
X111666207Y-88016463D01*
X111820529Y-88054500D01*
X111820530Y-88054500D01*
X111979470Y-88054500D01*
X111979471Y-88054500D01*
X112133793Y-88016463D01*
X112274529Y-87942599D01*
X112393498Y-87837201D01*
X112483787Y-87706395D01*
X112540149Y-87557782D01*
X112540149Y-87557781D01*
X112540150Y-87557779D01*
X112559307Y-87400003D01*
X112559307Y-87399996D01*
X112540150Y-87242220D01*
X112526538Y-87206331D01*
X112483787Y-87093605D01*
X112393498Y-86962799D01*
X112331546Y-86907914D01*
X112293822Y-86847770D01*
X112294602Y-86776778D01*
X112333640Y-86717477D01*
X112356540Y-86702040D01*
X112374529Y-86692599D01*
X112493498Y-86587201D01*
X112583787Y-86456395D01*
X112640149Y-86307782D01*
X112640149Y-86307781D01*
X112640150Y-86307779D01*
X112659307Y-86150003D01*
X112659307Y-86149996D01*
X112640150Y-85992220D01*
X112615743Y-85927865D01*
X112583787Y-85843605D01*
X112493498Y-85712799D01*
X112408756Y-85637723D01*
X112371032Y-85577581D01*
X112371812Y-85506588D01*
X112388612Y-85471842D01*
X112433787Y-85406395D01*
X112490149Y-85257782D01*
X112490149Y-85257781D01*
X112490150Y-85257779D01*
X112509307Y-85100003D01*
X112509307Y-85099996D01*
X112490150Y-84942220D01*
X112476538Y-84906331D01*
X112433787Y-84793605D01*
X112343498Y-84662799D01*
X112224529Y-84557401D01*
X112224528Y-84557400D01*
X112224525Y-84557398D01*
X112083797Y-84483539D01*
X112083795Y-84483538D01*
X112083793Y-84483537D01*
X112083791Y-84483536D01*
X112083790Y-84483536D01*
X111947729Y-84450000D01*
X127260726Y-84450000D01*
X127279763Y-84618954D01*
X127279764Y-84618956D01*
X127335918Y-84779437D01*
X127335919Y-84779439D01*
X127426375Y-84923399D01*
X127426377Y-84923402D01*
X127546597Y-85043622D01*
X127546600Y-85043624D01*
X127690563Y-85134082D01*
X127851046Y-85190237D01*
X128020000Y-85209274D01*
X128188954Y-85190237D01*
X128349437Y-85134082D01*
X128493400Y-85043624D01*
X128613624Y-84923400D01*
X128704082Y-84779437D01*
X128760237Y-84618954D01*
X128779274Y-84450000D01*
X128760237Y-84281046D01*
X128704082Y-84120563D01*
X128613624Y-83976600D01*
X128613622Y-83976597D01*
X128493402Y-83856377D01*
X128493399Y-83856375D01*
X128349439Y-83765919D01*
X128349437Y-83765918D01*
X128188954Y-83709763D01*
X128020000Y-83690726D01*
X127851046Y-83709763D01*
X127851043Y-83709763D01*
X127851043Y-83709764D01*
X127690562Y-83765918D01*
X127690560Y-83765919D01*
X127546600Y-83856375D01*
X127546597Y-83856377D01*
X127426377Y-83976597D01*
X127426375Y-83976600D01*
X127335919Y-84120560D01*
X127335918Y-84120562D01*
X127335918Y-84120563D01*
X127279763Y-84281046D01*
X127260726Y-84450000D01*
X111947729Y-84450000D01*
X111929472Y-84445500D01*
X111929471Y-84445500D01*
X111770529Y-84445500D01*
X111770527Y-84445500D01*
X111616209Y-84483536D01*
X111616202Y-84483539D01*
X111475474Y-84557398D01*
X111475469Y-84557402D01*
X111356501Y-84662800D01*
X111266215Y-84793601D01*
X111266212Y-84793607D01*
X111209849Y-84942220D01*
X111190693Y-85099996D01*
X111190693Y-85100003D01*
X110014346Y-85100003D01*
X110029206Y-83000003D01*
X111200693Y-83000003D01*
X111219849Y-83157779D01*
X111268447Y-83285919D01*
X111276213Y-83306395D01*
X111366502Y-83437201D01*
X111485471Y-83542599D01*
X111485472Y-83542599D01*
X111485474Y-83542601D01*
X111560200Y-83581820D01*
X111626207Y-83616463D01*
X111780529Y-83654500D01*
X111780530Y-83654500D01*
X111939470Y-83654500D01*
X111939471Y-83654500D01*
X112093793Y-83616463D01*
X112234529Y-83542599D01*
X112353498Y-83437201D01*
X112443787Y-83306395D01*
X112500149Y-83157782D01*
X112500149Y-83157781D01*
X112500150Y-83157779D01*
X112519307Y-83000003D01*
X112519307Y-82999996D01*
X112500150Y-82842220D01*
X112486538Y-82806331D01*
X112443787Y-82693605D01*
X112353498Y-82562799D01*
X112234529Y-82457401D01*
X112234528Y-82457400D01*
X112234525Y-82457398D01*
X112093797Y-82383539D01*
X112093795Y-82383538D01*
X112093793Y-82383537D01*
X112093791Y-82383536D01*
X112093790Y-82383536D01*
X111939472Y-82345500D01*
X111939471Y-82345500D01*
X111780529Y-82345500D01*
X111780527Y-82345500D01*
X111626209Y-82383536D01*
X111626202Y-82383539D01*
X111485474Y-82457398D01*
X111485469Y-82457402D01*
X111366501Y-82562800D01*
X111276215Y-82693601D01*
X111276212Y-82693607D01*
X111219849Y-82842220D01*
X111200693Y-82999996D01*
X111200693Y-83000003D01*
X110029206Y-83000003D01*
X110061614Y-78420000D01*
X115070312Y-78420000D01*
X115090958Y-78563596D01*
X115151223Y-78695558D01*
X115246225Y-78805196D01*
X115368268Y-78883629D01*
X115507464Y-78924500D01*
X115652535Y-78924500D01*
X115652536Y-78924500D01*
X115759095Y-78893212D01*
X115830088Y-78893212D01*
X115889814Y-78931595D01*
X115919307Y-78996176D01*
X115909204Y-79066449D01*
X115890959Y-79106400D01*
X115890958Y-79106403D01*
X115870312Y-79250000D01*
X115890958Y-79393596D01*
X115951223Y-79525558D01*
X116046225Y-79635196D01*
X116168268Y-79713629D01*
X116307464Y-79754500D01*
X116452536Y-79754500D01*
X116591732Y-79713629D01*
X116713775Y-79635196D01*
X116808777Y-79525558D01*
X116869042Y-79393596D01*
X116889688Y-79250000D01*
X116869042Y-79106404D01*
X116808777Y-78974442D01*
X116713775Y-78864804D01*
X116713774Y-78864803D01*
X116621024Y-78805196D01*
X116591732Y-78786371D01*
X116591731Y-78786370D01*
X116591730Y-78786370D01*
X116452536Y-78745500D01*
X116307464Y-78745500D01*
X116307463Y-78745500D01*
X116200906Y-78776787D01*
X116129910Y-78776787D01*
X116070184Y-78738403D01*
X116040691Y-78673822D01*
X116050795Y-78603549D01*
X116069042Y-78563596D01*
X116089688Y-78420000D01*
X116069042Y-78276404D01*
X116008777Y-78144442D01*
X115913775Y-78034804D01*
X115913774Y-78034803D01*
X115852753Y-77995587D01*
X115791732Y-77956371D01*
X115791731Y-77956370D01*
X115791730Y-77956370D01*
X115652536Y-77915500D01*
X115507464Y-77915500D01*
X115368269Y-77956370D01*
X115368266Y-77956372D01*
X115246225Y-78034803D01*
X115151223Y-78144441D01*
X115119231Y-78214495D01*
X115090958Y-78276404D01*
X115070312Y-78420000D01*
X110061614Y-78420000D01*
X110114684Y-70920000D01*
X115780726Y-70920000D01*
X115799763Y-71088954D01*
X115845617Y-71219999D01*
X115855918Y-71249437D01*
X115855919Y-71249439D01*
X115946375Y-71393399D01*
X115946377Y-71393402D01*
X116066597Y-71513622D01*
X116066600Y-71513624D01*
X116210563Y-71604082D01*
X116371046Y-71660237D01*
X116540000Y-71679274D01*
X116708954Y-71660237D01*
X116869437Y-71604082D01*
X117013400Y-71513624D01*
X117122558Y-71404465D01*
X117184868Y-71370442D01*
X117255684Y-71375506D01*
X117312520Y-71418053D01*
X117315058Y-71421748D01*
X117316377Y-71423402D01*
X117436597Y-71543622D01*
X117436600Y-71543624D01*
X117580563Y-71634082D01*
X117741046Y-71690237D01*
X117910000Y-71709274D01*
X118078954Y-71690237D01*
X118239437Y-71634082D01*
X118383400Y-71543624D01*
X118503624Y-71423400D01*
X118586666Y-71291238D01*
X118639844Y-71244201D01*
X118710011Y-71233381D01*
X118774890Y-71262214D01*
X118800040Y-71291239D01*
X118860609Y-71387633D01*
X118860611Y-71387636D01*
X118980831Y-71507856D01*
X118980834Y-71507858D01*
X119124797Y-71598316D01*
X119285280Y-71654471D01*
X119454234Y-71673508D01*
X119623188Y-71654471D01*
X119783671Y-71598316D01*
X119927634Y-71507858D01*
X120047858Y-71387634D01*
X120138316Y-71243671D01*
X120194471Y-71083188D01*
X120213508Y-70914234D01*
X120194471Y-70745280D01*
X120138316Y-70584797D01*
X120047858Y-70440834D01*
X120047856Y-70440831D01*
X119927636Y-70320611D01*
X119927633Y-70320609D01*
X119783673Y-70230153D01*
X119783671Y-70230152D01*
X119725402Y-70209763D01*
X119623188Y-70173997D01*
X119454234Y-70154960D01*
X119285280Y-70173997D01*
X119285277Y-70173997D01*
X119285277Y-70173998D01*
X119124796Y-70230152D01*
X119124794Y-70230153D01*
X118980834Y-70320609D01*
X118980831Y-70320611D01*
X118860612Y-70440830D01*
X118777567Y-70572995D01*
X118724388Y-70620032D01*
X118654221Y-70630852D01*
X118589343Y-70602019D01*
X118564193Y-70572994D01*
X118503624Y-70476600D01*
X118503622Y-70476597D01*
X118383402Y-70356377D01*
X118383399Y-70356375D01*
X118239439Y-70265919D01*
X118239437Y-70265918D01*
X118153701Y-70235918D01*
X118078954Y-70209763D01*
X117910000Y-70190726D01*
X117741046Y-70209763D01*
X117741043Y-70209763D01*
X117741043Y-70209764D01*
X117580562Y-70265918D01*
X117580560Y-70265919D01*
X117436600Y-70356374D01*
X117327442Y-70465533D01*
X117265130Y-70499558D01*
X117194314Y-70494492D01*
X117137478Y-70451946D01*
X117134935Y-70448244D01*
X117133622Y-70446597D01*
X117013402Y-70326377D01*
X117013399Y-70326375D01*
X116869439Y-70235919D01*
X116869437Y-70235918D01*
X116852959Y-70230152D01*
X116708954Y-70179763D01*
X116540000Y-70160726D01*
X116371046Y-70179763D01*
X116371043Y-70179763D01*
X116371043Y-70179764D01*
X116210562Y-70235918D01*
X116210560Y-70235919D01*
X116066600Y-70326375D01*
X116066597Y-70326377D01*
X115946377Y-70446597D01*
X115946375Y-70446600D01*
X115855919Y-70590560D01*
X115855918Y-70590562D01*
X115799764Y-70751043D01*
X115799763Y-70751046D01*
X115780726Y-70920000D01*
X110114684Y-70920000D01*
X110124661Y-69510000D01*
X120340312Y-69510000D01*
X120360958Y-69653596D01*
X120421223Y-69785558D01*
X120516225Y-69895196D01*
X120638268Y-69973629D01*
X120777464Y-70014500D01*
X120844075Y-70014500D01*
X120912196Y-70034502D01*
X120958689Y-70088158D01*
X120968792Y-70158429D01*
X120967129Y-70170000D01*
X120987775Y-70313596D01*
X121048040Y-70445558D01*
X121143042Y-70555196D01*
X121265085Y-70633629D01*
X121404281Y-70674500D01*
X121479341Y-70674500D01*
X121547462Y-70694502D01*
X121593955Y-70748158D01*
X121604058Y-70818430D01*
X121591612Y-70905000D01*
X121612258Y-71048596D01*
X121672523Y-71180558D01*
X121767525Y-71290196D01*
X121889568Y-71368629D01*
X122028764Y-71409500D01*
X122173836Y-71409500D01*
X122313032Y-71368629D01*
X122435075Y-71290196D01*
X122530077Y-71180558D01*
X122590342Y-71048596D01*
X122610988Y-70905000D01*
X122590342Y-70761404D01*
X122530077Y-70629442D01*
X122435075Y-70519804D01*
X122435074Y-70519803D01*
X122350628Y-70465533D01*
X122313032Y-70441371D01*
X122313031Y-70441370D01*
X122313030Y-70441370D01*
X122173836Y-70400500D01*
X122098776Y-70400500D01*
X122030655Y-70380498D01*
X121984162Y-70326842D01*
X121974058Y-70256568D01*
X121977856Y-70230152D01*
X121986505Y-70170000D01*
X121965859Y-70026404D01*
X121905594Y-69894442D01*
X121810592Y-69784804D01*
X121810591Y-69784803D01*
X121689840Y-69707201D01*
X121688549Y-69706371D01*
X121688548Y-69706370D01*
X121688547Y-69706370D01*
X121549353Y-69665500D01*
X121482742Y-69665500D01*
X121414621Y-69645498D01*
X121368128Y-69591842D01*
X121358024Y-69521570D01*
X121359688Y-69510000D01*
X121339042Y-69366404D01*
X121278777Y-69234442D01*
X121183775Y-69124804D01*
X121183774Y-69124803D01*
X121122753Y-69085587D01*
X121061732Y-69046371D01*
X121061731Y-69046370D01*
X121061730Y-69046370D01*
X120922536Y-69005500D01*
X120777464Y-69005500D01*
X120638269Y-69046370D01*
X120638266Y-69046372D01*
X120516225Y-69124803D01*
X120421223Y-69234441D01*
X120421223Y-69234442D01*
X120360958Y-69366404D01*
X120340312Y-69510000D01*
X110124661Y-69510000D01*
X110142807Y-66945600D01*
X120734712Y-66945600D01*
X120755358Y-67089196D01*
X120815623Y-67221158D01*
X120910625Y-67330796D01*
X121032668Y-67409229D01*
X121171864Y-67450100D01*
X121316936Y-67450100D01*
X121456132Y-67409229D01*
X121578175Y-67330796D01*
X121673177Y-67221158D01*
X121733442Y-67089196D01*
X121754088Y-66945600D01*
X121733442Y-66802004D01*
X121673177Y-66670042D01*
X121578175Y-66560404D01*
X121578174Y-66560403D01*
X121457106Y-66482597D01*
X121456132Y-66481971D01*
X121456131Y-66481970D01*
X121456130Y-66481970D01*
X121316936Y-66441100D01*
X121171864Y-66441100D01*
X121032669Y-66481970D01*
X121032666Y-66481972D01*
X120910625Y-66560403D01*
X120815623Y-66670041D01*
X120770495Y-66768859D01*
X120755358Y-66802004D01*
X120734712Y-66945600D01*
X110142807Y-66945600D01*
X110149923Y-65940003D01*
X124940693Y-65940003D01*
X124959849Y-66097779D01*
X124969188Y-66122402D01*
X125016213Y-66246395D01*
X125106502Y-66377201D01*
X125225471Y-66482599D01*
X125225472Y-66482599D01*
X125225474Y-66482601D01*
X125300200Y-66521820D01*
X125366207Y-66556463D01*
X125520529Y-66594500D01*
X125520530Y-66594500D01*
X125679470Y-66594500D01*
X125679471Y-66594500D01*
X125833793Y-66556463D01*
X125974529Y-66482599D01*
X126093498Y-66377201D01*
X126183787Y-66246395D01*
X126240149Y-66097782D01*
X126240149Y-66097781D01*
X126240150Y-66097779D01*
X126259307Y-65940003D01*
X126259307Y-65939996D01*
X126240150Y-65782220D01*
X126204818Y-65689059D01*
X126183787Y-65633605D01*
X126093498Y-65502799D01*
X125974529Y-65397401D01*
X125974528Y-65397400D01*
X125974525Y-65397398D01*
X125833797Y-65323539D01*
X125833795Y-65323538D01*
X125833793Y-65323537D01*
X125833791Y-65323536D01*
X125833790Y-65323536D01*
X125679472Y-65285500D01*
X125679471Y-65285500D01*
X125520529Y-65285500D01*
X125520527Y-65285500D01*
X125366209Y-65323536D01*
X125366202Y-65323539D01*
X125225474Y-65397398D01*
X125225469Y-65397402D01*
X125106501Y-65502800D01*
X125016215Y-65633601D01*
X125016212Y-65633607D01*
X124959849Y-65782220D01*
X124940693Y-65939996D01*
X124940693Y-65940003D01*
X110149923Y-65940003D01*
X110180201Y-61660931D01*
X110189788Y-61613615D01*
X110222959Y-61533533D01*
X110245893Y-61478168D01*
X110245894Y-61478163D01*
X110245897Y-61478157D01*
X110284500Y-61284090D01*
X110284500Y-61250003D01*
X111852693Y-61250003D01*
X111871849Y-61407779D01*
X111928212Y-61556392D01*
X111928215Y-61556398D01*
X111942371Y-61576906D01*
X112018502Y-61687201D01*
X112137471Y-61792599D01*
X112137472Y-61792599D01*
X112137474Y-61792601D01*
X112200132Y-61825486D01*
X112278207Y-61866463D01*
X112432529Y-61904500D01*
X112432530Y-61904500D01*
X112591470Y-61904500D01*
X112591471Y-61904500D01*
X112745793Y-61866463D01*
X112886529Y-61792599D01*
X113005498Y-61687201D01*
X113095787Y-61556395D01*
X113152149Y-61407782D01*
X113152149Y-61407781D01*
X113152150Y-61407779D01*
X113167058Y-61285000D01*
X122595312Y-61285000D01*
X122615958Y-61428596D01*
X122676223Y-61560558D01*
X122771225Y-61670196D01*
X122893268Y-61748629D01*
X123032464Y-61789500D01*
X123177536Y-61789500D01*
X123316732Y-61748629D01*
X123438775Y-61670196D01*
X123533777Y-61560558D01*
X123594042Y-61428596D01*
X123614688Y-61285000D01*
X123594042Y-61141404D01*
X123533777Y-61009442D01*
X123438775Y-60899804D01*
X123438774Y-60899803D01*
X123377753Y-60860587D01*
X123316732Y-60821371D01*
X123316731Y-60821370D01*
X123316730Y-60821370D01*
X123177536Y-60780500D01*
X123032464Y-60780500D01*
X122893269Y-60821370D01*
X122893266Y-60821372D01*
X122771225Y-60899803D01*
X122676223Y-61009441D01*
X122638420Y-61092220D01*
X122615958Y-61141404D01*
X122595312Y-61285000D01*
X113167058Y-61285000D01*
X113171307Y-61250003D01*
X113171307Y-61249996D01*
X113152150Y-61092220D01*
X113120756Y-61009442D01*
X113095787Y-60943605D01*
X113005498Y-60812799D01*
X112886529Y-60707401D01*
X112886528Y-60707400D01*
X112886525Y-60707398D01*
X112745797Y-60633539D01*
X112745795Y-60633538D01*
X112745793Y-60633537D01*
X112745791Y-60633536D01*
X112745790Y-60633536D01*
X112591472Y-60595500D01*
X112591471Y-60595500D01*
X112432529Y-60595500D01*
X112432527Y-60595500D01*
X112278209Y-60633536D01*
X112278202Y-60633539D01*
X112137474Y-60707398D01*
X112137469Y-60707402D01*
X112018501Y-60812800D01*
X111928215Y-60943601D01*
X111928212Y-60943607D01*
X111871849Y-61092220D01*
X111852693Y-61249996D01*
X111852693Y-61250003D01*
X110284500Y-61250003D01*
X110284500Y-61086220D01*
X110245897Y-60892153D01*
X110245895Y-60892149D01*
X110245893Y-60892141D01*
X110196422Y-60772710D01*
X110186834Y-60723604D01*
X110193865Y-59730000D01*
X122530312Y-59730000D01*
X122550958Y-59873596D01*
X122611223Y-60005558D01*
X122706225Y-60115196D01*
X122828268Y-60193629D01*
X122967464Y-60234500D01*
X123112536Y-60234500D01*
X123251732Y-60193629D01*
X123373775Y-60115196D01*
X123468777Y-60005558D01*
X123529042Y-59873596D01*
X123549688Y-59730000D01*
X123529042Y-59586404D01*
X123468777Y-59454442D01*
X123373775Y-59344804D01*
X123373774Y-59344803D01*
X123312753Y-59305587D01*
X123251732Y-59266371D01*
X123251731Y-59266370D01*
X123251730Y-59266370D01*
X123112536Y-59225500D01*
X122967464Y-59225500D01*
X122828269Y-59266370D01*
X122828266Y-59266372D01*
X122706225Y-59344803D01*
X122611223Y-59454441D01*
X122594163Y-59491799D01*
X122550958Y-59586404D01*
X122530312Y-59730000D01*
X110193865Y-59730000D01*
X110200308Y-58819460D01*
X124844200Y-58819460D01*
X124861204Y-58904944D01*
X124872860Y-58963542D01*
X124929080Y-59099269D01*
X124983615Y-59180887D01*
X125010698Y-59221419D01*
X125010703Y-59221425D01*
X125114574Y-59325296D01*
X125114580Y-59325301D01*
X125236731Y-59406920D01*
X125372458Y-59463140D01*
X125496521Y-59487817D01*
X125516539Y-59491799D01*
X125516542Y-59491799D01*
X125516545Y-59491800D01*
X125516546Y-59491800D01*
X125663454Y-59491800D01*
X125663455Y-59491800D01*
X125807542Y-59463140D01*
X125943269Y-59406920D01*
X126065420Y-59325301D01*
X126169301Y-59221420D01*
X126250920Y-59099269D01*
X126307140Y-58963542D01*
X126335800Y-58819455D01*
X126335800Y-58672545D01*
X126333162Y-58659285D01*
X126331817Y-58652521D01*
X126307140Y-58528458D01*
X126250920Y-58392731D01*
X126169301Y-58270580D01*
X126169296Y-58270574D01*
X126065425Y-58166703D01*
X126065419Y-58166698D01*
X125989276Y-58115821D01*
X125943269Y-58085080D01*
X125807542Y-58028860D01*
X125751285Y-58017670D01*
X125663460Y-58000200D01*
X125663455Y-58000200D01*
X125516545Y-58000200D01*
X125516539Y-58000200D01*
X125393041Y-58024765D01*
X125372458Y-58028860D01*
X125372455Y-58028860D01*
X125372452Y-58028862D01*
X125236731Y-58085080D01*
X125114580Y-58166698D01*
X125114574Y-58166703D01*
X125010703Y-58270574D01*
X125010698Y-58270580D01*
X124929080Y-58392731D01*
X124872862Y-58528452D01*
X124872860Y-58528459D01*
X124844200Y-58672539D01*
X124844200Y-58819460D01*
X110200308Y-58819460D01*
X110207497Y-57803460D01*
X129924200Y-57803460D01*
X129944671Y-57906374D01*
X129952860Y-57947542D01*
X130009080Y-58083269D01*
X130030831Y-58115821D01*
X130090698Y-58205419D01*
X130090703Y-58205425D01*
X130194574Y-58309296D01*
X130194580Y-58309301D01*
X130316731Y-58390920D01*
X130452458Y-58447140D01*
X130576521Y-58471817D01*
X130596539Y-58475799D01*
X130596542Y-58475799D01*
X130596545Y-58475800D01*
X130596546Y-58475800D01*
X130743454Y-58475800D01*
X130743455Y-58475800D01*
X130887542Y-58447140D01*
X131023269Y-58390920D01*
X131145420Y-58309301D01*
X131249301Y-58205420D01*
X131330920Y-58083269D01*
X131387140Y-57947542D01*
X131415800Y-57803455D01*
X131415800Y-57656545D01*
X131387140Y-57512458D01*
X131330920Y-57376731D01*
X131249301Y-57254580D01*
X131249296Y-57254574D01*
X131145425Y-57150703D01*
X131145419Y-57150698D01*
X131104887Y-57123615D01*
X131023269Y-57069080D01*
X130887542Y-57012860D01*
X130846374Y-57004671D01*
X130743460Y-56984200D01*
X130743455Y-56984200D01*
X130596545Y-56984200D01*
X130596539Y-56984200D01*
X130473041Y-57008765D01*
X130452458Y-57012860D01*
X130452455Y-57012860D01*
X130452452Y-57012862D01*
X130316731Y-57069080D01*
X130194580Y-57150698D01*
X130194574Y-57150703D01*
X130090703Y-57254574D01*
X130090698Y-57254580D01*
X130009080Y-57376731D01*
X129952862Y-57512452D01*
X129952860Y-57512459D01*
X129924200Y-57656539D01*
X129924200Y-57803460D01*
X110207497Y-57803460D01*
X110214686Y-56787460D01*
X124844200Y-56787460D01*
X124855668Y-56845112D01*
X124872860Y-56931542D01*
X124929080Y-57067269D01*
X124983615Y-57148887D01*
X125010698Y-57189419D01*
X125010703Y-57189425D01*
X125114574Y-57293296D01*
X125114580Y-57293301D01*
X125236731Y-57374920D01*
X125372458Y-57431140D01*
X125496521Y-57455817D01*
X125516539Y-57459799D01*
X125516542Y-57459799D01*
X125516545Y-57459800D01*
X125516546Y-57459800D01*
X125663454Y-57459800D01*
X125663455Y-57459800D01*
X125807542Y-57431140D01*
X125943269Y-57374920D01*
X126065420Y-57293301D01*
X126169301Y-57189420D01*
X126250920Y-57067269D01*
X126307140Y-56931542D01*
X126335800Y-56787455D01*
X126335800Y-56640545D01*
X126334219Y-56632599D01*
X126331817Y-56620521D01*
X126307140Y-56496458D01*
X126250920Y-56360731D01*
X126169301Y-56238580D01*
X126169296Y-56238574D01*
X126065425Y-56134703D01*
X126065419Y-56134698D01*
X125998527Y-56090003D01*
X127470693Y-56090003D01*
X127489849Y-56247779D01*
X127493417Y-56257186D01*
X127546213Y-56396395D01*
X127636502Y-56527201D01*
X127755471Y-56632599D01*
X127755472Y-56632599D01*
X127755474Y-56632601D01*
X127830200Y-56671820D01*
X127896207Y-56706463D01*
X128050529Y-56744500D01*
X128050530Y-56744500D01*
X128209470Y-56744500D01*
X128209471Y-56744500D01*
X128363793Y-56706463D01*
X128504529Y-56632599D01*
X128623498Y-56527201D01*
X128713787Y-56396395D01*
X128770149Y-56247782D01*
X128770149Y-56247781D01*
X128770150Y-56247779D01*
X128789307Y-56090003D01*
X128789307Y-56089996D01*
X128770150Y-55932220D01*
X128756538Y-55896331D01*
X128713787Y-55783605D01*
X128623498Y-55652799D01*
X128504529Y-55547401D01*
X128504528Y-55547400D01*
X128504525Y-55547398D01*
X128363797Y-55473539D01*
X128363795Y-55473538D01*
X128363793Y-55473537D01*
X128363791Y-55473536D01*
X128363790Y-55473536D01*
X128209472Y-55435500D01*
X128209471Y-55435500D01*
X128050529Y-55435500D01*
X128050527Y-55435500D01*
X127896209Y-55473536D01*
X127896202Y-55473539D01*
X127755474Y-55547398D01*
X127755469Y-55547402D01*
X127636501Y-55652800D01*
X127546215Y-55783601D01*
X127546212Y-55783607D01*
X127489849Y-55932220D01*
X127470693Y-56089996D01*
X127470693Y-56090003D01*
X125998527Y-56090003D01*
X125998517Y-56089996D01*
X125943269Y-56053080D01*
X125807542Y-55996860D01*
X125766374Y-55988671D01*
X125663460Y-55968200D01*
X125663455Y-55968200D01*
X125516545Y-55968200D01*
X125516539Y-55968200D01*
X125393041Y-55992765D01*
X125372458Y-55996860D01*
X125372455Y-55996860D01*
X125372452Y-55996862D01*
X125236731Y-56053080D01*
X125114580Y-56134698D01*
X125114574Y-56134703D01*
X125010703Y-56238574D01*
X125010698Y-56238580D01*
X124929080Y-56360731D01*
X124872862Y-56496452D01*
X124872860Y-56496459D01*
X124844200Y-56640539D01*
X124844200Y-56787460D01*
X110214686Y-56787460D01*
X110226627Y-55100000D01*
X124320312Y-55100000D01*
X124340958Y-55243596D01*
X124401223Y-55375558D01*
X124496225Y-55485196D01*
X124618268Y-55563629D01*
X124757464Y-55604500D01*
X124902536Y-55604500D01*
X125041732Y-55563629D01*
X125163775Y-55485196D01*
X125258777Y-55375558D01*
X125319042Y-55243596D01*
X125339688Y-55100000D01*
X125319042Y-54956404D01*
X125258777Y-54824442D01*
X125163775Y-54714804D01*
X125163774Y-54714803D01*
X125102753Y-54675587D01*
X125041732Y-54636371D01*
X125041731Y-54636370D01*
X125041730Y-54636370D01*
X124902536Y-54595500D01*
X124757464Y-54595500D01*
X124618269Y-54636370D01*
X124618266Y-54636372D01*
X124496225Y-54714803D01*
X124401223Y-54824441D01*
X124342631Y-54952741D01*
X124340958Y-54956404D01*
X124320312Y-55100000D01*
X110226627Y-55100000D01*
X110228577Y-54824441D01*
X110233115Y-54183108D01*
X110253599Y-54115131D01*
X110307582Y-54069019D01*
X110359112Y-54058000D01*
X119572963Y-54058000D01*
X119641084Y-54078002D01*
G37*
%TD.AperFunction*%
%TA.AperFunction,Conductor*%
G36*
X95622325Y-125942659D02*
G01*
X95684816Y-125958060D01*
X95713213Y-125968831D01*
X95770199Y-125998741D01*
X95795194Y-126015994D01*
X95843364Y-126058668D01*
X95863509Y-126081406D01*
X95900064Y-126134366D01*
X95914179Y-126161260D01*
X95937002Y-126221438D01*
X95944271Y-126250932D01*
X95952027Y-126314812D01*
X95952027Y-126345186D01*
X95944271Y-126409067D01*
X95937001Y-126438562D01*
X95914178Y-126498739D01*
X95900064Y-126525632D01*
X95863508Y-126578594D01*
X95843363Y-126601332D01*
X95795195Y-126644004D01*
X95770200Y-126661258D01*
X95713219Y-126691165D01*
X95684816Y-126701937D01*
X95622329Y-126717339D01*
X95592175Y-126721000D01*
X95527825Y-126721000D01*
X95497671Y-126717339D01*
X95435183Y-126701937D01*
X95406784Y-126691166D01*
X95349801Y-126661259D01*
X95324805Y-126644005D01*
X95276632Y-126601328D01*
X95256489Y-126578591D01*
X95219933Y-126525630D01*
X95205817Y-126498736D01*
X95182994Y-126438557D01*
X95175728Y-126409075D01*
X95167970Y-126345177D01*
X95167970Y-126314820D01*
X95175728Y-126250918D01*
X95182995Y-126221438D01*
X95205818Y-126161257D01*
X95219926Y-126134376D01*
X95256495Y-126081398D01*
X95276626Y-126058675D01*
X95324808Y-126015989D01*
X95349801Y-125998740D01*
X95406785Y-125968831D01*
X95435181Y-125958061D01*
X95497674Y-125942659D01*
X95527818Y-125939000D01*
X95592179Y-125939000D01*
X95622325Y-125942659D01*
G37*
%TD.AperFunction*%
%TD*%
%TA.AperFunction,Conductor*%
%TO.N,GND*%
G36*
X99310757Y-55019685D02*
G01*
X99331399Y-55036319D01*
X106257370Y-61962292D01*
X106257374Y-61962295D01*
X106421234Y-62071783D01*
X106421240Y-62071786D01*
X106421241Y-62071787D01*
X106603320Y-62147207D01*
X106796610Y-62185655D01*
X106796613Y-62185656D01*
X106796615Y-62185656D01*
X106999810Y-62185656D01*
X106999830Y-62185655D01*
X108876000Y-62185655D01*
X108943039Y-62205340D01*
X108988794Y-62258144D01*
X109000000Y-62309655D01*
X109000000Y-74156291D01*
X108985087Y-74207090D01*
X108988307Y-74208561D01*
X108924834Y-74347543D01*
X108904353Y-74490000D01*
X108924834Y-74632456D01*
X108988307Y-74771440D01*
X108985076Y-74772915D01*
X109000000Y-74823650D01*
X109000000Y-95876000D01*
X108980315Y-95943039D01*
X108927511Y-95988794D01*
X108876000Y-96000000D01*
X89589500Y-96000000D01*
X89522461Y-95980315D01*
X89476706Y-95927511D01*
X89465500Y-95876000D01*
X89465500Y-95050922D01*
X89427052Y-94857636D01*
X89427051Y-94857635D01*
X89427051Y-94857631D01*
X89427049Y-94857626D01*
X89351635Y-94675558D01*
X89351628Y-94675545D01*
X89242140Y-94511685D01*
X89242139Y-94511684D01*
X89102782Y-94372327D01*
X89102781Y-94372326D01*
X88036319Y-93305864D01*
X88002834Y-93244541D01*
X88000000Y-93218183D01*
X88000000Y-82980000D01*
X91184353Y-82980000D01*
X91204834Y-83122456D01*
X91264622Y-83253371D01*
X91264623Y-83253373D01*
X91358872Y-83362143D01*
X91479947Y-83439953D01*
X91479950Y-83439954D01*
X91479949Y-83439954D01*
X91618036Y-83480499D01*
X91618038Y-83480500D01*
X91618039Y-83480500D01*
X91761962Y-83480500D01*
X91761962Y-83480499D01*
X91900053Y-83439953D01*
X92021128Y-83362143D01*
X92115377Y-83253373D01*
X92175165Y-83122457D01*
X92195647Y-82980000D01*
X92175165Y-82837543D01*
X92115377Y-82706627D01*
X92021128Y-82597857D01*
X91900053Y-82520047D01*
X91900051Y-82520046D01*
X91900049Y-82520045D01*
X91900050Y-82520045D01*
X91761963Y-82479500D01*
X91761961Y-82479500D01*
X91618039Y-82479500D01*
X91618036Y-82479500D01*
X91479949Y-82520045D01*
X91358873Y-82597856D01*
X91264623Y-82706626D01*
X91264622Y-82706628D01*
X91204834Y-82837543D01*
X91184353Y-82980000D01*
X88000000Y-82980000D01*
X88000000Y-81220000D01*
X88464353Y-81220000D01*
X88484834Y-81362456D01*
X88502959Y-81402143D01*
X88544623Y-81493373D01*
X88638872Y-81602143D01*
X88731623Y-81661750D01*
X88777378Y-81714554D01*
X88787322Y-81783713D01*
X88758297Y-81847269D01*
X88731625Y-81870381D01*
X88688873Y-81897856D01*
X88594623Y-82006626D01*
X88594622Y-82006628D01*
X88534834Y-82137543D01*
X88514353Y-82280000D01*
X88534834Y-82422456D01*
X88560886Y-82479500D01*
X88594623Y-82553373D01*
X88688872Y-82662143D01*
X88809947Y-82739953D01*
X88809950Y-82739954D01*
X88809949Y-82739954D01*
X88948036Y-82780499D01*
X88948038Y-82780500D01*
X88948039Y-82780500D01*
X89091962Y-82780500D01*
X89091962Y-82780499D01*
X89230053Y-82739953D01*
X89351128Y-82662143D01*
X89445377Y-82553373D01*
X89505165Y-82422457D01*
X89525647Y-82280000D01*
X89505165Y-82137543D01*
X89445377Y-82006627D01*
X89351128Y-81897857D01*
X89351125Y-81897855D01*
X89351123Y-81897853D01*
X89258376Y-81838248D01*
X89212621Y-81785444D01*
X89202677Y-81716286D01*
X89231702Y-81652730D01*
X89258375Y-81629618D01*
X89301128Y-81602143D01*
X89346310Y-81550000D01*
X92824353Y-81550000D01*
X92844834Y-81692456D01*
X92887301Y-81785444D01*
X92904623Y-81823373D01*
X92998872Y-81932143D01*
X93119947Y-82009953D01*
X93119950Y-82009954D01*
X93119949Y-82009954D01*
X93258036Y-82050499D01*
X93258038Y-82050500D01*
X93258039Y-82050500D01*
X93401962Y-82050500D01*
X93401962Y-82050499D01*
X93540053Y-82009953D01*
X93661128Y-81932143D01*
X93755377Y-81823373D01*
X93815165Y-81692457D01*
X93835647Y-81550000D01*
X93815165Y-81407543D01*
X93755377Y-81276627D01*
X93661128Y-81167857D01*
X93540053Y-81090047D01*
X93540051Y-81090046D01*
X93540049Y-81090045D01*
X93540050Y-81090045D01*
X93401963Y-81049500D01*
X93401961Y-81049500D01*
X93258039Y-81049500D01*
X93258036Y-81049500D01*
X93119949Y-81090045D01*
X92998873Y-81167856D01*
X92904623Y-81276626D01*
X92904622Y-81276628D01*
X92844834Y-81407543D01*
X92824353Y-81550000D01*
X89346310Y-81550000D01*
X89395377Y-81493373D01*
X89455165Y-81362457D01*
X89475647Y-81220000D01*
X89455165Y-81077543D01*
X89428886Y-81020000D01*
X99274353Y-81020000D01*
X99294834Y-81162456D01*
X99297301Y-81167857D01*
X99354623Y-81293373D01*
X99448872Y-81402143D01*
X99569947Y-81479953D01*
X99569950Y-81479954D01*
X99569949Y-81479954D01*
X99708036Y-81520499D01*
X99708038Y-81520500D01*
X99708039Y-81520500D01*
X99851962Y-81520500D01*
X99851962Y-81520499D01*
X99990053Y-81479953D01*
X100111128Y-81402143D01*
X100205377Y-81293373D01*
X100265165Y-81162457D01*
X100285647Y-81020000D01*
X100265165Y-80877543D01*
X100205377Y-80746627D01*
X100111128Y-80637857D01*
X99990053Y-80560047D01*
X99990051Y-80560046D01*
X99990049Y-80560045D01*
X99990050Y-80560045D01*
X99851963Y-80519500D01*
X99851961Y-80519500D01*
X99708039Y-80519500D01*
X99708036Y-80519500D01*
X99569949Y-80560045D01*
X99448873Y-80637856D01*
X99354623Y-80746626D01*
X99354622Y-80746628D01*
X99294834Y-80877543D01*
X99274353Y-81020000D01*
X89428886Y-81020000D01*
X89395376Y-80946624D01*
X89393839Y-80944233D01*
X89393038Y-80941505D01*
X89391693Y-80938560D01*
X89392116Y-80938366D01*
X89374155Y-80877194D01*
X89393840Y-80810155D01*
X89404443Y-80795992D01*
X89410936Y-80788498D01*
X89415377Y-80783373D01*
X89475165Y-80652457D01*
X89495647Y-80510000D01*
X89475165Y-80367543D01*
X89415377Y-80236627D01*
X89321128Y-80127857D01*
X89200053Y-80050047D01*
X89200051Y-80050046D01*
X89200049Y-80050045D01*
X89200050Y-80050045D01*
X89061963Y-80009500D01*
X89061961Y-80009500D01*
X88918039Y-80009500D01*
X88918036Y-80009500D01*
X88779949Y-80050045D01*
X88658873Y-80127856D01*
X88564623Y-80236626D01*
X88564622Y-80236628D01*
X88504834Y-80367543D01*
X88484353Y-80510000D01*
X88504834Y-80652456D01*
X88564622Y-80783372D01*
X88566162Y-80785768D01*
X88566963Y-80788498D01*
X88568307Y-80791440D01*
X88567883Y-80791633D01*
X88585844Y-80852808D01*
X88566157Y-80919847D01*
X88555560Y-80934003D01*
X88544625Y-80946622D01*
X88544622Y-80946628D01*
X88484834Y-81077543D01*
X88464353Y-81220000D01*
X88000000Y-81220000D01*
X88000000Y-77830000D01*
X88664353Y-77830000D01*
X88684834Y-77972456D01*
X88744622Y-78103371D01*
X88744623Y-78103373D01*
X88838872Y-78212143D01*
X88959947Y-78289953D01*
X88959950Y-78289954D01*
X88959949Y-78289954D01*
X89098036Y-78330499D01*
X89098038Y-78330500D01*
X89098039Y-78330500D01*
X89241962Y-78330500D01*
X89241962Y-78330499D01*
X89380053Y-78289953D01*
X89501128Y-78212143D01*
X89595377Y-78103373D01*
X89655165Y-77972457D01*
X89675647Y-77830000D01*
X89655165Y-77687543D01*
X89595377Y-77556627D01*
X89501128Y-77447857D01*
X89380053Y-77370047D01*
X89380051Y-77370046D01*
X89380049Y-77370045D01*
X89380050Y-77370045D01*
X89241963Y-77329500D01*
X89241961Y-77329500D01*
X89098039Y-77329500D01*
X89098036Y-77329500D01*
X88959949Y-77370045D01*
X88838873Y-77447856D01*
X88744623Y-77556626D01*
X88744622Y-77556628D01*
X88684834Y-77687543D01*
X88664353Y-77830000D01*
X88000000Y-77830000D01*
X88000000Y-74960000D01*
X88834353Y-74960000D01*
X88854834Y-75102456D01*
X88914622Y-75233371D01*
X88914623Y-75233373D01*
X89008872Y-75342143D01*
X89129947Y-75419953D01*
X89129950Y-75419954D01*
X89129949Y-75419954D01*
X89268036Y-75460499D01*
X89268038Y-75460500D01*
X89268039Y-75460500D01*
X89411962Y-75460500D01*
X89411962Y-75460499D01*
X89550053Y-75419953D01*
X89671128Y-75342143D01*
X89765377Y-75233373D01*
X89825165Y-75102457D01*
X89845647Y-74960000D01*
X89825165Y-74817543D01*
X89765377Y-74686627D01*
X89671128Y-74577857D01*
X89550053Y-74500047D01*
X89550051Y-74500046D01*
X89550049Y-74500045D01*
X89550050Y-74500045D01*
X89411963Y-74459500D01*
X89411961Y-74459500D01*
X89268039Y-74459500D01*
X89268036Y-74459500D01*
X89129949Y-74500045D01*
X89008873Y-74577856D01*
X88914623Y-74686626D01*
X88914622Y-74686628D01*
X88854834Y-74817543D01*
X88834353Y-74960000D01*
X88000000Y-74960000D01*
X88000000Y-74110000D01*
X92064353Y-74110000D01*
X92084834Y-74252456D01*
X92128260Y-74347543D01*
X92144623Y-74383373D01*
X92238872Y-74492143D01*
X92359947Y-74569953D01*
X92359950Y-74569954D01*
X92359949Y-74569954D01*
X92498036Y-74610499D01*
X92498038Y-74610500D01*
X92498039Y-74610500D01*
X92641962Y-74610500D01*
X92641962Y-74610499D01*
X92780053Y-74569953D01*
X92901128Y-74492143D01*
X92995377Y-74383373D01*
X93055165Y-74252457D01*
X93075647Y-74110000D01*
X93055165Y-73967543D01*
X92995377Y-73836627D01*
X92911650Y-73740000D01*
X102314353Y-73740000D01*
X102334834Y-73882456D01*
X102388744Y-74000500D01*
X102394623Y-74013373D01*
X102488872Y-74122143D01*
X102609947Y-74199953D01*
X102609950Y-74199954D01*
X102609949Y-74199954D01*
X102748036Y-74240499D01*
X102748038Y-74240500D01*
X102748039Y-74240500D01*
X102891962Y-74240500D01*
X102891962Y-74240499D01*
X103030053Y-74199953D01*
X103151128Y-74122143D01*
X103245377Y-74013373D01*
X103305165Y-73882457D01*
X103325647Y-73740000D01*
X103305165Y-73597543D01*
X103245377Y-73466627D01*
X103151128Y-73357857D01*
X103030053Y-73280047D01*
X103030051Y-73280046D01*
X103030049Y-73280045D01*
X103030050Y-73280045D01*
X102891963Y-73239500D01*
X102891961Y-73239500D01*
X102748039Y-73239500D01*
X102748036Y-73239500D01*
X102609949Y-73280045D01*
X102488873Y-73357856D01*
X102394623Y-73466626D01*
X102394622Y-73466628D01*
X102334834Y-73597543D01*
X102314353Y-73740000D01*
X92911650Y-73740000D01*
X92901128Y-73727857D01*
X92780053Y-73650047D01*
X92780051Y-73650046D01*
X92780049Y-73650045D01*
X92780050Y-73650045D01*
X92641963Y-73609500D01*
X92641961Y-73609500D01*
X92498039Y-73609500D01*
X92498036Y-73609500D01*
X92359949Y-73650045D01*
X92238873Y-73727856D01*
X92144623Y-73836626D01*
X92144622Y-73836628D01*
X92084834Y-73967543D01*
X92064353Y-74110000D01*
X88000000Y-74110000D01*
X88000000Y-73500000D01*
X90194353Y-73500000D01*
X90214834Y-73642456D01*
X90218300Y-73650045D01*
X90274623Y-73773373D01*
X90368872Y-73882143D01*
X90489947Y-73959953D01*
X90489950Y-73959954D01*
X90489949Y-73959954D01*
X90628036Y-74000499D01*
X90628038Y-74000500D01*
X90628039Y-74000500D01*
X90771962Y-74000500D01*
X90771962Y-74000499D01*
X90910053Y-73959953D01*
X91031128Y-73882143D01*
X91125377Y-73773373D01*
X91185165Y-73642457D01*
X91205647Y-73500000D01*
X91185165Y-73357543D01*
X91125377Y-73226627D01*
X91031128Y-73117857D01*
X90910053Y-73040047D01*
X90910051Y-73040046D01*
X90910049Y-73040045D01*
X90910050Y-73040045D01*
X90771963Y-72999500D01*
X90771961Y-72999500D01*
X90628039Y-72999500D01*
X90628036Y-72999500D01*
X90489949Y-73040045D01*
X90368873Y-73117856D01*
X90274623Y-73226626D01*
X90274622Y-73226628D01*
X90214834Y-73357543D01*
X90194353Y-73500000D01*
X88000000Y-73500000D01*
X88000000Y-71220000D01*
X91674722Y-71220000D01*
X91693762Y-71376818D01*
X91742195Y-71504523D01*
X91749780Y-71524523D01*
X91839517Y-71654530D01*
X91957760Y-71759283D01*
X91957762Y-71759284D01*
X92097634Y-71832696D01*
X92251014Y-71870500D01*
X92251015Y-71870500D01*
X92408985Y-71870500D01*
X92562365Y-71832696D01*
X92600471Y-71812696D01*
X92702240Y-71759283D01*
X92820483Y-71654530D01*
X92869853Y-71583003D01*
X92924134Y-71539015D01*
X92993582Y-71531355D01*
X93056147Y-71562458D01*
X93073952Y-71583005D01*
X93109517Y-71634530D01*
X93227760Y-71739283D01*
X93227762Y-71739284D01*
X93367634Y-71812696D01*
X93521014Y-71850500D01*
X93521015Y-71850500D01*
X93678985Y-71850500D01*
X93832365Y-71812696D01*
X93972240Y-71739283D01*
X94090483Y-71634530D01*
X94180220Y-71504523D01*
X94236237Y-71356818D01*
X94255278Y-71200000D01*
X94243022Y-71099057D01*
X94236237Y-71043181D01*
X94214992Y-70987164D01*
X94180220Y-70895477D01*
X94114267Y-70799927D01*
X94092384Y-70733572D01*
X94109850Y-70665921D01*
X94114258Y-70659060D01*
X94200220Y-70534523D01*
X94256237Y-70386818D01*
X94275278Y-70230000D01*
X94258666Y-70093182D01*
X94256237Y-70073181D01*
X94234992Y-70017164D01*
X94200220Y-69925477D01*
X94110814Y-69795950D01*
X94088932Y-69729598D01*
X94106397Y-69661946D01*
X94110802Y-69655092D01*
X94180220Y-69554523D01*
X94236237Y-69406818D01*
X94255278Y-69250000D01*
X94238666Y-69113182D01*
X94236237Y-69093181D01*
X94214992Y-69037164D01*
X94180220Y-68945477D01*
X94114267Y-68849927D01*
X94092384Y-68783572D01*
X94109850Y-68715921D01*
X94114258Y-68709060D01*
X94200220Y-68584523D01*
X94256237Y-68436818D01*
X94275278Y-68280000D01*
X94258666Y-68143182D01*
X94256237Y-68123181D01*
X94234992Y-68067164D01*
X94200220Y-67975477D01*
X94110483Y-67845470D01*
X94110481Y-67845467D01*
X94105509Y-67839855D01*
X94106694Y-67838804D01*
X94074238Y-67787062D01*
X94075004Y-67717196D01*
X94091535Y-67683004D01*
X94180220Y-67554523D01*
X94236237Y-67406818D01*
X94255278Y-67250000D01*
X94238666Y-67113182D01*
X94236237Y-67093181D01*
X94214992Y-67037164D01*
X94180220Y-66945477D01*
X94095825Y-66823209D01*
X94073942Y-66756854D01*
X94091408Y-66689203D01*
X94106493Y-66671017D01*
X94105509Y-66670145D01*
X94110481Y-66664532D01*
X94110481Y-66664531D01*
X94110483Y-66664530D01*
X94200220Y-66534523D01*
X94256237Y-66386818D01*
X94275278Y-66230000D01*
X94258666Y-66093182D01*
X94256237Y-66073181D01*
X94234932Y-66017006D01*
X94200220Y-65925477D01*
X94110483Y-65795470D01*
X93992240Y-65690717D01*
X93992238Y-65690716D01*
X93992237Y-65690715D01*
X93852365Y-65617303D01*
X93698986Y-65579500D01*
X93698985Y-65579500D01*
X93541015Y-65579500D01*
X93541014Y-65579500D01*
X93387634Y-65617303D01*
X93247762Y-65690715D01*
X93225184Y-65710717D01*
X93129517Y-65795470D01*
X93087157Y-65856837D01*
X93080147Y-65866995D01*
X93025864Y-65910985D01*
X92956415Y-65918644D01*
X92893850Y-65887540D01*
X92876047Y-65866994D01*
X92840483Y-65815470D01*
X92722240Y-65710717D01*
X92722238Y-65710716D01*
X92722237Y-65710715D01*
X92582365Y-65637303D01*
X92428986Y-65599500D01*
X92428985Y-65599500D01*
X92271015Y-65599500D01*
X92271014Y-65599500D01*
X92117634Y-65637303D01*
X91977762Y-65710715D01*
X91977760Y-65710717D01*
X91882092Y-65795471D01*
X91859516Y-65815471D01*
X91769781Y-65945475D01*
X91769780Y-65945476D01*
X91713762Y-66093181D01*
X91694722Y-66249999D01*
X91694722Y-66250000D01*
X91713762Y-66406818D01*
X91769780Y-66554523D01*
X91769781Y-66554524D01*
X91854174Y-66676790D01*
X91876057Y-66743145D01*
X91858591Y-66810797D01*
X91843526Y-66829001D01*
X91844491Y-66829856D01*
X91839515Y-66835472D01*
X91749781Y-66965475D01*
X91749780Y-66965476D01*
X91693762Y-67113181D01*
X91674722Y-67269999D01*
X91674722Y-67270000D01*
X91693762Y-67426818D01*
X91749780Y-67574523D01*
X91749781Y-67574524D01*
X91839518Y-67704532D01*
X91844491Y-67710145D01*
X91843305Y-67711195D01*
X91875761Y-67762936D01*
X91874995Y-67832801D01*
X91858458Y-67867004D01*
X91769781Y-67995475D01*
X91769780Y-67995476D01*
X91713762Y-68143181D01*
X91694722Y-68299999D01*
X91694722Y-68300000D01*
X91713762Y-68456818D01*
X91769780Y-68604523D01*
X91769781Y-68604524D01*
X91835732Y-68700072D01*
X91857615Y-68766427D01*
X91840149Y-68834079D01*
X91835732Y-68840951D01*
X91749783Y-68965470D01*
X91749780Y-68965476D01*
X91693762Y-69113181D01*
X91674722Y-69269999D01*
X91674722Y-69270000D01*
X91693762Y-69426818D01*
X91735264Y-69536248D01*
X91749780Y-69574523D01*
X91769634Y-69603287D01*
X91839184Y-69704047D01*
X91861067Y-69770401D01*
X91843602Y-69838053D01*
X91839184Y-69844927D01*
X91769781Y-69945475D01*
X91769780Y-69945476D01*
X91713762Y-70093181D01*
X91694722Y-70249999D01*
X91694722Y-70250000D01*
X91713762Y-70406818D01*
X91769780Y-70554523D01*
X91769781Y-70554524D01*
X91835732Y-70650072D01*
X91857615Y-70716427D01*
X91840149Y-70784079D01*
X91835732Y-70790951D01*
X91749783Y-70915470D01*
X91749780Y-70915476D01*
X91693762Y-71063181D01*
X91674722Y-71219999D01*
X91674722Y-71220000D01*
X88000000Y-71220000D01*
X88000000Y-69603287D01*
X88019685Y-69536248D01*
X88036316Y-69515608D01*
X89744378Y-67807547D01*
X89744382Y-67807545D01*
X89883739Y-67668188D01*
X89993232Y-67504320D01*
X90068651Y-67322241D01*
X90068651Y-67322238D01*
X90068653Y-67322234D01*
X90073133Y-67299705D01*
X90079043Y-67270000D01*
X90088393Y-67222994D01*
X90107100Y-67128947D01*
X90107100Y-58999182D01*
X90126785Y-58932143D01*
X90143419Y-58911501D01*
X94018601Y-55036319D01*
X94079924Y-55002834D01*
X94106282Y-55000000D01*
X99243718Y-55000000D01*
X99310757Y-55019685D01*
G37*
%TD.AperFunction*%
%TD*%
M02*
