%TF.GenerationSoftware,KiCad,Pcbnew,8.0.1*%
%TF.CreationDate,2024-11-17T20:20:19-05:00*%
%TF.ProjectId,bitaxeGamma,62697461-7865-4476-916d-6d612e6b6963,rev?*%
%TF.SameCoordinates,Original*%
%TF.FileFunction,Copper,L3,Inr*%
%TF.FilePolarity,Positive*%
%FSLAX46Y46*%
G04 Gerber Fmt 4.6, Leading zero omitted, Abs format (unit mm)*
G04 Created by KiCad (PCBNEW 8.0.1) date 2024-11-17 20:20:19*
%MOMM*%
%LPD*%
G01*
G04 APERTURE LIST*
%TA.AperFunction,ComponentPad*%
%ADD10C,0.800000*%
%TD*%
%TA.AperFunction,ComponentPad*%
%ADD11C,6.000000*%
%TD*%
%TA.AperFunction,ComponentPad*%
%ADD12R,1.700000X1.700000*%
%TD*%
%TA.AperFunction,ComponentPad*%
%ADD13O,1.700000X1.700000*%
%TD*%
%TA.AperFunction,ComponentPad*%
%ADD14C,0.400000*%
%TD*%
%TA.AperFunction,ComponentPad*%
%ADD15C,1.574800*%
%TD*%
%TA.AperFunction,ComponentPad*%
%ADD16C,1.700000*%
%TD*%
%TA.AperFunction,ComponentPad*%
%ADD17O,1.800000X1.000000*%
%TD*%
%TA.AperFunction,ComponentPad*%
%ADD18O,2.100000X1.000000*%
%TD*%
%TA.AperFunction,ViaPad*%
%ADD19C,0.800000*%
%TD*%
%TA.AperFunction,ViaPad*%
%ADD20C,0.500000*%
%TD*%
%TA.AperFunction,ViaPad*%
%ADD21C,1.000000*%
%TD*%
%TA.AperFunction,ViaPad*%
%ADD22C,1.200000*%
%TD*%
%TA.AperFunction,Conductor*%
%ADD23C,0.508000*%
%TD*%
%TA.AperFunction,Conductor*%
%ADD24C,1.500000*%
%TD*%
G04 APERTURE END LIST*
D10*
%TO.N,GND*%
%TO.C,H1*%
X127985010Y-51120990D03*
X128644020Y-49530000D03*
X128644020Y-52711980D03*
X130235010Y-48870990D03*
D11*
X130235010Y-51120990D03*
D10*
X130235010Y-53370990D03*
X131826000Y-49530000D03*
X131826000Y-52711980D03*
X132485010Y-51120990D03*
%TD*%
%TO.N,GND*%
%TO.C,H3*%
X128052000Y-143728000D03*
X128711010Y-142137010D03*
X128711010Y-145318990D03*
X130302000Y-141478000D03*
D11*
X130302000Y-143728000D03*
D10*
X130302000Y-145978000D03*
X131892990Y-142137010D03*
X131892990Y-145318990D03*
X132552000Y-143728000D03*
%TD*%
D12*
%TO.N,/5V*%
%TO.C,J4*%
X99171505Y-51054000D03*
D13*
%TO.N,GND*%
X101711505Y-51054000D03*
%TO.N,Net-(J4-Pin_3)*%
X104251505Y-51054000D03*
%TO.N,Net-(J4-Pin_4)*%
X106791505Y-51054000D03*
%TO.N,Net-(J4-Pin_5)*%
X109331505Y-51054000D03*
%TO.N,Net-(J4-Pin_6)*%
X111871505Y-51054000D03*
%TD*%
D10*
%TO.N,GND*%
%TO.C,H4*%
X78455010Y-143830990D03*
X79114020Y-142240000D03*
X79114020Y-145421980D03*
X80705010Y-141580990D03*
D11*
X80705010Y-143830990D03*
D10*
X80705010Y-146080990D03*
X82296000Y-142240000D03*
X82296000Y-145421980D03*
X82955010Y-143830990D03*
%TD*%
%TO.N,GND*%
%TO.C,H2*%
X78558000Y-51054000D03*
X79217010Y-49463010D03*
X79217010Y-52644990D03*
X80808000Y-48804000D03*
D11*
X80808000Y-51054000D03*
D10*
X80808000Y-53304000D03*
X82398990Y-49463010D03*
X82398990Y-52644990D03*
X83058000Y-51054000D03*
%TD*%
D14*
%TO.N,GND*%
%TO.C,U2*%
X92180000Y-78870000D03*
X93580000Y-78870000D03*
X94980000Y-78870000D03*
X91180000Y-77590000D03*
X92180000Y-77590000D03*
X93580000Y-77590000D03*
X94980000Y-77590000D03*
X95980000Y-77590000D03*
X92180000Y-76310000D03*
X93580000Y-76310000D03*
X94980000Y-76310000D03*
%TD*%
D15*
%TO.N,GND*%
%TO.C,J6*%
X89621000Y-143622000D03*
%TO.N,/5V*%
X92161000Y-143622000D03*
%TO.N,/Fan/FAN_TACH*%
X94701000Y-143622000D03*
%TO.N,/Fan/FAN_PWM*%
X97241000Y-143622000D03*
%TD*%
D16*
%TO.N,GND*%
%TO.C,J3*%
X87005000Y-50292000D03*
D13*
%TO.N,/3V3*%
X87405000Y-52832000D03*
%TO.N,/SCL*%
X87005000Y-55372000D03*
%TO.N,/SDA*%
X87405000Y-57912000D03*
%TD*%
D17*
%TO.N,GND*%
%TO.C,J5*%
X79790000Y-87580000D03*
D18*
X83970000Y-87580000D03*
D17*
X79790000Y-78940000D03*
D18*
X83970000Y-78940000D03*
%TD*%
D14*
%TO.N,GND*%
%TO.C,U8*%
X107810562Y-117846000D03*
X107810562Y-115946000D03*
%TO.N,/VDD*%
X107810562Y-113746000D03*
%TO.N,GND*%
X107710562Y-119746000D03*
X105610562Y-117846000D03*
X105610562Y-115946000D03*
%TO.N,/VDD*%
X105610562Y-113746000D03*
%TO.N,GND*%
X105510562Y-119746000D03*
X103410562Y-117846000D03*
X103410562Y-115946000D03*
%TO.N,/VDD*%
X103410562Y-113746000D03*
%TO.N,GND*%
X103310562Y-119746000D03*
%TD*%
D19*
%TO.N,/3V3*%
X110900000Y-55200000D03*
%TO.N,/VDD*%
X110400000Y-95600000D03*
X101600000Y-95600000D03*
X106650000Y-95600000D03*
X105400000Y-95600000D03*
X104150000Y-95600000D03*
X107900000Y-95600000D03*
X102900000Y-95600000D03*
X100300000Y-95600000D03*
X109150000Y-95580000D03*
X110400000Y-96700000D03*
X101600000Y-96700000D03*
X106650000Y-96700000D03*
X105400000Y-96700000D03*
X104150000Y-96700000D03*
X107900000Y-96700000D03*
X102900000Y-96700000D03*
X100300000Y-96700000D03*
X109150000Y-96680000D03*
D20*
%TO.N,/BM1370/RST_N*%
X116600000Y-99000000D03*
%TO.N,/BM1370/CI*%
X116600000Y-99700000D03*
%TO.N,/BM1370/RO*%
X116600000Y-100400000D03*
D19*
%TO.N,GND*%
X112180000Y-119260000D03*
D20*
X106700000Y-121700000D03*
X106000000Y-122500000D03*
D19*
X113580000Y-132650000D03*
X97400000Y-114200000D03*
D20*
X105300000Y-123300000D03*
D19*
X100050000Y-61700000D03*
X112180000Y-120800000D03*
X101350000Y-62800000D03*
X97450000Y-60200000D03*
X104640000Y-130470000D03*
X105540000Y-132550000D03*
X100050000Y-65750000D03*
D21*
X120500000Y-75500000D03*
D19*
X125600000Y-65940000D03*
X116770000Y-124080000D03*
D20*
X95080000Y-91220000D03*
X103200000Y-122500000D03*
D19*
X123750000Y-117530000D03*
X101400000Y-60700000D03*
X100050000Y-63800000D03*
X100100000Y-60700000D03*
D20*
X103900000Y-121700000D03*
X104600000Y-121700000D03*
D19*
X98450000Y-78230000D03*
X96070000Y-137650000D03*
X116050000Y-128010000D03*
D20*
X104600000Y-122500000D03*
D19*
X120300000Y-53900000D03*
X128130000Y-56090000D03*
X112980000Y-114270000D03*
D21*
X81444307Y-58757907D03*
X104600000Y-143100000D03*
D19*
X99550000Y-67970000D03*
X101350000Y-63800000D03*
X91790000Y-89910000D03*
X117300000Y-101100000D03*
X121580000Y-112400000D03*
X101350000Y-61700000D03*
X98750000Y-61100000D03*
X122640000Y-102460000D03*
X96070000Y-141200000D03*
D20*
X107400000Y-121700000D03*
D19*
X113180000Y-130220000D03*
D21*
X120500000Y-72700000D03*
D19*
X119440000Y-103510000D03*
X99370000Y-119240000D03*
X97450000Y-61100000D03*
D20*
X107400000Y-123300000D03*
X108100000Y-122500000D03*
D19*
X123710000Y-120230000D03*
X100050000Y-64750000D03*
D20*
X105300000Y-122500000D03*
D19*
X100490000Y-76620000D03*
D20*
X105300000Y-121700000D03*
X103900000Y-122500000D03*
D19*
X100050000Y-62800000D03*
X98460000Y-76630000D03*
X99490000Y-70390000D03*
X98440000Y-121490000D03*
X92680000Y-133370000D03*
X128690000Y-107620000D03*
D20*
X104600000Y-123300000D03*
D19*
X112512000Y-61250000D03*
D20*
X103200000Y-123300000D03*
X106000000Y-123300000D03*
D19*
X104560000Y-76600000D03*
D20*
X103900000Y-123300000D03*
D21*
X120500000Y-74100000D03*
X128020000Y-84450000D03*
D20*
X108100000Y-123300000D03*
D19*
X101350000Y-64750000D03*
D20*
X103200000Y-121700000D03*
X106700000Y-123300000D03*
D19*
X115700000Y-97100000D03*
X98750000Y-60200000D03*
X102570000Y-76600000D03*
D20*
X106700000Y-122500000D03*
X107400000Y-122500000D03*
X108100000Y-121700000D03*
D19*
X101350000Y-65750000D03*
D20*
X106000000Y-121700000D03*
D19*
X132297000Y-108743000D03*
X98460000Y-74920000D03*
%TO.N,/VDD*%
X102900000Y-101300000D03*
X104150000Y-100100000D03*
X101600000Y-99000000D03*
D20*
X120850000Y-69510000D03*
D19*
X105400000Y-99000000D03*
X106650000Y-99000000D03*
X102900000Y-97900000D03*
X107900000Y-101300000D03*
X100300000Y-97900000D03*
X100300000Y-99000000D03*
X84500000Y-76160000D03*
X107900000Y-97900000D03*
X109150000Y-97880000D03*
X102900000Y-99000000D03*
X100300000Y-101300000D03*
X106650000Y-100100000D03*
X104150000Y-99000000D03*
X109150000Y-101280000D03*
X107900000Y-99000000D03*
X109150000Y-102380000D03*
X104150000Y-101300000D03*
X104150000Y-97900000D03*
X102900000Y-100100000D03*
X106650000Y-97900000D03*
X100300000Y-102400000D03*
D20*
X102100000Y-81000000D03*
D19*
X107900000Y-100100000D03*
X106650000Y-101300000D03*
X100300000Y-100100000D03*
X109150000Y-98980000D03*
X101600000Y-100100000D03*
X105400000Y-97900000D03*
X110400000Y-99000000D03*
X105400000Y-101300000D03*
X110400000Y-101300000D03*
X101600000Y-101300000D03*
X101600000Y-97900000D03*
X109150000Y-100080000D03*
X110400000Y-102400000D03*
X101600000Y-102400000D03*
X102900000Y-102400000D03*
X107900000Y-102400000D03*
X110400000Y-97900000D03*
X110400000Y-100100000D03*
X105400000Y-100100000D03*
D20*
%TO.N,/ESP32/EN*%
X122101300Y-70905000D03*
X127228000Y-104448000D03*
D19*
%TO.N,/5V*%
X93620000Y-68280000D03*
X92350000Y-66250000D03*
X93600000Y-69250000D03*
X93600000Y-71200000D03*
X92350000Y-68300000D03*
D22*
X109280000Y-61185155D03*
D19*
X108290000Y-131179000D03*
X93600000Y-67250000D03*
X92350000Y-70250000D03*
X99710000Y-131420000D03*
D21*
X80680000Y-70950000D03*
D19*
X93620000Y-70230000D03*
X92330000Y-71220000D03*
X92330000Y-69270000D03*
X98770000Y-138720000D03*
X93620000Y-66230000D03*
X92330000Y-67270000D03*
D20*
X104700000Y-139400000D03*
D19*
%TO.N,/3V3*%
X129830000Y-56090000D03*
D21*
X126000000Y-84500000D03*
D19*
X123394000Y-86260000D03*
X112160000Y-74520000D03*
X95550000Y-135970000D03*
X111900000Y-55200000D03*
X122930000Y-99700000D03*
X120100000Y-57300000D03*
X127250000Y-107630000D03*
D21*
X115370000Y-61560000D03*
D19*
X95560000Y-126330000D03*
D20*
%TO.N,/TX*%
X120800000Y-79000000D03*
%TO.N,/RX*%
X120800000Y-78200000D03*
%TO.N,/RST*%
X121476817Y-70170000D03*
%TO.N,/SCL*%
X94317599Y-134229617D03*
X88970000Y-81220000D03*
%TO.N,/Fan/FAN_PWM*%
X90900000Y-132800000D03*
%TO.N,Net-(U2-BP1V5)*%
X91690000Y-82980000D03*
X83660000Y-76570000D03*
%TO.N,/ESP32/P_TX*%
X123105000Y-61285000D03*
%TO.N,/ESP32/P_RX*%
X123040000Y-59730000D03*
%TO.N,/ESP32/IO0*%
X121244400Y-66945600D03*
X124830000Y-55100000D03*
X126520000Y-102640000D03*
%TO.N,Net-(U2-VDD5)*%
X92570000Y-74110000D03*
X102820000Y-73740000D03*
%TO.N,/Power/PGOOD*%
X89020000Y-82280000D03*
X109410000Y-74490000D03*
%TO.N,/SDA*%
X82130000Y-73910000D03*
X94340000Y-133580000D03*
X88990000Y-80510000D03*
X82390000Y-75900000D03*
D19*
%TO.N,Net-(U8-VDDIO_12_1)*%
X100770000Y-123700000D03*
%TO.N,Net-(U8-VDDIO_08_1)*%
X99180000Y-123710000D03*
D20*
%TO.N,Net-(U8-ROSC_SEL)*%
X119430000Y-116250000D03*
%TO.N,Net-(U8-LITE_PAD)*%
X119420000Y-118020000D03*
%TO.N,Net-(U8-INV_CLKO)*%
X124540000Y-121820000D03*
%TO.N,/Fan/TEMP_N*%
X92180000Y-119960000D03*
%TO.N,/Fan/TEMP_P*%
X92940000Y-119930000D03*
%TO.N,/Power/AGND*%
X89170000Y-77830000D03*
X90700000Y-73500000D03*
X89340000Y-74960000D03*
%TO.N,/Power/PMB_ALRT*%
X93330000Y-81550000D03*
D19*
%TO.N,/BM1370/VDD3_0*%
X112079274Y-113909400D03*
%TO.N,/BM1370/1V2*%
X110950000Y-124990000D03*
X124600000Y-101830000D03*
X118828206Y-101945618D03*
%TO.N,/BM1370/0V8*%
X110970000Y-123700000D03*
%TO.N,/BM1370/VDD2_0*%
X111352659Y-113375623D03*
%TO.N,/BM1370/VDD1_0*%
X110451529Y-112905400D03*
%TO.N,/BM1370/VDD1_1*%
X100595000Y-112805000D03*
%TO.N,/BM1370/VDD2_1*%
X99745000Y-113355000D03*
%TO.N,/BM1370/VDD3_1*%
X98700000Y-113600000D03*
D20*
%TO.N,/BM1370/BI*%
X119420000Y-114790000D03*
%TO.N,/BM1370/RO*%
X118320000Y-108370000D03*
%TO.N,/BM1370/CLKI*%
X118740000Y-113660000D03*
%TO.N,/BM1370/NRSTO*%
X92480000Y-112210000D03*
%TO.N,/BM1370/CO*%
X92480000Y-113611428D03*
%TO.N,/BM1370/RI*%
X92480000Y-115012856D03*
%TO.N,/BM1370/CLKO*%
X92480000Y-116414284D03*
%TO.N,/BM1370/BO*%
X92480000Y-117815712D03*
%TO.N,/BM1370/PIN_MODE*%
X91400000Y-120430000D03*
%TO.N,/Fan/FAN_TACH*%
X93570000Y-136700000D03*
%TD*%
D23*
%TO.N,/5V*%
X104700000Y-139400000D02*
X98800000Y-139400000D01*
D24*
X92207000Y-143576000D02*
X92161000Y-143622000D01*
D23*
X98800000Y-139400000D02*
X93060000Y-139400000D01*
D24*
X92161000Y-143622000D02*
X92161000Y-138501000D01*
D23*
X98800000Y-138750000D02*
X98770000Y-138720000D01*
D24*
X86000000Y-92684466D02*
X88465000Y-95149466D01*
X89106600Y-67030406D02*
X86000000Y-70137006D01*
D23*
X93060000Y-139400000D02*
X92161000Y-138501000D01*
D24*
X89106600Y-58533400D02*
X89106600Y-67030406D01*
D23*
X108290000Y-133378216D02*
X108290000Y-131179000D01*
D24*
X96586000Y-51054000D02*
X89106600Y-58533400D01*
D23*
X106784599Y-134883617D02*
X108290000Y-133378216D01*
D24*
X106895155Y-61185155D02*
X99171505Y-53461505D01*
X109280000Y-61185155D02*
X106895155Y-61185155D01*
D23*
X88543617Y-134883617D02*
X106784599Y-134883617D01*
X88465000Y-134805000D02*
X88543617Y-134883617D01*
D24*
X99171505Y-53461505D02*
X99171505Y-51054000D01*
X99171505Y-51054000D02*
X96586000Y-51054000D01*
X92161000Y-138501000D02*
X88465000Y-134805000D01*
D23*
X98800000Y-139400000D02*
X98800000Y-138750000D01*
D24*
X88465000Y-95149466D02*
X88465000Y-134805000D01*
D23*
X99710000Y-131420000D02*
X99710000Y-134883617D01*
D24*
X86000000Y-70137006D02*
X86000000Y-92684466D01*
%TD*%
%TA.AperFunction,Conductor*%
%TO.N,GND*%
G36*
X123508059Y-104001061D02*
G01*
X123613223Y-104014906D01*
X123644491Y-104023284D01*
X123734918Y-104060740D01*
X123762952Y-104076925D01*
X123840602Y-104136509D01*
X123863491Y-104159398D01*
X123923074Y-104237048D01*
X123939259Y-104265081D01*
X123976715Y-104355508D01*
X123985093Y-104386775D01*
X123998939Y-104491939D01*
X124000000Y-104508125D01*
X124000000Y-129594669D01*
X123998947Y-129610798D01*
X123985198Y-129715604D01*
X123976878Y-129746769D01*
X123939678Y-129836931D01*
X123923601Y-129864896D01*
X123864406Y-129942411D01*
X123841662Y-129965282D01*
X123764474Y-130024910D01*
X123736597Y-130041142D01*
X123646645Y-130078841D01*
X123615526Y-130087334D01*
X123510801Y-130101663D01*
X123494680Y-130102806D01*
X102341636Y-130220323D01*
X101802778Y-130223317D01*
X89590188Y-130291164D01*
X89523041Y-130271853D01*
X89476994Y-130219304D01*
X89465500Y-130167167D01*
X89465500Y-126330000D01*
X94904722Y-126330000D01*
X94923762Y-126486818D01*
X94979780Y-126634523D01*
X95069517Y-126764530D01*
X95187760Y-126869283D01*
X95187762Y-126869284D01*
X95327634Y-126942696D01*
X95481014Y-126980500D01*
X95481015Y-126980500D01*
X95638985Y-126980500D01*
X95792365Y-126942696D01*
X95932240Y-126869283D01*
X96050483Y-126764530D01*
X96140220Y-126634523D01*
X96196237Y-126486818D01*
X96215278Y-126330000D01*
X96196237Y-126173182D01*
X96140220Y-126025477D01*
X96050483Y-125895470D01*
X95932240Y-125790717D01*
X95932238Y-125790716D01*
X95932237Y-125790715D01*
X95792365Y-125717303D01*
X95638986Y-125679500D01*
X95638985Y-125679500D01*
X95481015Y-125679500D01*
X95481014Y-125679500D01*
X95327634Y-125717303D01*
X95187762Y-125790715D01*
X95069516Y-125895471D01*
X94979781Y-126025475D01*
X94979780Y-126025476D01*
X94923762Y-126173181D01*
X94904722Y-126329999D01*
X94904722Y-126330000D01*
X89465500Y-126330000D01*
X89465500Y-124990000D01*
X110294722Y-124990000D01*
X110313762Y-125146818D01*
X110369780Y-125294523D01*
X110459517Y-125424530D01*
X110577760Y-125529283D01*
X110577762Y-125529284D01*
X110717634Y-125602696D01*
X110871014Y-125640500D01*
X110871015Y-125640500D01*
X111028985Y-125640500D01*
X111182365Y-125602696D01*
X111322240Y-125529283D01*
X111440483Y-125424530D01*
X111530220Y-125294523D01*
X111586237Y-125146818D01*
X111605278Y-124990000D01*
X111586237Y-124833182D01*
X111530220Y-124685477D01*
X111440483Y-124555470D01*
X111322240Y-124450717D01*
X111322238Y-124450716D01*
X111316626Y-124445744D01*
X111318243Y-124443918D01*
X111281685Y-124398793D01*
X111274037Y-124329343D01*
X111305149Y-124266783D01*
X111338499Y-124241246D01*
X111342240Y-124239283D01*
X111460483Y-124134530D01*
X111550220Y-124004523D01*
X111606237Y-123856818D01*
X111625278Y-123700000D01*
X111606237Y-123543182D01*
X111550220Y-123395477D01*
X111460483Y-123265470D01*
X111342240Y-123160717D01*
X111342238Y-123160716D01*
X111342237Y-123160715D01*
X111202365Y-123087303D01*
X111048986Y-123049500D01*
X111048985Y-123049500D01*
X110891015Y-123049500D01*
X110891014Y-123049500D01*
X110737634Y-123087303D01*
X110597762Y-123160715D01*
X110479516Y-123265471D01*
X110389781Y-123395475D01*
X110389780Y-123395476D01*
X110333762Y-123543181D01*
X110314722Y-123699999D01*
X110314722Y-123700000D01*
X110333762Y-123856818D01*
X110337555Y-123866818D01*
X110389780Y-124004523D01*
X110479517Y-124134530D01*
X110597760Y-124239283D01*
X110597761Y-124239283D01*
X110603374Y-124244256D01*
X110601755Y-124246082D01*
X110638310Y-124291198D01*
X110645964Y-124360647D01*
X110614856Y-124423209D01*
X110581506Y-124448750D01*
X110577763Y-124450714D01*
X110459516Y-124555471D01*
X110369781Y-124685475D01*
X110369780Y-124685476D01*
X110313762Y-124833181D01*
X110294722Y-124989999D01*
X110294722Y-124990000D01*
X89465500Y-124990000D01*
X89465500Y-123710000D01*
X98524722Y-123710000D01*
X98543762Y-123866818D01*
X98595988Y-124004524D01*
X98599780Y-124014523D01*
X98689517Y-124144530D01*
X98807760Y-124249283D01*
X98807762Y-124249284D01*
X98947634Y-124322696D01*
X99101014Y-124360500D01*
X99101015Y-124360500D01*
X99258985Y-124360500D01*
X99412365Y-124322696D01*
X99431418Y-124312696D01*
X99552240Y-124249283D01*
X99670483Y-124144530D01*
X99760220Y-124014523D01*
X99816237Y-123866818D01*
X99835278Y-123710000D01*
X99834064Y-123700000D01*
X100114722Y-123700000D01*
X100133762Y-123856818D01*
X100137555Y-123866818D01*
X100189780Y-124004523D01*
X100279517Y-124134530D01*
X100397760Y-124239283D01*
X100397762Y-124239284D01*
X100537634Y-124312696D01*
X100691014Y-124350500D01*
X100691015Y-124350500D01*
X100848985Y-124350500D01*
X101002365Y-124312696D01*
X101043325Y-124291198D01*
X101142240Y-124239283D01*
X101260483Y-124134530D01*
X101350220Y-124004523D01*
X101406237Y-123856818D01*
X101425278Y-123700000D01*
X101406237Y-123543182D01*
X101350220Y-123395477D01*
X101260483Y-123265470D01*
X101142240Y-123160717D01*
X101142238Y-123160716D01*
X101142237Y-123160715D01*
X101002365Y-123087303D01*
X100848986Y-123049500D01*
X100848985Y-123049500D01*
X100691015Y-123049500D01*
X100691014Y-123049500D01*
X100537634Y-123087303D01*
X100397762Y-123160715D01*
X100279516Y-123265471D01*
X100189781Y-123395475D01*
X100189780Y-123395476D01*
X100133762Y-123543181D01*
X100114722Y-123699999D01*
X100114722Y-123700000D01*
X99834064Y-123700000D01*
X99816237Y-123553182D01*
X99760220Y-123405477D01*
X99670483Y-123275470D01*
X99552240Y-123170717D01*
X99552238Y-123170716D01*
X99552237Y-123170715D01*
X99412365Y-123097303D01*
X99258986Y-123059500D01*
X99258985Y-123059500D01*
X99101015Y-123059500D01*
X99101014Y-123059500D01*
X98947634Y-123097303D01*
X98807762Y-123170715D01*
X98689516Y-123275471D01*
X98599781Y-123405475D01*
X98599780Y-123405476D01*
X98543762Y-123553181D01*
X98524722Y-123709999D01*
X98524722Y-123710000D01*
X89465500Y-123710000D01*
X89465500Y-120430000D01*
X90894353Y-120430000D01*
X90914834Y-120572456D01*
X90974622Y-120703371D01*
X90974623Y-120703373D01*
X91068872Y-120812143D01*
X91189947Y-120889953D01*
X91189950Y-120889954D01*
X91189949Y-120889954D01*
X91328036Y-120930499D01*
X91328038Y-120930500D01*
X91328039Y-120930500D01*
X91471962Y-120930500D01*
X91471962Y-120930499D01*
X91610053Y-120889953D01*
X91731128Y-120812143D01*
X91825377Y-120703373D01*
X91885165Y-120572457D01*
X91889272Y-120543892D01*
X91918297Y-120480336D01*
X91977074Y-120442561D01*
X92046944Y-120442561D01*
X92108039Y-120460500D01*
X92251962Y-120460500D01*
X92251962Y-120460499D01*
X92390053Y-120419953D01*
X92511128Y-120342143D01*
X92511128Y-120342142D01*
X92516300Y-120338819D01*
X92583340Y-120319134D01*
X92650379Y-120338818D01*
X92729947Y-120389953D01*
X92729950Y-120389954D01*
X92729949Y-120389954D01*
X92832119Y-120419953D01*
X92866336Y-120430000D01*
X92868036Y-120430499D01*
X92868038Y-120430500D01*
X92868039Y-120430500D01*
X93011962Y-120430500D01*
X93011962Y-120430499D01*
X93150053Y-120389953D01*
X93271128Y-120312143D01*
X93365377Y-120203373D01*
X93425165Y-120072457D01*
X93445647Y-119930000D01*
X93425165Y-119787543D01*
X93365377Y-119656627D01*
X93271128Y-119547857D01*
X93150053Y-119470047D01*
X93150051Y-119470046D01*
X93150049Y-119470045D01*
X93150050Y-119470045D01*
X93011963Y-119429500D01*
X93011961Y-119429500D01*
X92868039Y-119429500D01*
X92868036Y-119429500D01*
X92729949Y-119470045D01*
X92603698Y-119551181D01*
X92536658Y-119570865D01*
X92469620Y-119551181D01*
X92390050Y-119500045D01*
X92251963Y-119459500D01*
X92251961Y-119459500D01*
X92108039Y-119459500D01*
X92108036Y-119459500D01*
X91969949Y-119500045D01*
X91848873Y-119577856D01*
X91754623Y-119686626D01*
X91754622Y-119686628D01*
X91694834Y-119817544D01*
X91694833Y-119817547D01*
X91690726Y-119846111D01*
X91661700Y-119909666D01*
X91602921Y-119947439D01*
X91533055Y-119947438D01*
X91471963Y-119929500D01*
X91471961Y-119929500D01*
X91328039Y-119929500D01*
X91328036Y-119929500D01*
X91189949Y-119970045D01*
X91068873Y-120047856D01*
X90974623Y-120156626D01*
X90974622Y-120156628D01*
X90914834Y-120287543D01*
X90894353Y-120430000D01*
X89465500Y-120430000D01*
X89465500Y-117815712D01*
X91974353Y-117815712D01*
X91994834Y-117958168D01*
X92054622Y-118089083D01*
X92054623Y-118089085D01*
X92148872Y-118197855D01*
X92269947Y-118275665D01*
X92269950Y-118275666D01*
X92269949Y-118275666D01*
X92408036Y-118316211D01*
X92408038Y-118316212D01*
X92408039Y-118316212D01*
X92551962Y-118316212D01*
X92551962Y-118316211D01*
X92690053Y-118275665D01*
X92811128Y-118197855D01*
X92905377Y-118089085D01*
X92936927Y-118020000D01*
X118914353Y-118020000D01*
X118934834Y-118162456D01*
X118986536Y-118275665D01*
X118994623Y-118293373D01*
X119088872Y-118402143D01*
X119209947Y-118479953D01*
X119209950Y-118479954D01*
X119209949Y-118479954D01*
X119348036Y-118520499D01*
X119348038Y-118520500D01*
X119348039Y-118520500D01*
X119491962Y-118520500D01*
X119491962Y-118520499D01*
X119630053Y-118479953D01*
X119751128Y-118402143D01*
X119845377Y-118293373D01*
X119905165Y-118162457D01*
X119925647Y-118020000D01*
X119905165Y-117877543D01*
X119845377Y-117746627D01*
X119751128Y-117637857D01*
X119630053Y-117560047D01*
X119630051Y-117560046D01*
X119630049Y-117560045D01*
X119630050Y-117560045D01*
X119491963Y-117519500D01*
X119491961Y-117519500D01*
X119348039Y-117519500D01*
X119348036Y-117519500D01*
X119209949Y-117560045D01*
X119088873Y-117637856D01*
X118994623Y-117746626D01*
X118994622Y-117746628D01*
X118934834Y-117877543D01*
X118914353Y-118020000D01*
X92936927Y-118020000D01*
X92965165Y-117958169D01*
X92985647Y-117815712D01*
X92965165Y-117673255D01*
X92905377Y-117542339D01*
X92811128Y-117433569D01*
X92690053Y-117355759D01*
X92690051Y-117355758D01*
X92690049Y-117355757D01*
X92690050Y-117355757D01*
X92551963Y-117315212D01*
X92551961Y-117315212D01*
X92408039Y-117315212D01*
X92408036Y-117315212D01*
X92269949Y-117355757D01*
X92148873Y-117433568D01*
X92054623Y-117542338D01*
X92054622Y-117542340D01*
X91994834Y-117673255D01*
X91974353Y-117815712D01*
X89465500Y-117815712D01*
X89465500Y-116414284D01*
X91974353Y-116414284D01*
X91994834Y-116556740D01*
X92029270Y-116632143D01*
X92054623Y-116687657D01*
X92148872Y-116796427D01*
X92269947Y-116874237D01*
X92269950Y-116874238D01*
X92269949Y-116874238D01*
X92408036Y-116914783D01*
X92408038Y-116914784D01*
X92408039Y-116914784D01*
X92551962Y-116914784D01*
X92551962Y-116914783D01*
X92690053Y-116874237D01*
X92811128Y-116796427D01*
X92905377Y-116687657D01*
X92965165Y-116556741D01*
X92985647Y-116414284D01*
X92965165Y-116271827D01*
X92955197Y-116250000D01*
X118924353Y-116250000D01*
X118944834Y-116392456D01*
X118954803Y-116414284D01*
X119004623Y-116523373D01*
X119098872Y-116632143D01*
X119219947Y-116709953D01*
X119219950Y-116709954D01*
X119219949Y-116709954D01*
X119358036Y-116750499D01*
X119358038Y-116750500D01*
X119358039Y-116750500D01*
X119501962Y-116750500D01*
X119501962Y-116750499D01*
X119640053Y-116709953D01*
X119761128Y-116632143D01*
X119855377Y-116523373D01*
X119915165Y-116392457D01*
X119935647Y-116250000D01*
X119915165Y-116107543D01*
X119855377Y-115976627D01*
X119761128Y-115867857D01*
X119640053Y-115790047D01*
X119640051Y-115790046D01*
X119640049Y-115790045D01*
X119640050Y-115790045D01*
X119501963Y-115749500D01*
X119501961Y-115749500D01*
X119358039Y-115749500D01*
X119358036Y-115749500D01*
X119219949Y-115790045D01*
X119098873Y-115867856D01*
X119004623Y-115976626D01*
X119004622Y-115976628D01*
X118944834Y-116107543D01*
X118924353Y-116250000D01*
X92955197Y-116250000D01*
X92905377Y-116140911D01*
X92811128Y-116032141D01*
X92690053Y-115954331D01*
X92690051Y-115954330D01*
X92690049Y-115954329D01*
X92690050Y-115954329D01*
X92551963Y-115913784D01*
X92551961Y-115913784D01*
X92408039Y-115913784D01*
X92408036Y-115913784D01*
X92269949Y-115954329D01*
X92148873Y-116032140D01*
X92054623Y-116140910D01*
X92054622Y-116140912D01*
X91994834Y-116271827D01*
X91974353Y-116414284D01*
X89465500Y-116414284D01*
X89465500Y-115012856D01*
X91974353Y-115012856D01*
X91994834Y-115155312D01*
X92054622Y-115286227D01*
X92054623Y-115286229D01*
X92148872Y-115394999D01*
X92269947Y-115472809D01*
X92269950Y-115472810D01*
X92269949Y-115472810D01*
X92408036Y-115513355D01*
X92408038Y-115513356D01*
X92408039Y-115513356D01*
X92551962Y-115513356D01*
X92551962Y-115513355D01*
X92690053Y-115472809D01*
X92811128Y-115394999D01*
X92905377Y-115286229D01*
X92965165Y-115155313D01*
X92985647Y-115012856D01*
X92965165Y-114870399D01*
X92928448Y-114790000D01*
X118914353Y-114790000D01*
X118934834Y-114932456D01*
X118971552Y-115012856D01*
X118994623Y-115063373D01*
X119088872Y-115172143D01*
X119209947Y-115249953D01*
X119209950Y-115249954D01*
X119209949Y-115249954D01*
X119317107Y-115281417D01*
X119333486Y-115286227D01*
X119348036Y-115290499D01*
X119348038Y-115290500D01*
X119348039Y-115290500D01*
X119491962Y-115290500D01*
X119491962Y-115290499D01*
X119630053Y-115249953D01*
X119751128Y-115172143D01*
X119845377Y-115063373D01*
X119905165Y-114932457D01*
X119925647Y-114790000D01*
X119905165Y-114647543D01*
X119845377Y-114516627D01*
X119751128Y-114407857D01*
X119630053Y-114330047D01*
X119630051Y-114330046D01*
X119630049Y-114330045D01*
X119630050Y-114330045D01*
X119491963Y-114289500D01*
X119491961Y-114289500D01*
X119348039Y-114289500D01*
X119348036Y-114289500D01*
X119209949Y-114330045D01*
X119088873Y-114407856D01*
X118994623Y-114516626D01*
X118994622Y-114516628D01*
X118934834Y-114647543D01*
X118914353Y-114790000D01*
X92928448Y-114790000D01*
X92905377Y-114739483D01*
X92811128Y-114630713D01*
X92690053Y-114552903D01*
X92690051Y-114552902D01*
X92690049Y-114552901D01*
X92690050Y-114552901D01*
X92551963Y-114512356D01*
X92551961Y-114512356D01*
X92408039Y-114512356D01*
X92408036Y-114512356D01*
X92269949Y-114552901D01*
X92148873Y-114630712D01*
X92054623Y-114739482D01*
X92054622Y-114739484D01*
X91994834Y-114870399D01*
X91974353Y-115012856D01*
X89465500Y-115012856D01*
X89465500Y-113611428D01*
X91974353Y-113611428D01*
X91994834Y-113753884D01*
X92054622Y-113884799D01*
X92054623Y-113884801D01*
X92148872Y-113993571D01*
X92269947Y-114071381D01*
X92269950Y-114071382D01*
X92269949Y-114071382D01*
X92408036Y-114111927D01*
X92408038Y-114111928D01*
X92408039Y-114111928D01*
X92551962Y-114111928D01*
X92551962Y-114111927D01*
X92690053Y-114071381D01*
X92811128Y-113993571D01*
X92905377Y-113884801D01*
X92965165Y-113753885D01*
X92985647Y-113611428D01*
X92984004Y-113600000D01*
X98044722Y-113600000D01*
X98063762Y-113756818D01*
X98108290Y-113874226D01*
X98119780Y-113904523D01*
X98209517Y-114034530D01*
X98327760Y-114139283D01*
X98327762Y-114139284D01*
X98467634Y-114212696D01*
X98621014Y-114250500D01*
X98621015Y-114250500D01*
X98778985Y-114250500D01*
X98932365Y-114212696D01*
X99072240Y-114139283D01*
X99190483Y-114034530D01*
X99247613Y-113951761D01*
X99301895Y-113907772D01*
X99371344Y-113900112D01*
X99407289Y-113912406D01*
X99512634Y-113967696D01*
X99666014Y-114005500D01*
X99666015Y-114005500D01*
X99823985Y-114005500D01*
X99977365Y-113967696D01*
X100042761Y-113933373D01*
X100117240Y-113894283D01*
X100235483Y-113789530D01*
X100265529Y-113746000D01*
X102955429Y-113746000D01*
X102973864Y-113874225D01*
X103000876Y-113933371D01*
X103027680Y-113992063D01*
X103112513Y-114089967D01*
X103221493Y-114160004D01*
X103345787Y-114196499D01*
X103345789Y-114196500D01*
X103345790Y-114196500D01*
X103475335Y-114196500D01*
X103475335Y-114196499D01*
X103599631Y-114160004D01*
X103708611Y-114089967D01*
X103793444Y-113992063D01*
X103847259Y-113874226D01*
X103865695Y-113746000D01*
X105155429Y-113746000D01*
X105173864Y-113874225D01*
X105200876Y-113933371D01*
X105227680Y-113992063D01*
X105312513Y-114089967D01*
X105421493Y-114160004D01*
X105545787Y-114196499D01*
X105545789Y-114196500D01*
X105545790Y-114196500D01*
X105675335Y-114196500D01*
X105675335Y-114196499D01*
X105799631Y-114160004D01*
X105908611Y-114089967D01*
X105993444Y-113992063D01*
X106047259Y-113874226D01*
X106065695Y-113746000D01*
X107355429Y-113746000D01*
X107373864Y-113874225D01*
X107400876Y-113933371D01*
X107427680Y-113992063D01*
X107512513Y-114089967D01*
X107621493Y-114160004D01*
X107745787Y-114196499D01*
X107745789Y-114196500D01*
X107745790Y-114196500D01*
X107875335Y-114196500D01*
X107875335Y-114196499D01*
X107999631Y-114160004D01*
X108108611Y-114089967D01*
X108193444Y-113992063D01*
X108247259Y-113874226D01*
X108265695Y-113746000D01*
X108247259Y-113617774D01*
X108193444Y-113499937D01*
X108108611Y-113402033D01*
X107999631Y-113331996D01*
X107999627Y-113331994D01*
X107999626Y-113331994D01*
X107875336Y-113295500D01*
X107875334Y-113295500D01*
X107745790Y-113295500D01*
X107745788Y-113295500D01*
X107621497Y-113331994D01*
X107621494Y-113331995D01*
X107621493Y-113331996D01*
X107570239Y-113364934D01*
X107512512Y-113402033D01*
X107427680Y-113499937D01*
X107427679Y-113499938D01*
X107373864Y-113617774D01*
X107355429Y-113746000D01*
X106065695Y-113746000D01*
X106047259Y-113617774D01*
X105993444Y-113499937D01*
X105908611Y-113402033D01*
X105799631Y-113331996D01*
X105799627Y-113331994D01*
X105799626Y-113331994D01*
X105675336Y-113295500D01*
X105675334Y-113295500D01*
X105545790Y-113295500D01*
X105545788Y-113295500D01*
X105421497Y-113331994D01*
X105421494Y-113331995D01*
X105421493Y-113331996D01*
X105370239Y-113364934D01*
X105312512Y-113402033D01*
X105227680Y-113499937D01*
X105227679Y-113499938D01*
X105173864Y-113617774D01*
X105155429Y-113746000D01*
X103865695Y-113746000D01*
X103847259Y-113617774D01*
X103793444Y-113499937D01*
X103708611Y-113402033D01*
X103599631Y-113331996D01*
X103599627Y-113331994D01*
X103599626Y-113331994D01*
X103475336Y-113295500D01*
X103475334Y-113295500D01*
X103345790Y-113295500D01*
X103345788Y-113295500D01*
X103221497Y-113331994D01*
X103221494Y-113331995D01*
X103221493Y-113331996D01*
X103170239Y-113364934D01*
X103112512Y-113402033D01*
X103027680Y-113499937D01*
X103027679Y-113499938D01*
X102973864Y-113617774D01*
X102955429Y-113746000D01*
X100265529Y-113746000D01*
X100325220Y-113659523D01*
X100373336Y-113532648D01*
X100415514Y-113476947D01*
X100481111Y-113452890D01*
X100508483Y-113455302D01*
X100508569Y-113454596D01*
X100516014Y-113455500D01*
X100516015Y-113455500D01*
X100673985Y-113455500D01*
X100827365Y-113417696D01*
X100886563Y-113386626D01*
X100967240Y-113344283D01*
X101085483Y-113239530D01*
X101175220Y-113109523D01*
X101231237Y-112961818D01*
X101238087Y-112905400D01*
X109796251Y-112905400D01*
X109815291Y-113062218D01*
X109871309Y-113209923D01*
X109961046Y-113339930D01*
X110079289Y-113444683D01*
X110079291Y-113444684D01*
X110219163Y-113518096D01*
X110372543Y-113555900D01*
X110372544Y-113555900D01*
X110530512Y-113555900D01*
X110530514Y-113555900D01*
X110602005Y-113538279D01*
X110671804Y-113541348D01*
X110728867Y-113581667D01*
X110747620Y-113614704D01*
X110772439Y-113680146D01*
X110862176Y-113810153D01*
X110980419Y-113914906D01*
X110980421Y-113914907D01*
X111120293Y-113988319D01*
X111273673Y-114026123D01*
X111342240Y-114026123D01*
X111409279Y-114045808D01*
X111455034Y-114098612D01*
X111458181Y-114106150D01*
X111499054Y-114213923D01*
X111588791Y-114343930D01*
X111707034Y-114448683D01*
X111707036Y-114448684D01*
X111846908Y-114522096D01*
X112000288Y-114559900D01*
X112000289Y-114559900D01*
X112158259Y-114559900D01*
X112311639Y-114522096D01*
X112330197Y-114512356D01*
X112451514Y-114448683D01*
X112569757Y-114343930D01*
X112659494Y-114213923D01*
X112715511Y-114066218D01*
X112734552Y-113909400D01*
X112732717Y-113894283D01*
X112715511Y-113752581D01*
X112680399Y-113660000D01*
X118234353Y-113660000D01*
X118254834Y-113802456D01*
X118306189Y-113914906D01*
X118314623Y-113933373D01*
X118408872Y-114042143D01*
X118529947Y-114119953D01*
X118529950Y-114119954D01*
X118529949Y-114119954D01*
X118595783Y-114139284D01*
X118666353Y-114160005D01*
X118668036Y-114160499D01*
X118668038Y-114160500D01*
X118668039Y-114160500D01*
X118811962Y-114160500D01*
X118811962Y-114160499D01*
X118950053Y-114119953D01*
X119071128Y-114042143D01*
X119165377Y-113933373D01*
X119225165Y-113802457D01*
X119245647Y-113660000D01*
X119225165Y-113517543D01*
X119165377Y-113386627D01*
X119071128Y-113277857D01*
X118950053Y-113200047D01*
X118950051Y-113200046D01*
X118950049Y-113200045D01*
X118950050Y-113200045D01*
X118811963Y-113159500D01*
X118811961Y-113159500D01*
X118668039Y-113159500D01*
X118668036Y-113159500D01*
X118529949Y-113200045D01*
X118408873Y-113277856D01*
X118314623Y-113386626D01*
X118314622Y-113386628D01*
X118254834Y-113517543D01*
X118234353Y-113660000D01*
X112680399Y-113660000D01*
X112664385Y-113617774D01*
X112659494Y-113604877D01*
X112569757Y-113474870D01*
X112451514Y-113370117D01*
X112451512Y-113370116D01*
X112451511Y-113370115D01*
X112311639Y-113296703D01*
X112158260Y-113258900D01*
X112158259Y-113258900D01*
X112089693Y-113258900D01*
X112022654Y-113239215D01*
X111976899Y-113186411D01*
X111973751Y-113178871D01*
X111968669Y-113165470D01*
X111932879Y-113071100D01*
X111843142Y-112941093D01*
X111724899Y-112836340D01*
X111724897Y-112836339D01*
X111724896Y-112836338D01*
X111585024Y-112762926D01*
X111431645Y-112725123D01*
X111431644Y-112725123D01*
X111273674Y-112725123D01*
X111273673Y-112725123D01*
X111202183Y-112742743D01*
X111132381Y-112739673D01*
X111075319Y-112699353D01*
X111056567Y-112666317D01*
X111049689Y-112648181D01*
X111031749Y-112600877D01*
X110942012Y-112470870D01*
X110823769Y-112366117D01*
X110823767Y-112366116D01*
X110823766Y-112366115D01*
X110683894Y-112292703D01*
X110530515Y-112254900D01*
X110530514Y-112254900D01*
X110372544Y-112254900D01*
X110372543Y-112254900D01*
X110219163Y-112292703D01*
X110079291Y-112366115D01*
X109961045Y-112470871D01*
X109871310Y-112600875D01*
X109871309Y-112600876D01*
X109815291Y-112748581D01*
X109796251Y-112905399D01*
X109796251Y-112905400D01*
X101238087Y-112905400D01*
X101250278Y-112805000D01*
X101245170Y-112762927D01*
X101231237Y-112648181D01*
X101209984Y-112592143D01*
X101175220Y-112500477D01*
X101085483Y-112370470D01*
X100967240Y-112265717D01*
X100967238Y-112265716D01*
X100967237Y-112265715D01*
X100827365Y-112192303D01*
X100673986Y-112154500D01*
X100673985Y-112154500D01*
X100516015Y-112154500D01*
X100516014Y-112154500D01*
X100362634Y-112192303D01*
X100222762Y-112265715D01*
X100104516Y-112370471D01*
X100014781Y-112500474D01*
X99966663Y-112627350D01*
X99924484Y-112683052D01*
X99858887Y-112707109D01*
X99831517Y-112704699D01*
X99831432Y-112705404D01*
X99823986Y-112704500D01*
X99823985Y-112704500D01*
X99666015Y-112704500D01*
X99666014Y-112704500D01*
X99512634Y-112742303D01*
X99372762Y-112815715D01*
X99254515Y-112920471D01*
X99197385Y-113003238D01*
X99143102Y-113047228D01*
X99073654Y-113054887D01*
X99037710Y-113042593D01*
X98932365Y-112987303D01*
X98778986Y-112949500D01*
X98778985Y-112949500D01*
X98621015Y-112949500D01*
X98621014Y-112949500D01*
X98467634Y-112987303D01*
X98327762Y-113060715D01*
X98209516Y-113165471D01*
X98119781Y-113295475D01*
X98119780Y-113295476D01*
X98063762Y-113443181D01*
X98044722Y-113599999D01*
X98044722Y-113600000D01*
X92984004Y-113600000D01*
X92965165Y-113468971D01*
X92905377Y-113338055D01*
X92811128Y-113229285D01*
X92690053Y-113151475D01*
X92690051Y-113151474D01*
X92690049Y-113151473D01*
X92690050Y-113151473D01*
X92551963Y-113110928D01*
X92551961Y-113110928D01*
X92408039Y-113110928D01*
X92408036Y-113110928D01*
X92269949Y-113151473D01*
X92148873Y-113229284D01*
X92054623Y-113338054D01*
X92054622Y-113338056D01*
X91994834Y-113468971D01*
X91974353Y-113611428D01*
X89465500Y-113611428D01*
X89465500Y-112210000D01*
X91974353Y-112210000D01*
X91994834Y-112352456D01*
X92048913Y-112470870D01*
X92054623Y-112483373D01*
X92148872Y-112592143D01*
X92269947Y-112669953D01*
X92269950Y-112669954D01*
X92269949Y-112669954D01*
X92370075Y-112699353D01*
X92390683Y-112705404D01*
X92408036Y-112710499D01*
X92408038Y-112710500D01*
X92408039Y-112710500D01*
X92551962Y-112710500D01*
X92551962Y-112710499D01*
X92690053Y-112669953D01*
X92811128Y-112592143D01*
X92905377Y-112483373D01*
X92965165Y-112352457D01*
X92985647Y-112210000D01*
X92965165Y-112067543D01*
X92905377Y-111936627D01*
X92811128Y-111827857D01*
X92690053Y-111750047D01*
X92690051Y-111750046D01*
X92690049Y-111750045D01*
X92690050Y-111750045D01*
X92551963Y-111709500D01*
X92551961Y-111709500D01*
X92408039Y-111709500D01*
X92408036Y-111709500D01*
X92269949Y-111750045D01*
X92148873Y-111827856D01*
X92054623Y-111936626D01*
X92054622Y-111936628D01*
X91994834Y-112067543D01*
X91974353Y-112210000D01*
X89465500Y-112210000D01*
X89465500Y-108370000D01*
X117814353Y-108370000D01*
X117834834Y-108512456D01*
X117894622Y-108643371D01*
X117894623Y-108643373D01*
X117988872Y-108752143D01*
X118109947Y-108829953D01*
X118109950Y-108829954D01*
X118109949Y-108829954D01*
X118248036Y-108870499D01*
X118248038Y-108870500D01*
X118248039Y-108870500D01*
X118391962Y-108870500D01*
X118391962Y-108870499D01*
X118530053Y-108829953D01*
X118651128Y-108752143D01*
X118745377Y-108643373D01*
X118805165Y-108512457D01*
X118825647Y-108370000D01*
X118805165Y-108227543D01*
X118745377Y-108096627D01*
X118651128Y-107987857D01*
X118530053Y-107910047D01*
X118530051Y-107910046D01*
X118530049Y-107910045D01*
X118530050Y-107910045D01*
X118391963Y-107869500D01*
X118391961Y-107869500D01*
X118248039Y-107869500D01*
X118248036Y-107869500D01*
X118109949Y-107910045D01*
X117988873Y-107987856D01*
X117894623Y-108096626D01*
X117894622Y-108096628D01*
X117834834Y-108227543D01*
X117814353Y-108370000D01*
X89465500Y-108370000D01*
X89465500Y-104124000D01*
X89485185Y-104056961D01*
X89537989Y-104011206D01*
X89589500Y-104000000D01*
X123491874Y-104000000D01*
X123508059Y-104001061D01*
G37*
%TD.AperFunction*%
%TD*%
%TA.AperFunction,Conductor*%
%TO.N,/3V3*%
G36*
X119641084Y-54078002D02*
G01*
X119687577Y-54131658D01*
X119690770Y-54139308D01*
X119716213Y-54206395D01*
X119806502Y-54337201D01*
X119925471Y-54442599D01*
X119925472Y-54442599D01*
X119925474Y-54442601D01*
X119930114Y-54445036D01*
X120066207Y-54516463D01*
X120220529Y-54554500D01*
X120220530Y-54554500D01*
X120379470Y-54554500D01*
X120379471Y-54554500D01*
X120533793Y-54516463D01*
X120674529Y-54442599D01*
X120793498Y-54337201D01*
X120883787Y-54206395D01*
X120909225Y-54139318D01*
X120952083Y-54082719D01*
X121018739Y-54058274D01*
X121027037Y-54058000D01*
X128804664Y-54058000D01*
X128857570Y-54069646D01*
X129028614Y-54148780D01*
X129028626Y-54148785D01*
X129363060Y-54261469D01*
X129707717Y-54337334D01*
X130058556Y-54375490D01*
X130058564Y-54375490D01*
X130411456Y-54375490D01*
X130411464Y-54375490D01*
X130762303Y-54337334D01*
X131106960Y-54261469D01*
X131441394Y-54148785D01*
X131478414Y-54131658D01*
X131612450Y-54069646D01*
X131665356Y-54058000D01*
X133223742Y-54058000D01*
X133240187Y-54059078D01*
X133268201Y-54062765D01*
X133344964Y-54072871D01*
X133376731Y-54081383D01*
X133466675Y-54118639D01*
X133495160Y-54135085D01*
X133572393Y-54194349D01*
X133595650Y-54217606D01*
X133654914Y-54294839D01*
X133671361Y-54323326D01*
X133708615Y-54413265D01*
X133717128Y-54445036D01*
X133730922Y-54549810D01*
X133732000Y-54566257D01*
X133732000Y-62672096D01*
X133711998Y-62740217D01*
X133658342Y-62786710D01*
X133606621Y-62798094D01*
X127129999Y-62829999D01*
X127239999Y-82460000D01*
X127240000Y-82460000D01*
X133605387Y-82428835D01*
X133673601Y-82448502D01*
X133720356Y-82501929D01*
X133732000Y-82554832D01*
X133732000Y-141625814D01*
X133730399Y-141645835D01*
X133709974Y-141772742D01*
X133697411Y-141810761D01*
X133638201Y-141924852D01*
X133627559Y-141941884D01*
X133403081Y-142244468D01*
X133346429Y-142287260D01*
X133275636Y-142292631D01*
X133213177Y-142258876D01*
X133190564Y-142228415D01*
X133094739Y-142047670D01*
X133094737Y-142047666D01*
X132963767Y-141854499D01*
X132896690Y-141755568D01*
X132668223Y-141486595D01*
X132668222Y-141486594D01*
X132412027Y-141243912D01*
X132412012Y-141243899D01*
X132131070Y-141030333D01*
X132131064Y-141030329D01*
X131828674Y-140848387D01*
X131828668Y-140848384D01*
X131508395Y-140700209D01*
X131508383Y-140700204D01*
X131173959Y-140587524D01*
X131173958Y-140587523D01*
X131173950Y-140587521D01*
X131123836Y-140576490D01*
X130829305Y-140511658D01*
X130829281Y-140511654D01*
X130478461Y-140473500D01*
X130478454Y-140473500D01*
X130125546Y-140473500D01*
X130125538Y-140473500D01*
X129774718Y-140511654D01*
X129774694Y-140511658D01*
X129430054Y-140587520D01*
X129430040Y-140587524D01*
X129095616Y-140700204D01*
X129095604Y-140700209D01*
X128775331Y-140848384D01*
X128775324Y-140848388D01*
X128472935Y-141030329D01*
X128472929Y-141030333D01*
X128191987Y-141243899D01*
X128191972Y-141243912D01*
X127935777Y-141486594D01*
X127707308Y-141755570D01*
X127509262Y-142047666D01*
X127509260Y-142047670D01*
X127343957Y-142359466D01*
X127343953Y-142359475D01*
X127213332Y-142687308D01*
X127118918Y-143027355D01*
X127061826Y-143375609D01*
X127042720Y-143727996D01*
X127042720Y-143728003D01*
X127061826Y-144080390D01*
X127118918Y-144428644D01*
X127213332Y-144768691D01*
X127299926Y-144986026D01*
X127343958Y-145096536D01*
X127398560Y-145199526D01*
X127509260Y-145408329D01*
X127509262Y-145408333D01*
X127584978Y-145520006D01*
X127707310Y-145700432D01*
X127935777Y-145969405D01*
X128191972Y-146212087D01*
X128191987Y-146212100D01*
X128472934Y-146425670D01*
X128775326Y-146607613D01*
X128857609Y-146645681D01*
X129095604Y-146755790D01*
X129095616Y-146755795D01*
X129430050Y-146868479D01*
X129682076Y-146923954D01*
X129694436Y-146926675D01*
X129756664Y-146960853D01*
X129790535Y-147023249D01*
X129785296Y-147094052D01*
X129755702Y-147139561D01*
X129718035Y-147176608D01*
X129686325Y-147199326D01*
X129583324Y-147251163D01*
X129546186Y-147263094D01*
X129442610Y-147279323D01*
X129422454Y-147282481D01*
X129402952Y-147284000D01*
X92665787Y-147284000D01*
X92649374Y-147282926D01*
X92544806Y-147269188D01*
X92513100Y-147260712D01*
X92423313Y-147223607D01*
X92394874Y-147207229D01*
X92317720Y-147148195D01*
X92294471Y-147125023D01*
X92235182Y-147048063D01*
X92218710Y-147019677D01*
X92181309Y-146930011D01*
X92172728Y-146898333D01*
X92168705Y-146868475D01*
X92158644Y-146793797D01*
X92157518Y-146777414D01*
X92150948Y-144784541D01*
X92170725Y-144716359D01*
X92224227Y-144669690D01*
X92264596Y-144658737D01*
X92325226Y-144652765D01*
X92365240Y-144648825D01*
X92365241Y-144648824D01*
X92365248Y-144648824D01*
X92561647Y-144589247D01*
X92742649Y-144492500D01*
X92901299Y-144362299D01*
X93031500Y-144203649D01*
X93128247Y-144022647D01*
X93187824Y-143826248D01*
X93193518Y-143768426D01*
X93195325Y-143756247D01*
X93211500Y-143674935D01*
X93211500Y-143622002D01*
X93654059Y-143622002D01*
X93674174Y-143826241D01*
X93674175Y-143826247D01*
X93674176Y-143826248D01*
X93733753Y-144022647D01*
X93830500Y-144203649D01*
X93960701Y-144362299D01*
X94119351Y-144492500D01*
X94300353Y-144589247D01*
X94496752Y-144648824D01*
X94496756Y-144648824D01*
X94496758Y-144648825D01*
X94518950Y-144651011D01*
X94584782Y-144677593D01*
X94625792Y-144735548D01*
X94628959Y-144806474D01*
X94593278Y-144867853D01*
X94531182Y-144899983D01*
X94439004Y-144918318D01*
X94438999Y-144918320D01*
X94275543Y-144986026D01*
X94128431Y-145084323D01*
X94128425Y-145084328D01*
X94003327Y-145209426D01*
X94003322Y-145209432D01*
X93905025Y-145356544D01*
X93837319Y-145520000D01*
X93837317Y-145520005D01*
X93802800Y-145693533D01*
X93802800Y-145693536D01*
X93802800Y-145870466D01*
X93837317Y-146043996D01*
X93905025Y-146207458D01*
X93908127Y-146212100D01*
X94003322Y-146354569D01*
X94003327Y-146354575D01*
X94128425Y-146479673D01*
X94128431Y-146479678D01*
X94275543Y-146577976D01*
X94439005Y-146645684D01*
X94612535Y-146680201D01*
X94612536Y-146680201D01*
X94789464Y-146680201D01*
X94789465Y-146680201D01*
X94962995Y-146645684D01*
X95126457Y-146577976D01*
X95273569Y-146479678D01*
X95398677Y-146354570D01*
X95496975Y-146207458D01*
X95564683Y-146043996D01*
X95599200Y-145870466D01*
X95599200Y-145693536D01*
X95564683Y-145520006D01*
X95496975Y-145356544D01*
X95398677Y-145209432D01*
X95398672Y-145209426D01*
X95273574Y-145084328D01*
X95273568Y-145084323D01*
X95224754Y-145051706D01*
X95126457Y-144986026D01*
X94962995Y-144918318D01*
X94870816Y-144899982D01*
X94807908Y-144867075D01*
X94772776Y-144805380D01*
X94776576Y-144734485D01*
X94818102Y-144676899D01*
X94883049Y-144651011D01*
X94905241Y-144648825D01*
X94905242Y-144648824D01*
X94905248Y-144648824D01*
X95101647Y-144589247D01*
X95282649Y-144492500D01*
X95441299Y-144362299D01*
X95571500Y-144203649D01*
X95668247Y-144022647D01*
X95727824Y-143826248D01*
X95731978Y-143784080D01*
X95747941Y-143622002D01*
X96194059Y-143622002D01*
X96214174Y-143826241D01*
X96214175Y-143826247D01*
X96214176Y-143826248D01*
X96273753Y-144022647D01*
X96370500Y-144203649D01*
X96500701Y-144362299D01*
X96659351Y-144492500D01*
X96840353Y-144589247D01*
X97036752Y-144648824D01*
X97036756Y-144648824D01*
X97036758Y-144648825D01*
X97240997Y-144668941D01*
X97241000Y-144668941D01*
X97241003Y-144668941D01*
X97445241Y-144648825D01*
X97445242Y-144648824D01*
X97445248Y-144648824D01*
X97641647Y-144589247D01*
X97822649Y-144492500D01*
X97981299Y-144362299D01*
X98111500Y-144203649D01*
X98208247Y-144022647D01*
X98267824Y-143826248D01*
X98271978Y-143784080D01*
X98287941Y-143622002D01*
X98287941Y-143621997D01*
X98267825Y-143417758D01*
X98267824Y-143417756D01*
X98267824Y-143417752D01*
X98208247Y-143221353D01*
X98143383Y-143100000D01*
X103840726Y-143100000D01*
X103859763Y-143268954D01*
X103864677Y-143282997D01*
X103915918Y-143429437D01*
X103915919Y-143429439D01*
X104006375Y-143573399D01*
X104006377Y-143573402D01*
X104126597Y-143693622D01*
X104126600Y-143693624D01*
X104270563Y-143784082D01*
X104431046Y-143840237D01*
X104600000Y-143859274D01*
X104768954Y-143840237D01*
X104929437Y-143784082D01*
X105073400Y-143693624D01*
X105193624Y-143573400D01*
X105284082Y-143429437D01*
X105340237Y-143268954D01*
X105359274Y-143100000D01*
X105340237Y-142931046D01*
X105284082Y-142770563D01*
X105193624Y-142626600D01*
X105193622Y-142626597D01*
X105073402Y-142506377D01*
X105073399Y-142506375D01*
X104929439Y-142415919D01*
X104929437Y-142415918D01*
X104768954Y-142359763D01*
X104600000Y-142340726D01*
X104431046Y-142359763D01*
X104431043Y-142359763D01*
X104431043Y-142359764D01*
X104270562Y-142415918D01*
X104270560Y-142415919D01*
X104126600Y-142506375D01*
X104126597Y-142506377D01*
X104006377Y-142626597D01*
X104006375Y-142626600D01*
X103915919Y-142770560D01*
X103915918Y-142770562D01*
X103915918Y-142770563D01*
X103859763Y-142931046D01*
X103840726Y-143100000D01*
X98143383Y-143100000D01*
X98111500Y-143040351D01*
X97981299Y-142881701D01*
X97822649Y-142751500D01*
X97641647Y-142654753D01*
X97445248Y-142595176D01*
X97445247Y-142595175D01*
X97445241Y-142595174D01*
X97241003Y-142575059D01*
X97240997Y-142575059D01*
X97036758Y-142595174D01*
X96840352Y-142654753D01*
X96659350Y-142751500D01*
X96500701Y-142881701D01*
X96370500Y-143040350D01*
X96273753Y-143221352D01*
X96214174Y-143417758D01*
X96194059Y-143621997D01*
X96194059Y-143622002D01*
X95747941Y-143622002D01*
X95747941Y-143621997D01*
X95727825Y-143417758D01*
X95727824Y-143417756D01*
X95727824Y-143417752D01*
X95668247Y-143221353D01*
X95571500Y-143040351D01*
X95441299Y-142881701D01*
X95282649Y-142751500D01*
X95101647Y-142654753D01*
X94905248Y-142595176D01*
X94905247Y-142595175D01*
X94905241Y-142595174D01*
X94701003Y-142575059D01*
X94700997Y-142575059D01*
X94496758Y-142595174D01*
X94300352Y-142654753D01*
X94119350Y-142751500D01*
X93960701Y-142881701D01*
X93830500Y-143040350D01*
X93733753Y-143221352D01*
X93674174Y-143417758D01*
X93654059Y-143621997D01*
X93654059Y-143622002D01*
X93211500Y-143622002D01*
X93211500Y-143477065D01*
X93172897Y-143282998D01*
X93172894Y-143282991D01*
X93171099Y-143277071D01*
X93172751Y-143276569D01*
X93165500Y-143240076D01*
X93165500Y-141200003D01*
X95410693Y-141200003D01*
X95429849Y-141357779D01*
X95478447Y-141485919D01*
X95486213Y-141506395D01*
X95576502Y-141637201D01*
X95695471Y-141742599D01*
X95695472Y-141742599D01*
X95695474Y-141742601D01*
X95770200Y-141781820D01*
X95836207Y-141816463D01*
X95990529Y-141854500D01*
X95990530Y-141854500D01*
X96149470Y-141854500D01*
X96149471Y-141854500D01*
X96303793Y-141816463D01*
X96444529Y-141742599D01*
X96563498Y-141637201D01*
X96653787Y-141506395D01*
X96710149Y-141357782D01*
X96710149Y-141357781D01*
X96710150Y-141357779D01*
X96729307Y-141200003D01*
X96729307Y-141199996D01*
X96710150Y-141042220D01*
X96675697Y-140951377D01*
X96653787Y-140893605D01*
X96563498Y-140762799D01*
X96444529Y-140657401D01*
X96444528Y-140657400D01*
X96444525Y-140657398D01*
X96303797Y-140583539D01*
X96303795Y-140583538D01*
X96303793Y-140583537D01*
X96303791Y-140583536D01*
X96303790Y-140583536D01*
X96149472Y-140545500D01*
X96149471Y-140545500D01*
X95990529Y-140545500D01*
X95990527Y-140545500D01*
X95836209Y-140583536D01*
X95836202Y-140583539D01*
X95695474Y-140657398D01*
X95695469Y-140657402D01*
X95576501Y-140762800D01*
X95486215Y-140893601D01*
X95486212Y-140893607D01*
X95429849Y-141042220D01*
X95410693Y-141199996D01*
X95410693Y-141200003D01*
X93165500Y-141200003D01*
X93165500Y-140034500D01*
X93185502Y-139966379D01*
X93239158Y-139919886D01*
X93291500Y-139908500D01*
X104766943Y-139908500D01*
X104766945Y-139908500D01*
X104896274Y-139873847D01*
X105012226Y-139806901D01*
X105106901Y-139712226D01*
X105120648Y-139688414D01*
X105124251Y-139683369D01*
X105123901Y-139683144D01*
X105128770Y-139675565D01*
X105128777Y-139675558D01*
X105128949Y-139675180D01*
X105134444Y-139664518D01*
X105173847Y-139596274D01*
X105183705Y-139559480D01*
X105187375Y-139549274D01*
X105189040Y-139543603D01*
X105189040Y-139543599D01*
X105189042Y-139543596D01*
X105189223Y-139542329D01*
X105192229Y-139527664D01*
X105208500Y-139466945D01*
X105208500Y-139417273D01*
X105209688Y-139400664D01*
X105209688Y-139399336D01*
X105208500Y-139382724D01*
X105208500Y-139333055D01*
X105192235Y-139272353D01*
X105189223Y-139257662D01*
X105189170Y-139257296D01*
X105189042Y-139256404D01*
X105189041Y-139256401D01*
X105187379Y-139250738D01*
X105183705Y-139240519D01*
X105173847Y-139203726D01*
X105134447Y-139135484D01*
X105128946Y-139124813D01*
X105128776Y-139124440D01*
X105123906Y-139116862D01*
X105124251Y-139116639D01*
X105120652Y-139111592D01*
X105106901Y-139087774D01*
X105106897Y-139087770D01*
X105106894Y-139087766D01*
X105012227Y-138993099D01*
X105012224Y-138993097D01*
X104896278Y-138926155D01*
X104896276Y-138926154D01*
X104896274Y-138926153D01*
X104766945Y-138891500D01*
X104766943Y-138891500D01*
X99550708Y-138891500D01*
X99482587Y-138871498D01*
X99436094Y-138817842D01*
X99425627Y-138750313D01*
X99429307Y-138720004D01*
X99429307Y-138719996D01*
X99410150Y-138562220D01*
X99396538Y-138526331D01*
X99353787Y-138413605D01*
X99263498Y-138282799D01*
X99144529Y-138177401D01*
X99144528Y-138177400D01*
X99144525Y-138177398D01*
X99003797Y-138103539D01*
X99003795Y-138103538D01*
X99003793Y-138103537D01*
X99003791Y-138103536D01*
X99003790Y-138103536D01*
X98849472Y-138065500D01*
X98849471Y-138065500D01*
X98690529Y-138065500D01*
X98690527Y-138065500D01*
X98536209Y-138103536D01*
X98536202Y-138103539D01*
X98395474Y-138177398D01*
X98395469Y-138177402D01*
X98276501Y-138282800D01*
X98186215Y-138413601D01*
X98186212Y-138413607D01*
X98129849Y-138562220D01*
X98110693Y-138719996D01*
X98110693Y-138720004D01*
X98114373Y-138750313D01*
X98102728Y-138820348D01*
X98055067Y-138872969D01*
X97989292Y-138891500D01*
X93322818Y-138891500D01*
X93254697Y-138871498D01*
X93233723Y-138854595D01*
X93202405Y-138823277D01*
X93168379Y-138760965D01*
X93165500Y-138734182D01*
X93165500Y-138402064D01*
X93165499Y-138402061D01*
X93150423Y-138326270D01*
X93126897Y-138207998D01*
X93051176Y-138025191D01*
X92941246Y-137860669D01*
X92801331Y-137720754D01*
X92730580Y-137650003D01*
X95410693Y-137650003D01*
X95429849Y-137807779D01*
X95473678Y-137923344D01*
X95486213Y-137956395D01*
X95576502Y-138087201D01*
X95695471Y-138192599D01*
X95695472Y-138192599D01*
X95695474Y-138192601D01*
X95724809Y-138207997D01*
X95836207Y-138266463D01*
X95990529Y-138304500D01*
X95990530Y-138304500D01*
X96149470Y-138304500D01*
X96149471Y-138304500D01*
X96303793Y-138266463D01*
X96444529Y-138192599D01*
X96563498Y-138087201D01*
X96653787Y-137956395D01*
X96710149Y-137807782D01*
X96710149Y-137807781D01*
X96710150Y-137807779D01*
X96729307Y-137650003D01*
X96729307Y-137649996D01*
X96710150Y-137492220D01*
X96696538Y-137456331D01*
X96653787Y-137343605D01*
X96563498Y-137212799D01*
X96444529Y-137107401D01*
X96444528Y-137107400D01*
X96444525Y-137107398D01*
X96303797Y-137033539D01*
X96303795Y-137033538D01*
X96303793Y-137033537D01*
X96303791Y-137033536D01*
X96303790Y-137033536D01*
X96149472Y-136995500D01*
X96149471Y-136995500D01*
X95990529Y-136995500D01*
X95990527Y-136995500D01*
X95836209Y-137033536D01*
X95836202Y-137033539D01*
X95695474Y-137107398D01*
X95695469Y-137107402D01*
X95576501Y-137212800D01*
X95486215Y-137343601D01*
X95486212Y-137343607D01*
X95429849Y-137492220D01*
X95410693Y-137649996D01*
X95410693Y-137650003D01*
X92730580Y-137650003D01*
X91780577Y-136700000D01*
X93060312Y-136700000D01*
X93080958Y-136843596D01*
X93141223Y-136975558D01*
X93236225Y-137085196D01*
X93358268Y-137163629D01*
X93497464Y-137204500D01*
X93642536Y-137204500D01*
X93781732Y-137163629D01*
X93903775Y-137085196D01*
X93998777Y-136975558D01*
X94059042Y-136843596D01*
X94079688Y-136700000D01*
X94059042Y-136556404D01*
X94017179Y-136464736D01*
X124379500Y-136464736D01*
X124409450Y-136692231D01*
X124409452Y-136692238D01*
X124468842Y-136913887D01*
X124556656Y-137125888D01*
X124556657Y-137125889D01*
X124556662Y-137125900D01*
X124671386Y-137324608D01*
X124671391Y-137324615D01*
X124811073Y-137506652D01*
X124811092Y-137506673D01*
X124973326Y-137668907D01*
X124973347Y-137668926D01*
X125155384Y-137808608D01*
X125155391Y-137808613D01*
X125354099Y-137923337D01*
X125354103Y-137923338D01*
X125354112Y-137923344D01*
X125566113Y-138011158D01*
X125787762Y-138070548D01*
X125787766Y-138070548D01*
X125787768Y-138070549D01*
X125846398Y-138078267D01*
X126015266Y-138100500D01*
X126015273Y-138100500D01*
X126244727Y-138100500D01*
X126244734Y-138100500D01*
X126450345Y-138073430D01*
X126472231Y-138070549D01*
X126472231Y-138070548D01*
X126472238Y-138070548D01*
X126693887Y-138011158D01*
X126905888Y-137923344D01*
X127104612Y-137808611D01*
X127286661Y-137668919D01*
X127448919Y-137506661D01*
X127588611Y-137324612D01*
X127703344Y-137125888D01*
X127791158Y-136913887D01*
X127850548Y-136692238D01*
X127880500Y-136464734D01*
X127880500Y-136235266D01*
X127850548Y-136007762D01*
X127791158Y-135786113D01*
X127703344Y-135574112D01*
X127703338Y-135574103D01*
X127703337Y-135574099D01*
X127588613Y-135375391D01*
X127588608Y-135375384D01*
X127448926Y-135193347D01*
X127448907Y-135193326D01*
X127286673Y-135031092D01*
X127286652Y-135031073D01*
X127104615Y-134891391D01*
X127104608Y-134891386D01*
X126905900Y-134776662D01*
X126905892Y-134776658D01*
X126905888Y-134776656D01*
X126693887Y-134688842D01*
X126472238Y-134629452D01*
X126472231Y-134629450D01*
X126244736Y-134599500D01*
X126244734Y-134599500D01*
X126015266Y-134599500D01*
X126015263Y-134599500D01*
X125787768Y-134629450D01*
X125566113Y-134688842D01*
X125354110Y-134776657D01*
X125354099Y-134776662D01*
X125155391Y-134891386D01*
X125155384Y-134891391D01*
X124973347Y-135031073D01*
X124973326Y-135031092D01*
X124811092Y-135193326D01*
X124811073Y-135193347D01*
X124671391Y-135375384D01*
X124671386Y-135375391D01*
X124556662Y-135574099D01*
X124556657Y-135574110D01*
X124556656Y-135574112D01*
X124498057Y-135715581D01*
X124468842Y-135786113D01*
X124409450Y-136007768D01*
X124379500Y-136235263D01*
X124379500Y-136464736D01*
X94017179Y-136464736D01*
X93998777Y-136424442D01*
X93903775Y-136314804D01*
X93903774Y-136314803D01*
X93842753Y-136275587D01*
X93781732Y-136236371D01*
X93781731Y-136236370D01*
X93781730Y-136236370D01*
X93642536Y-136195500D01*
X93497464Y-136195500D01*
X93358269Y-136236370D01*
X93358266Y-136236372D01*
X93236225Y-136314803D01*
X93141223Y-136424441D01*
X93141223Y-136424442D01*
X93080958Y-136556404D01*
X93060312Y-136700000D01*
X91780577Y-136700000D01*
X90687789Y-135607212D01*
X90653763Y-135544900D01*
X90658828Y-135474085D01*
X90701375Y-135417249D01*
X90767895Y-135392438D01*
X90776884Y-135392117D01*
X106851542Y-135392117D01*
X106851544Y-135392117D01*
X106980873Y-135357464D01*
X107096826Y-135290518D01*
X108696901Y-133690442D01*
X108738583Y-133618248D01*
X108763847Y-133574490D01*
X108798500Y-133445161D01*
X108798500Y-132650003D01*
X112920693Y-132650003D01*
X112939849Y-132807779D01*
X112988447Y-132935919D01*
X112996213Y-132956395D01*
X113086502Y-133087201D01*
X113205471Y-133192599D01*
X113205472Y-133192599D01*
X113205474Y-133192601D01*
X113280200Y-133231820D01*
X113346207Y-133266463D01*
X113500529Y-133304500D01*
X113500530Y-133304500D01*
X113659470Y-133304500D01*
X113659471Y-133304500D01*
X113813793Y-133266463D01*
X113954529Y-133192599D01*
X114073498Y-133087201D01*
X114163787Y-132956395D01*
X114220149Y-132807782D01*
X114220149Y-132807781D01*
X114220150Y-132807779D01*
X114239307Y-132650003D01*
X114239307Y-132649996D01*
X114220150Y-132492220D01*
X114182224Y-132392220D01*
X114163787Y-132343605D01*
X114073498Y-132212799D01*
X113954529Y-132107401D01*
X113954528Y-132107400D01*
X113954525Y-132107398D01*
X113813797Y-132033539D01*
X113813795Y-132033538D01*
X113813793Y-132033537D01*
X113813791Y-132033536D01*
X113813790Y-132033536D01*
X113659472Y-131995500D01*
X113659471Y-131995500D01*
X113500529Y-131995500D01*
X113500527Y-131995500D01*
X113346209Y-132033536D01*
X113346202Y-132033539D01*
X113205474Y-132107398D01*
X113205469Y-132107402D01*
X113086501Y-132212800D01*
X112996215Y-132343601D01*
X112996212Y-132343607D01*
X112939849Y-132492220D01*
X112920693Y-132649996D01*
X112920693Y-132650003D01*
X108798500Y-132650003D01*
X108798500Y-131633729D01*
X108818502Y-131565608D01*
X108820777Y-131562191D01*
X108873787Y-131485395D01*
X108930149Y-131336782D01*
X108930149Y-131336781D01*
X108930150Y-131336779D01*
X108949307Y-131179003D01*
X108949307Y-131178996D01*
X108930150Y-131021220D01*
X108915578Y-130982799D01*
X108873787Y-130872605D01*
X108783498Y-130741799D01*
X108696101Y-130664371D01*
X108658377Y-130604229D01*
X108659157Y-130533236D01*
X108698195Y-130473936D01*
X108763096Y-130445154D01*
X108778952Y-130444063D01*
X112469540Y-130423560D01*
X112537771Y-130443183D01*
X112584561Y-130496580D01*
X112588051Y-130504875D01*
X112596213Y-130526395D01*
X112686502Y-130657201D01*
X112805471Y-130762599D01*
X112805472Y-130762599D01*
X112805474Y-130762601D01*
X112880200Y-130801820D01*
X112946207Y-130836463D01*
X113100529Y-130874500D01*
X113100530Y-130874500D01*
X113259470Y-130874500D01*
X113259471Y-130874500D01*
X113413793Y-130836463D01*
X113554529Y-130762599D01*
X113673498Y-130657201D01*
X113763787Y-130526395D01*
X113774945Y-130496972D01*
X113817801Y-130440374D01*
X113884456Y-130415929D01*
X113892032Y-130415657D01*
X123420712Y-130362720D01*
X123496123Y-130362302D01*
X123513033Y-130361656D01*
X123529154Y-130360513D01*
X123545979Y-130358768D01*
X123650704Y-130344439D01*
X123650726Y-130344434D01*
X123650730Y-130344434D01*
X123683840Y-130337680D01*
X123683839Y-130337680D01*
X123683850Y-130337678D01*
X123714969Y-130329185D01*
X123746949Y-130318172D01*
X123836901Y-130280473D01*
X123867174Y-130265396D01*
X123895051Y-130249164D01*
X123923116Y-130230271D01*
X123974464Y-130190604D01*
X124000289Y-130170655D01*
X124000292Y-130170651D01*
X124000304Y-130170643D01*
X124025666Y-130148265D01*
X124048410Y-130125394D01*
X124070646Y-130099908D01*
X124129841Y-130022393D01*
X124148573Y-129994232D01*
X124164650Y-129966267D01*
X124179562Y-129935905D01*
X124216762Y-129845743D01*
X124227597Y-129813703D01*
X124235917Y-129782538D01*
X124242493Y-129749357D01*
X124256242Y-129644551D01*
X124257896Y-129627704D01*
X124258949Y-129611575D01*
X124259500Y-129594669D01*
X124259500Y-122431752D01*
X124279502Y-122363631D01*
X124333158Y-122317138D01*
X124403432Y-122307034D01*
X124420987Y-122310853D01*
X124467464Y-122324500D01*
X124467465Y-122324500D01*
X124612536Y-122324500D01*
X124751732Y-122283629D01*
X124873775Y-122205196D01*
X124968777Y-122095558D01*
X125029042Y-121963596D01*
X125049688Y-121820000D01*
X125029042Y-121676404D01*
X124968777Y-121544442D01*
X124873775Y-121434804D01*
X124873774Y-121434803D01*
X124812753Y-121395587D01*
X124751732Y-121356371D01*
X124751731Y-121356370D01*
X124751730Y-121356370D01*
X124612536Y-121315500D01*
X124467464Y-121315500D01*
X124467463Y-121315500D01*
X124420997Y-121329143D01*
X124350000Y-121329143D01*
X124290275Y-121290758D01*
X124260782Y-121226177D01*
X124259500Y-121208247D01*
X124259500Y-120625331D01*
X124279502Y-120557210D01*
X124281804Y-120553755D01*
X124293787Y-120536395D01*
X124350149Y-120387782D01*
X124350149Y-120387781D01*
X124350150Y-120387779D01*
X124369307Y-120230003D01*
X124369307Y-120229996D01*
X124350150Y-120072220D01*
X124334363Y-120030596D01*
X124293787Y-119923605D01*
X124281802Y-119906242D01*
X124259568Y-119838818D01*
X124259500Y-119834668D01*
X124259500Y-117983281D01*
X124279502Y-117915160D01*
X124281804Y-117911705D01*
X124333787Y-117836395D01*
X124390149Y-117687782D01*
X124390149Y-117687781D01*
X124390150Y-117687779D01*
X124409307Y-117530003D01*
X124409307Y-117529996D01*
X124390150Y-117372220D01*
X124333785Y-117223601D01*
X124281804Y-117148293D01*
X124259568Y-117080868D01*
X124259500Y-117076717D01*
X124259500Y-108743003D01*
X131637693Y-108743003D01*
X131656849Y-108900779D01*
X131705447Y-109028919D01*
X131713213Y-109049395D01*
X131803502Y-109180201D01*
X131922471Y-109285599D01*
X131922472Y-109285599D01*
X131922474Y-109285601D01*
X131997200Y-109324820D01*
X132063207Y-109359463D01*
X132217529Y-109397500D01*
X132217530Y-109397500D01*
X132376470Y-109397500D01*
X132376471Y-109397500D01*
X132530793Y-109359463D01*
X132671529Y-109285599D01*
X132790498Y-109180201D01*
X132880787Y-109049395D01*
X132937149Y-108900782D01*
X132937149Y-108900781D01*
X132937150Y-108900779D01*
X132956307Y-108743003D01*
X132956307Y-108742996D01*
X132937150Y-108585220D01*
X132923538Y-108549331D01*
X132880787Y-108436605D01*
X132790498Y-108305799D01*
X132671529Y-108200401D01*
X132671528Y-108200400D01*
X132671525Y-108200398D01*
X132530797Y-108126539D01*
X132530795Y-108126538D01*
X132530793Y-108126537D01*
X132530791Y-108126536D01*
X132530790Y-108126536D01*
X132376472Y-108088500D01*
X132376471Y-108088500D01*
X132217529Y-108088500D01*
X132217527Y-108088500D01*
X132063209Y-108126536D01*
X132063202Y-108126539D01*
X131922474Y-108200398D01*
X131922469Y-108200402D01*
X131803501Y-108305800D01*
X131713215Y-108436601D01*
X131713212Y-108436607D01*
X131656849Y-108585220D01*
X131637693Y-108742996D01*
X131637693Y-108743003D01*
X124259500Y-108743003D01*
X124259500Y-107620003D01*
X128030693Y-107620003D01*
X128049849Y-107777779D01*
X128098447Y-107905919D01*
X128106213Y-107926395D01*
X128196502Y-108057201D01*
X128315471Y-108162599D01*
X128315472Y-108162599D01*
X128315474Y-108162601D01*
X128387491Y-108200398D01*
X128456207Y-108236463D01*
X128610529Y-108274500D01*
X128610530Y-108274500D01*
X128769470Y-108274500D01*
X128769471Y-108274500D01*
X128923793Y-108236463D01*
X129064529Y-108162599D01*
X129183498Y-108057201D01*
X129273787Y-107926395D01*
X129330149Y-107777782D01*
X129330149Y-107777781D01*
X129330150Y-107777779D01*
X129349307Y-107620003D01*
X129349307Y-107619996D01*
X129330150Y-107462220D01*
X129316538Y-107426331D01*
X129273787Y-107313605D01*
X129183498Y-107182799D01*
X129064529Y-107077401D01*
X129064528Y-107077400D01*
X129064525Y-107077398D01*
X128923797Y-107003539D01*
X128923795Y-107003538D01*
X128923793Y-107003537D01*
X128923791Y-107003536D01*
X128923790Y-107003536D01*
X128769472Y-106965500D01*
X128769471Y-106965500D01*
X128610529Y-106965500D01*
X128610527Y-106965500D01*
X128456209Y-107003536D01*
X128456202Y-107003539D01*
X128315474Y-107077398D01*
X128315469Y-107077402D01*
X128196501Y-107182800D01*
X128106215Y-107313601D01*
X128106212Y-107313607D01*
X128049849Y-107462220D01*
X128030693Y-107619996D01*
X128030693Y-107620003D01*
X124259500Y-107620003D01*
X124259500Y-104508110D01*
X124258944Y-104491165D01*
X124258944Y-104491151D01*
X124257883Y-104474965D01*
X124256219Y-104458065D01*
X124254894Y-104448000D01*
X126718312Y-104448000D01*
X126738958Y-104591596D01*
X126799223Y-104723558D01*
X126894225Y-104833196D01*
X127016268Y-104911629D01*
X127155464Y-104952500D01*
X127300536Y-104952500D01*
X127439732Y-104911629D01*
X127561775Y-104833196D01*
X127656777Y-104723558D01*
X127717042Y-104591596D01*
X127737688Y-104448000D01*
X127717042Y-104304404D01*
X127656777Y-104172442D01*
X127561775Y-104062804D01*
X127561774Y-104062803D01*
X127466273Y-104001428D01*
X127439732Y-103984371D01*
X127439731Y-103984370D01*
X127439730Y-103984370D01*
X127300536Y-103943500D01*
X127155464Y-103943500D01*
X127016269Y-103984370D01*
X127016266Y-103984372D01*
X126894225Y-104062803D01*
X126799223Y-104172441D01*
X126738958Y-104304403D01*
X126736770Y-104319623D01*
X126718312Y-104448000D01*
X124254894Y-104448000D01*
X124242373Y-104352901D01*
X124235751Y-104319611D01*
X124227373Y-104288344D01*
X124216462Y-104256202D01*
X124179006Y-104165775D01*
X124179003Y-104165767D01*
X124163995Y-104135336D01*
X124147797Y-104107280D01*
X124128958Y-104079086D01*
X124128939Y-104079061D01*
X124069372Y-104001432D01*
X124069369Y-104001428D01*
X124069366Y-104001424D01*
X124046985Y-103975904D01*
X124046979Y-103975897D01*
X124024122Y-103953040D01*
X124024106Y-103953025D01*
X124024096Y-103953015D01*
X124024083Y-103953004D01*
X124024076Y-103952997D01*
X123998590Y-103930645D01*
X123998556Y-103930618D01*
X123920943Y-103871063D01*
X123920913Y-103871041D01*
X123892700Y-103852191D01*
X123892701Y-103852191D01*
X123892699Y-103852190D01*
X123876513Y-103842845D01*
X123864664Y-103836004D01*
X123834234Y-103820998D01*
X123834224Y-103820993D01*
X123834219Y-103820991D01*
X123834215Y-103820989D01*
X123743788Y-103783533D01*
X123711678Y-103772634D01*
X123711667Y-103772630D01*
X123711653Y-103772626D01*
X123680385Y-103764248D01*
X123680377Y-103764246D01*
X123680372Y-103764245D01*
X123647096Y-103757626D01*
X123647089Y-103757625D01*
X123578839Y-103748640D01*
X123541930Y-103743781D01*
X123541924Y-103743780D01*
X123541921Y-103743780D01*
X123525045Y-103742117D01*
X123508834Y-103741055D01*
X123491888Y-103740500D01*
X123491874Y-103740500D01*
X120213544Y-103740500D01*
X120145423Y-103720498D01*
X120098930Y-103666842D01*
X120088463Y-103599313D01*
X120099307Y-103510003D01*
X120099307Y-103509996D01*
X120080150Y-103352220D01*
X120066538Y-103316331D01*
X120023787Y-103203605D01*
X119933498Y-103072799D01*
X119814529Y-102967401D01*
X119814528Y-102967400D01*
X119814525Y-102967398D01*
X119673797Y-102893539D01*
X119673795Y-102893538D01*
X119673793Y-102893537D01*
X119673791Y-102893536D01*
X119673790Y-102893536D01*
X119519472Y-102855500D01*
X119519471Y-102855500D01*
X119360529Y-102855500D01*
X119360527Y-102855500D01*
X119206209Y-102893536D01*
X119206202Y-102893539D01*
X119065474Y-102967398D01*
X119065469Y-102967402D01*
X118946501Y-103072800D01*
X118856215Y-103203601D01*
X118856212Y-103203607D01*
X118799849Y-103352220D01*
X118780693Y-103509996D01*
X118780693Y-103510003D01*
X118791537Y-103599313D01*
X118779892Y-103669348D01*
X118732232Y-103721969D01*
X118666456Y-103740500D01*
X89595500Y-103740500D01*
X89527379Y-103720498D01*
X89480886Y-103666842D01*
X89469500Y-103614500D01*
X89469500Y-97120756D01*
X89489502Y-97052635D01*
X89543158Y-97006142D01*
X89595652Y-96994756D01*
X98450290Y-97005749D01*
X99650822Y-97007239D01*
X99718917Y-97027326D01*
X99754360Y-97061662D01*
X99806499Y-97137198D01*
X99806500Y-97137199D01*
X99883807Y-97205688D01*
X99921532Y-97265833D01*
X99920752Y-97336825D01*
X99883807Y-97394312D01*
X99806501Y-97462800D01*
X99716215Y-97593601D01*
X99716212Y-97593607D01*
X99659849Y-97742220D01*
X99640693Y-97899996D01*
X99640693Y-97900003D01*
X99659849Y-98057779D01*
X99708447Y-98185919D01*
X99716213Y-98206395D01*
X99806502Y-98337201D01*
X99827370Y-98355689D01*
X99865095Y-98415832D01*
X99864315Y-98486825D01*
X99827370Y-98544310D01*
X99806503Y-98562798D01*
X99806501Y-98562800D01*
X99716215Y-98693601D01*
X99716212Y-98693607D01*
X99659849Y-98842220D01*
X99640693Y-98999996D01*
X99640693Y-99000003D01*
X99659849Y-99157779D01*
X99704518Y-99275558D01*
X99716213Y-99306395D01*
X99806502Y-99437201D01*
X99827370Y-99455689D01*
X99865095Y-99515832D01*
X99864315Y-99586825D01*
X99827370Y-99644310D01*
X99806503Y-99662798D01*
X99806501Y-99662800D01*
X99716215Y-99793601D01*
X99716212Y-99793607D01*
X99659849Y-99942220D01*
X99640693Y-100099996D01*
X99640693Y-100100003D01*
X99659849Y-100257779D01*
X99703109Y-100371842D01*
X99716213Y-100406395D01*
X99806502Y-100537201D01*
X99861232Y-100585688D01*
X99883807Y-100605688D01*
X99921532Y-100665833D01*
X99920752Y-100736825D01*
X99883807Y-100794312D01*
X99806501Y-100862800D01*
X99716215Y-100993601D01*
X99716212Y-100993607D01*
X99659849Y-101142220D01*
X99640693Y-101299996D01*
X99640693Y-101300003D01*
X99659849Y-101457779D01*
X99684815Y-101523607D01*
X99716213Y-101606395D01*
X99806502Y-101737201D01*
X99827370Y-101755689D01*
X99865095Y-101815832D01*
X99864315Y-101886825D01*
X99827370Y-101944310D01*
X99825892Y-101945621D01*
X99806501Y-101962800D01*
X99716215Y-102093601D01*
X99716212Y-102093607D01*
X99659849Y-102242220D01*
X99640693Y-102399996D01*
X99640693Y-102400003D01*
X99659849Y-102557779D01*
X99682605Y-102617779D01*
X99716213Y-102706395D01*
X99806502Y-102837201D01*
X99925471Y-102942599D01*
X99925472Y-102942599D01*
X99925474Y-102942601D01*
X99972727Y-102967401D01*
X100066207Y-103016463D01*
X100220529Y-103054500D01*
X100220530Y-103054500D01*
X100379470Y-103054500D01*
X100379471Y-103054500D01*
X100533793Y-103016463D01*
X100674529Y-102942599D01*
X100793498Y-102837201D01*
X100846304Y-102760697D01*
X100901462Y-102715998D01*
X100972031Y-102708215D01*
X101035605Y-102739820D01*
X101053694Y-102760696D01*
X101106502Y-102837201D01*
X101225471Y-102942599D01*
X101225472Y-102942599D01*
X101225474Y-102942601D01*
X101272727Y-102967401D01*
X101366207Y-103016463D01*
X101520529Y-103054500D01*
X101520530Y-103054500D01*
X101679470Y-103054500D01*
X101679471Y-103054500D01*
X101833793Y-103016463D01*
X101974529Y-102942599D01*
X102093498Y-102837201D01*
X102146304Y-102760697D01*
X102201462Y-102715998D01*
X102272031Y-102708215D01*
X102335605Y-102739820D01*
X102353694Y-102760696D01*
X102406502Y-102837201D01*
X102525471Y-102942599D01*
X102525472Y-102942599D01*
X102525474Y-102942601D01*
X102572727Y-102967401D01*
X102666207Y-103016463D01*
X102820529Y-103054500D01*
X102820530Y-103054500D01*
X102979470Y-103054500D01*
X102979471Y-103054500D01*
X103133793Y-103016463D01*
X103274529Y-102942599D01*
X103393498Y-102837201D01*
X103483787Y-102706395D01*
X103540149Y-102557782D01*
X103540149Y-102557781D01*
X103540150Y-102557779D01*
X103559307Y-102400003D01*
X103559307Y-102399996D01*
X103540150Y-102242220D01*
X103521207Y-102192273D01*
X103483787Y-102093605D01*
X103393498Y-101962799D01*
X103372630Y-101944311D01*
X103334905Y-101884170D01*
X103335684Y-101813177D01*
X103372630Y-101755688D01*
X103393498Y-101737201D01*
X103421305Y-101696915D01*
X103476461Y-101652217D01*
X103547030Y-101644433D01*
X103610604Y-101676037D01*
X103628691Y-101696910D01*
X103656502Y-101737201D01*
X103775471Y-101842599D01*
X103775472Y-101842599D01*
X103775474Y-101842601D01*
X103850200Y-101881820D01*
X103916207Y-101916463D01*
X104070529Y-101954500D01*
X104070530Y-101954500D01*
X104229470Y-101954500D01*
X104229471Y-101954500D01*
X104383793Y-101916463D01*
X104524529Y-101842599D01*
X104643498Y-101737201D01*
X104671305Y-101696915D01*
X104726461Y-101652217D01*
X104797030Y-101644433D01*
X104860604Y-101676037D01*
X104878691Y-101696910D01*
X104906502Y-101737201D01*
X105025471Y-101842599D01*
X105025472Y-101842599D01*
X105025474Y-101842601D01*
X105100200Y-101881820D01*
X105166207Y-101916463D01*
X105320529Y-101954500D01*
X105320530Y-101954500D01*
X105479470Y-101954500D01*
X105479471Y-101954500D01*
X105633793Y-101916463D01*
X105774529Y-101842599D01*
X105893498Y-101737201D01*
X105921305Y-101696915D01*
X105976461Y-101652217D01*
X106047030Y-101644433D01*
X106110604Y-101676037D01*
X106128691Y-101696910D01*
X106156502Y-101737201D01*
X106275471Y-101842599D01*
X106275472Y-101842599D01*
X106275474Y-101842601D01*
X106350200Y-101881820D01*
X106416207Y-101916463D01*
X106570529Y-101954500D01*
X106570530Y-101954500D01*
X106729470Y-101954500D01*
X106729471Y-101954500D01*
X106883793Y-101916463D01*
X107024529Y-101842599D01*
X107143498Y-101737201D01*
X107171305Y-101696915D01*
X107226461Y-101652217D01*
X107297030Y-101644433D01*
X107360604Y-101676037D01*
X107378691Y-101696910D01*
X107406502Y-101737201D01*
X107427370Y-101755689D01*
X107465095Y-101815832D01*
X107464315Y-101886825D01*
X107427370Y-101944310D01*
X107425892Y-101945621D01*
X107406501Y-101962800D01*
X107316215Y-102093601D01*
X107316212Y-102093607D01*
X107259849Y-102242220D01*
X107240693Y-102399996D01*
X107240693Y-102400003D01*
X107259849Y-102557779D01*
X107282605Y-102617779D01*
X107316213Y-102706395D01*
X107406502Y-102837201D01*
X107525471Y-102942599D01*
X107525472Y-102942599D01*
X107525474Y-102942601D01*
X107572727Y-102967401D01*
X107666207Y-103016463D01*
X107820529Y-103054500D01*
X107820530Y-103054500D01*
X107979470Y-103054500D01*
X107979471Y-103054500D01*
X108133793Y-103016463D01*
X108274529Y-102942599D01*
X108393498Y-102837201D01*
X108428207Y-102786915D01*
X108483364Y-102742217D01*
X108553932Y-102734434D01*
X108617507Y-102766038D01*
X108635597Y-102786916D01*
X108656499Y-102817198D01*
X108656501Y-102817200D01*
X108656502Y-102817201D01*
X108775471Y-102922599D01*
X108775472Y-102922599D01*
X108775474Y-102922601D01*
X108850200Y-102961820D01*
X108916207Y-102996463D01*
X109070529Y-103034500D01*
X109070530Y-103034500D01*
X109229470Y-103034500D01*
X109229471Y-103034500D01*
X109383793Y-102996463D01*
X109524529Y-102922599D01*
X109643498Y-102817201D01*
X109664401Y-102786916D01*
X109719558Y-102742217D01*
X109790127Y-102734434D01*
X109853701Y-102766038D01*
X109871791Y-102786914D01*
X109906502Y-102837201D01*
X110025471Y-102942599D01*
X110025472Y-102942599D01*
X110025474Y-102942601D01*
X110072727Y-102967401D01*
X110166207Y-103016463D01*
X110320529Y-103054500D01*
X110320530Y-103054500D01*
X110479470Y-103054500D01*
X110479471Y-103054500D01*
X110633793Y-103016463D01*
X110774529Y-102942599D01*
X110893498Y-102837201D01*
X110983787Y-102706395D01*
X111040149Y-102557782D01*
X111040149Y-102557781D01*
X111040150Y-102557779D01*
X111059307Y-102400003D01*
X111059307Y-102399996D01*
X111040150Y-102242220D01*
X111021207Y-102192273D01*
X110983787Y-102093605D01*
X110893498Y-101962799D01*
X110874109Y-101945621D01*
X118168899Y-101945621D01*
X118188055Y-102103397D01*
X118215732Y-102176372D01*
X118244419Y-102252013D01*
X118334708Y-102382819D01*
X118453677Y-102488217D01*
X118453678Y-102488217D01*
X118453680Y-102488219D01*
X118528406Y-102527438D01*
X118594413Y-102562081D01*
X118748735Y-102600118D01*
X118748736Y-102600118D01*
X118907676Y-102600118D01*
X118907677Y-102600118D01*
X119061999Y-102562081D01*
X119202735Y-102488217D01*
X119234582Y-102460003D01*
X121980693Y-102460003D01*
X121999849Y-102617779D01*
X122033458Y-102706395D01*
X122056213Y-102766395D01*
X122146502Y-102897201D01*
X122265471Y-103002599D01*
X122265472Y-103002599D01*
X122265474Y-103002601D01*
X122308526Y-103025196D01*
X122406207Y-103076463D01*
X122560529Y-103114500D01*
X122560530Y-103114500D01*
X122719470Y-103114500D01*
X122719471Y-103114500D01*
X122873793Y-103076463D01*
X123014529Y-103002599D01*
X123133498Y-102897201D01*
X123223787Y-102766395D01*
X123271723Y-102640000D01*
X126010312Y-102640000D01*
X126030958Y-102783596D01*
X126091223Y-102915558D01*
X126186225Y-103025196D01*
X126308268Y-103103629D01*
X126447464Y-103144500D01*
X126592536Y-103144500D01*
X126731732Y-103103629D01*
X126853775Y-103025196D01*
X126948777Y-102915558D01*
X127009042Y-102783596D01*
X127029688Y-102640000D01*
X127009042Y-102496404D01*
X126948777Y-102364442D01*
X126853775Y-102254804D01*
X126853774Y-102254803D01*
X126792753Y-102215587D01*
X126731732Y-102176371D01*
X126731731Y-102176370D01*
X126731730Y-102176370D01*
X126592536Y-102135500D01*
X126447464Y-102135500D01*
X126308269Y-102176370D01*
X126308266Y-102176372D01*
X126186225Y-102254803D01*
X126091223Y-102364441D01*
X126034697Y-102488217D01*
X126030958Y-102496404D01*
X126010312Y-102640000D01*
X123271723Y-102640000D01*
X123280149Y-102617782D01*
X123280149Y-102617781D01*
X123280150Y-102617779D01*
X123299307Y-102460003D01*
X123299307Y-102459996D01*
X123280150Y-102302220D01*
X123261110Y-102252016D01*
X123223787Y-102153605D01*
X123133498Y-102022799D01*
X123014529Y-101917401D01*
X123014528Y-101917400D01*
X123014525Y-101917398D01*
X122873797Y-101843539D01*
X122873795Y-101843538D01*
X122873793Y-101843537D01*
X122873791Y-101843536D01*
X122873790Y-101843536D01*
X122818885Y-101830003D01*
X123940693Y-101830003D01*
X123959849Y-101987779D01*
X124008447Y-102115919D01*
X124016213Y-102136395D01*
X124106502Y-102267201D01*
X124225471Y-102372599D01*
X124225472Y-102372599D01*
X124225474Y-102372601D01*
X124277679Y-102400000D01*
X124366207Y-102446463D01*
X124520529Y-102484500D01*
X124520530Y-102484500D01*
X124679470Y-102484500D01*
X124679471Y-102484500D01*
X124833793Y-102446463D01*
X124974529Y-102372599D01*
X125093498Y-102267201D01*
X125183787Y-102136395D01*
X125240149Y-101987782D01*
X125240149Y-101987781D01*
X125240150Y-101987779D01*
X125259307Y-101830003D01*
X125259307Y-101829996D01*
X125240150Y-101672220D01*
X125226538Y-101636331D01*
X125183787Y-101523605D01*
X125093498Y-101392799D01*
X124974529Y-101287401D01*
X124974528Y-101287400D01*
X124974525Y-101287398D01*
X124833797Y-101213539D01*
X124833795Y-101213538D01*
X124833793Y-101213537D01*
X124833791Y-101213536D01*
X124833790Y-101213536D01*
X124679472Y-101175500D01*
X124679471Y-101175500D01*
X124520529Y-101175500D01*
X124520527Y-101175500D01*
X124366209Y-101213536D01*
X124366202Y-101213539D01*
X124225474Y-101287398D01*
X124225469Y-101287402D01*
X124106501Y-101392800D01*
X124016215Y-101523601D01*
X124016212Y-101523607D01*
X123959849Y-101672220D01*
X123940693Y-101829996D01*
X123940693Y-101830003D01*
X122818885Y-101830003D01*
X122719472Y-101805500D01*
X122719471Y-101805500D01*
X122560529Y-101805500D01*
X122560527Y-101805500D01*
X122406209Y-101843536D01*
X122406202Y-101843539D01*
X122265474Y-101917398D01*
X122265469Y-101917402D01*
X122146501Y-102022800D01*
X122056215Y-102153601D01*
X122056212Y-102153607D01*
X121999849Y-102302220D01*
X121980693Y-102459996D01*
X121980693Y-102460003D01*
X119234582Y-102460003D01*
X119321704Y-102382819D01*
X119411993Y-102252013D01*
X119468355Y-102103400D01*
X119468355Y-102103399D01*
X119468356Y-102103397D01*
X119487513Y-101945621D01*
X119487513Y-101945614D01*
X119468356Y-101787838D01*
X119441566Y-101717201D01*
X119411993Y-101639223D01*
X119321704Y-101508417D01*
X119202735Y-101403019D01*
X119202734Y-101403018D01*
X119202731Y-101403016D01*
X119062003Y-101329157D01*
X119062001Y-101329156D01*
X119061999Y-101329155D01*
X119061997Y-101329154D01*
X119061996Y-101329154D01*
X118907678Y-101291118D01*
X118907677Y-101291118D01*
X118748735Y-101291118D01*
X118748733Y-101291118D01*
X118594415Y-101329154D01*
X118594408Y-101329157D01*
X118453680Y-101403016D01*
X118453675Y-101403020D01*
X118334707Y-101508418D01*
X118244421Y-101639219D01*
X118244418Y-101639225D01*
X118188055Y-101787838D01*
X118168899Y-101945614D01*
X118168899Y-101945621D01*
X110874109Y-101945621D01*
X110872630Y-101944311D01*
X110834905Y-101884170D01*
X110835684Y-101813177D01*
X110872630Y-101755688D01*
X110893498Y-101737201D01*
X110983787Y-101606395D01*
X111040149Y-101457782D01*
X111040149Y-101457781D01*
X111040150Y-101457779D01*
X111059307Y-101300003D01*
X111059307Y-101299996D01*
X111040150Y-101142220D01*
X111003539Y-101045687D01*
X110983787Y-100993605D01*
X110894070Y-100863627D01*
X110893499Y-100862800D01*
X110870923Y-100842799D01*
X110816191Y-100794310D01*
X110778467Y-100734168D01*
X110779247Y-100663175D01*
X110816191Y-100605689D01*
X110893498Y-100537201D01*
X110983787Y-100406395D01*
X110986212Y-100400000D01*
X116090312Y-100400000D01*
X116110958Y-100543596D01*
X116171223Y-100675558D01*
X116266225Y-100785196D01*
X116388268Y-100863629D01*
X116527464Y-100904500D01*
X116527465Y-100904500D01*
X116536385Y-100905783D01*
X116535987Y-100908546D01*
X116590327Y-100924502D01*
X116636820Y-100978158D01*
X116647287Y-101045687D01*
X116640693Y-101099996D01*
X116640693Y-101100003D01*
X116659849Y-101257779D01*
X116675862Y-101300000D01*
X116716213Y-101406395D01*
X116806502Y-101537201D01*
X116925471Y-101642599D01*
X116925472Y-101642599D01*
X116925474Y-101642601D01*
X116981905Y-101672218D01*
X117066207Y-101716463D01*
X117220529Y-101754500D01*
X117220530Y-101754500D01*
X117379470Y-101754500D01*
X117379471Y-101754500D01*
X117533793Y-101716463D01*
X117674529Y-101642599D01*
X117793498Y-101537201D01*
X117883787Y-101406395D01*
X117940149Y-101257782D01*
X117940149Y-101257781D01*
X117940150Y-101257779D01*
X117959307Y-101100003D01*
X117959307Y-101099996D01*
X117940150Y-100942220D01*
X117910029Y-100862799D01*
X117883787Y-100793605D01*
X117793498Y-100662799D01*
X117674529Y-100557401D01*
X117674528Y-100557400D01*
X117674525Y-100557398D01*
X117533797Y-100483539D01*
X117533795Y-100483538D01*
X117533793Y-100483537D01*
X117533791Y-100483536D01*
X117533790Y-100483536D01*
X117379472Y-100445500D01*
X117379471Y-100445500D01*
X117225410Y-100445500D01*
X117157289Y-100425498D01*
X117110796Y-100371842D01*
X117100693Y-100337432D01*
X117089043Y-100256410D01*
X117089042Y-100256409D01*
X117089042Y-100256404D01*
X117028777Y-100124442D01*
X117028775Y-100124440D01*
X117024717Y-100118125D01*
X117004712Y-100050005D01*
X117024712Y-99981883D01*
X117024717Y-99981875D01*
X117028775Y-99975560D01*
X117028777Y-99975558D01*
X117089042Y-99843596D01*
X117109688Y-99700000D01*
X117089042Y-99556404D01*
X117028777Y-99424442D01*
X117028775Y-99424440D01*
X117024717Y-99418125D01*
X117004712Y-99350005D01*
X117024712Y-99281883D01*
X117024717Y-99281875D01*
X117028775Y-99275560D01*
X117028777Y-99275558D01*
X117089042Y-99143596D01*
X117109688Y-99000000D01*
X117089042Y-98856404D01*
X117028777Y-98724442D01*
X116933775Y-98614804D01*
X116933774Y-98614803D01*
X116852853Y-98562798D01*
X116811732Y-98536371D01*
X116811731Y-98536370D01*
X116811730Y-98536370D01*
X116672536Y-98495500D01*
X116527464Y-98495500D01*
X116388269Y-98536370D01*
X116388266Y-98536372D01*
X116266225Y-98614803D01*
X116171223Y-98724441D01*
X116117436Y-98842220D01*
X116110958Y-98856404D01*
X116090312Y-99000000D01*
X116110958Y-99143596D01*
X116131111Y-99187726D01*
X116171224Y-99275560D01*
X116175286Y-99281881D01*
X116195287Y-99350002D01*
X116175286Y-99418119D01*
X116171224Y-99424439D01*
X116110958Y-99556403D01*
X116090312Y-99700000D01*
X116110958Y-99843596D01*
X116171224Y-99975560D01*
X116175286Y-99981881D01*
X116195287Y-100050002D01*
X116175286Y-100118119D01*
X116171224Y-100124439D01*
X116110958Y-100256403D01*
X116092268Y-100386395D01*
X116090312Y-100400000D01*
X110986212Y-100400000D01*
X111040149Y-100257782D01*
X111040149Y-100257781D01*
X111040150Y-100257779D01*
X111059307Y-100100003D01*
X111059307Y-100099996D01*
X111040150Y-99942220D01*
X111002746Y-99843596D01*
X110983787Y-99793605D01*
X110893498Y-99662799D01*
X110872630Y-99644311D01*
X110834905Y-99584170D01*
X110835684Y-99513177D01*
X110872630Y-99455688D01*
X110893498Y-99437201D01*
X110983787Y-99306395D01*
X111040149Y-99157782D01*
X111040149Y-99157781D01*
X111040150Y-99157779D01*
X111059307Y-99000003D01*
X111059307Y-98999996D01*
X111040150Y-98842220D01*
X111021207Y-98792273D01*
X110983787Y-98693605D01*
X110893498Y-98562799D01*
X110872630Y-98544311D01*
X110834905Y-98484170D01*
X110835684Y-98413177D01*
X110872630Y-98355688D01*
X110893498Y-98337201D01*
X110983787Y-98206395D01*
X111040149Y-98057782D01*
X111040149Y-98057781D01*
X111040150Y-98057779D01*
X111059307Y-97900003D01*
X111059307Y-97899996D01*
X111040150Y-97742220D01*
X111021207Y-97692273D01*
X110983787Y-97593605D01*
X110913136Y-97491249D01*
X110893499Y-97462800D01*
X110870923Y-97442799D01*
X110816191Y-97394310D01*
X110778467Y-97334168D01*
X110779247Y-97263175D01*
X110816191Y-97205689D01*
X110893498Y-97137201D01*
X110919174Y-97100003D01*
X115040693Y-97100003D01*
X115059849Y-97257779D01*
X115090211Y-97337835D01*
X115116213Y-97406395D01*
X115206502Y-97537201D01*
X115325471Y-97642599D01*
X115325472Y-97642599D01*
X115325474Y-97642601D01*
X115400200Y-97681820D01*
X115466207Y-97716463D01*
X115620529Y-97754500D01*
X115620530Y-97754500D01*
X115779470Y-97754500D01*
X115779471Y-97754500D01*
X115933793Y-97716463D01*
X116074529Y-97642599D01*
X116193498Y-97537201D01*
X116283787Y-97406395D01*
X116340149Y-97257782D01*
X116340149Y-97257781D01*
X116340150Y-97257779D01*
X116359307Y-97100003D01*
X116359307Y-97099996D01*
X116340150Y-96942220D01*
X116289397Y-96808398D01*
X116283787Y-96793605D01*
X116193498Y-96662799D01*
X116074529Y-96557401D01*
X116074528Y-96557400D01*
X116074525Y-96557398D01*
X115933797Y-96483539D01*
X115933795Y-96483538D01*
X115933793Y-96483537D01*
X115933791Y-96483536D01*
X115933790Y-96483536D01*
X115779472Y-96445500D01*
X115779471Y-96445500D01*
X115620529Y-96445500D01*
X115620527Y-96445500D01*
X115466209Y-96483536D01*
X115466202Y-96483539D01*
X115325474Y-96557398D01*
X115325469Y-96557402D01*
X115206501Y-96662800D01*
X115116215Y-96793601D01*
X115116212Y-96793607D01*
X115059849Y-96942220D01*
X115040693Y-97099996D01*
X115040693Y-97100003D01*
X110919174Y-97100003D01*
X110983787Y-97006395D01*
X111040149Y-96857782D01*
X111040149Y-96857781D01*
X111040150Y-96857779D01*
X111059307Y-96700003D01*
X111059307Y-96699996D01*
X111040150Y-96542220D01*
X111017894Y-96483537D01*
X110983787Y-96393605D01*
X110893498Y-96262799D01*
X110872630Y-96244311D01*
X110834905Y-96184170D01*
X110835684Y-96113177D01*
X110872630Y-96055688D01*
X110893498Y-96037201D01*
X110983787Y-95906395D01*
X111040149Y-95757782D01*
X111040149Y-95757781D01*
X111040150Y-95757779D01*
X111059307Y-95600003D01*
X111059307Y-95599996D01*
X111040150Y-95442220D01*
X110996163Y-95326238D01*
X110983787Y-95293605D01*
X110893498Y-95162799D01*
X110774529Y-95057401D01*
X110774528Y-95057400D01*
X110774525Y-95057398D01*
X110743511Y-95041121D01*
X124059500Y-95041121D01*
X124093728Y-95301108D01*
X124093729Y-95301114D01*
X124093730Y-95301116D01*
X124161602Y-95554419D01*
X124261957Y-95796697D01*
X124261958Y-95796698D01*
X124261963Y-95796709D01*
X124393073Y-96023799D01*
X124393077Y-96023805D01*
X124552710Y-96231842D01*
X124552729Y-96231863D01*
X124738136Y-96417270D01*
X124738157Y-96417289D01*
X124946194Y-96576922D01*
X124946200Y-96576926D01*
X125173290Y-96708036D01*
X125173294Y-96708037D01*
X125173303Y-96708043D01*
X125415581Y-96808398D01*
X125668884Y-96876270D01*
X125668890Y-96876270D01*
X125668891Y-96876271D01*
X125693900Y-96879563D01*
X125928880Y-96910500D01*
X125928887Y-96910500D01*
X126191113Y-96910500D01*
X126191120Y-96910500D01*
X126451116Y-96876270D01*
X126704419Y-96808398D01*
X126946697Y-96708043D01*
X127173803Y-96576924D01*
X127381851Y-96417282D01*
X127567282Y-96231851D01*
X127726924Y-96023803D01*
X127858043Y-95796697D01*
X127958398Y-95554419D01*
X128026270Y-95301116D01*
X128060500Y-95041120D01*
X128060500Y-94778880D01*
X128026270Y-94518884D01*
X127958398Y-94265581D01*
X127858043Y-94023303D01*
X127858037Y-94023294D01*
X127858036Y-94023290D01*
X127726926Y-93796200D01*
X127726922Y-93796194D01*
X127567289Y-93588157D01*
X127567270Y-93588136D01*
X127381863Y-93402729D01*
X127381842Y-93402710D01*
X127173805Y-93243077D01*
X127173799Y-93243073D01*
X126946709Y-93111963D01*
X126946701Y-93111959D01*
X126946697Y-93111957D01*
X126704419Y-93011602D01*
X126451116Y-92943730D01*
X126451114Y-92943729D01*
X126451108Y-92943728D01*
X126191121Y-92909500D01*
X126191120Y-92909500D01*
X125928880Y-92909500D01*
X125928878Y-92909500D01*
X125668891Y-92943728D01*
X125415581Y-93011602D01*
X125173301Y-93111958D01*
X125173290Y-93111963D01*
X124946200Y-93243073D01*
X124946194Y-93243077D01*
X124738157Y-93402710D01*
X124738136Y-93402729D01*
X124552729Y-93588136D01*
X124552710Y-93588157D01*
X124393077Y-93796194D01*
X124393073Y-93796200D01*
X124261963Y-94023290D01*
X124261958Y-94023301D01*
X124261957Y-94023303D01*
X124161602Y-94265581D01*
X124093728Y-94518891D01*
X124059500Y-94778878D01*
X124059500Y-95041121D01*
X110743511Y-95041121D01*
X110633797Y-94983539D01*
X110633795Y-94983538D01*
X110633793Y-94983537D01*
X110633791Y-94983536D01*
X110633790Y-94983536D01*
X110479472Y-94945500D01*
X110479471Y-94945500D01*
X110320529Y-94945500D01*
X110320527Y-94945500D01*
X110166209Y-94983536D01*
X110166204Y-94983538D01*
X110129620Y-95002739D01*
X110060007Y-95016685D01*
X109993905Y-94990781D01*
X109952301Y-94933251D01*
X109945069Y-94890284D01*
X110018945Y-84450000D01*
X127260726Y-84450000D01*
X127279763Y-84618954D01*
X127279764Y-84618956D01*
X127335918Y-84779437D01*
X127335919Y-84779439D01*
X127426375Y-84923399D01*
X127426377Y-84923402D01*
X127546597Y-85043622D01*
X127546600Y-85043624D01*
X127690563Y-85134082D01*
X127851046Y-85190237D01*
X128020000Y-85209274D01*
X128188954Y-85190237D01*
X128349437Y-85134082D01*
X128493400Y-85043624D01*
X128613624Y-84923400D01*
X128704082Y-84779437D01*
X128760237Y-84618954D01*
X128779274Y-84450000D01*
X128760237Y-84281046D01*
X128704082Y-84120563D01*
X128613624Y-83976600D01*
X128613622Y-83976597D01*
X128493402Y-83856377D01*
X128493399Y-83856375D01*
X128349439Y-83765919D01*
X128349437Y-83765918D01*
X128188954Y-83709763D01*
X128020000Y-83690726D01*
X127851046Y-83709763D01*
X127851043Y-83709763D01*
X127851043Y-83709764D01*
X127690562Y-83765918D01*
X127690560Y-83765919D01*
X127546600Y-83856375D01*
X127546597Y-83856377D01*
X127426377Y-83976597D01*
X127426375Y-83976600D01*
X127335919Y-84120560D01*
X127335918Y-84120562D01*
X127335918Y-84120563D01*
X127279763Y-84281046D01*
X127260726Y-84450000D01*
X110018945Y-84450000D01*
X110057509Y-79000000D01*
X120290312Y-79000000D01*
X120310958Y-79143596D01*
X120371223Y-79275558D01*
X120466225Y-79385196D01*
X120588268Y-79463629D01*
X120727464Y-79504500D01*
X120872536Y-79504500D01*
X121011732Y-79463629D01*
X121133775Y-79385196D01*
X121228777Y-79275558D01*
X121289042Y-79143596D01*
X121309688Y-79000000D01*
X121289042Y-78856404D01*
X121228777Y-78724442D01*
X121192444Y-78682512D01*
X121162952Y-78617932D01*
X121173055Y-78547658D01*
X121192445Y-78517487D01*
X121228777Y-78475558D01*
X121289042Y-78343596D01*
X121309688Y-78200000D01*
X121289042Y-78056404D01*
X121228777Y-77924442D01*
X121133775Y-77814804D01*
X121133774Y-77814803D01*
X121072753Y-77775587D01*
X121011732Y-77736371D01*
X121011731Y-77736370D01*
X121011730Y-77736370D01*
X120872536Y-77695500D01*
X120727464Y-77695500D01*
X120588269Y-77736370D01*
X120588266Y-77736372D01*
X120466225Y-77814803D01*
X120371223Y-77924441D01*
X120310958Y-78056403D01*
X120290312Y-78200000D01*
X120310958Y-78343596D01*
X120371223Y-78475558D01*
X120407555Y-78517488D01*
X120437048Y-78582069D01*
X120426943Y-78652343D01*
X120407555Y-78682512D01*
X120371223Y-78724441D01*
X120371223Y-78724442D01*
X120310958Y-78856404D01*
X120290312Y-79000000D01*
X110057509Y-79000000D01*
X110082275Y-75500000D01*
X119740726Y-75500000D01*
X119759763Y-75668954D01*
X119759764Y-75668956D01*
X119815918Y-75829437D01*
X119815919Y-75829439D01*
X119906375Y-75973399D01*
X119906377Y-75973402D01*
X120026597Y-76093622D01*
X120026600Y-76093624D01*
X120170563Y-76184082D01*
X120331046Y-76240237D01*
X120500000Y-76259274D01*
X120668954Y-76240237D01*
X120829437Y-76184082D01*
X120973400Y-76093624D01*
X121093624Y-75973400D01*
X121184082Y-75829437D01*
X121240237Y-75668954D01*
X121259274Y-75500000D01*
X121240237Y-75331046D01*
X121184082Y-75170563D01*
X121093624Y-75026600D01*
X121093622Y-75026597D01*
X120973402Y-74906377D01*
X120967868Y-74901964D01*
X120968745Y-74900863D01*
X120926860Y-74853514D01*
X120916036Y-74783347D01*
X120944866Y-74718468D01*
X120968104Y-74698332D01*
X120967868Y-74698036D01*
X120973397Y-74693625D01*
X120973400Y-74693624D01*
X121093624Y-74573400D01*
X121184082Y-74429437D01*
X121240237Y-74268954D01*
X121259274Y-74100000D01*
X121240237Y-73931046D01*
X121184082Y-73770563D01*
X121093624Y-73626600D01*
X121093622Y-73626597D01*
X120973402Y-73506377D01*
X120967868Y-73501964D01*
X120968745Y-73500863D01*
X120926860Y-73453514D01*
X120916036Y-73383347D01*
X120944866Y-73318468D01*
X120968104Y-73298332D01*
X120967868Y-73298036D01*
X120973397Y-73293625D01*
X120973400Y-73293624D01*
X121093624Y-73173400D01*
X121184082Y-73029437D01*
X121240237Y-72868954D01*
X121259274Y-72700000D01*
X121240237Y-72531046D01*
X121184082Y-72370563D01*
X121093624Y-72226600D01*
X121093622Y-72226597D01*
X120973402Y-72106377D01*
X120973399Y-72106375D01*
X120829439Y-72015919D01*
X120829437Y-72015918D01*
X120668954Y-71959763D01*
X120500000Y-71940726D01*
X120331046Y-71959763D01*
X120331043Y-71959763D01*
X120331043Y-71959764D01*
X120170562Y-72015918D01*
X120170560Y-72015919D01*
X120026600Y-72106375D01*
X120026597Y-72106377D01*
X119906377Y-72226597D01*
X119906375Y-72226600D01*
X119815919Y-72370560D01*
X119815918Y-72370562D01*
X119815918Y-72370563D01*
X119759763Y-72531046D01*
X119740726Y-72700000D01*
X119759763Y-72868954D01*
X119759764Y-72868956D01*
X119815918Y-73029437D01*
X119815919Y-73029439D01*
X119906375Y-73173399D01*
X119906377Y-73173402D01*
X120026597Y-73293622D01*
X120032132Y-73298036D01*
X120031255Y-73299134D01*
X120073144Y-73346495D01*
X120083961Y-73416663D01*
X120055126Y-73481540D01*
X120031896Y-73501668D01*
X120032132Y-73501964D01*
X120026597Y-73506377D01*
X119906377Y-73626597D01*
X119906375Y-73626600D01*
X119815919Y-73770560D01*
X119815918Y-73770562D01*
X119815918Y-73770563D01*
X119759763Y-73931046D01*
X119740726Y-74100000D01*
X119759763Y-74268954D01*
X119786864Y-74346404D01*
X119815918Y-74429437D01*
X119815919Y-74429439D01*
X119906375Y-74573399D01*
X119906377Y-74573402D01*
X120026597Y-74693622D01*
X120032132Y-74698036D01*
X120031255Y-74699134D01*
X120073144Y-74746495D01*
X120083961Y-74816663D01*
X120055126Y-74881540D01*
X120031896Y-74901668D01*
X120032132Y-74901964D01*
X120026597Y-74906377D01*
X119906377Y-75026597D01*
X119906375Y-75026600D01*
X119815919Y-75170560D01*
X119815918Y-75170562D01*
X119815918Y-75170563D01*
X119759763Y-75331046D01*
X119740726Y-75500000D01*
X110082275Y-75500000D01*
X110124661Y-69510000D01*
X120340312Y-69510000D01*
X120360958Y-69653596D01*
X120421223Y-69785558D01*
X120516225Y-69895196D01*
X120638268Y-69973629D01*
X120777464Y-70014500D01*
X120844075Y-70014500D01*
X120912196Y-70034502D01*
X120958689Y-70088158D01*
X120968792Y-70158429D01*
X120967129Y-70170000D01*
X120987775Y-70313596D01*
X121048040Y-70445558D01*
X121143042Y-70555196D01*
X121265085Y-70633629D01*
X121404281Y-70674500D01*
X121479341Y-70674500D01*
X121547462Y-70694502D01*
X121593955Y-70748158D01*
X121604058Y-70818430D01*
X121591612Y-70905000D01*
X121612258Y-71048596D01*
X121672523Y-71180558D01*
X121767525Y-71290196D01*
X121889568Y-71368629D01*
X122028764Y-71409500D01*
X122173836Y-71409500D01*
X122313032Y-71368629D01*
X122435075Y-71290196D01*
X122530077Y-71180558D01*
X122590342Y-71048596D01*
X122610988Y-70905000D01*
X122590342Y-70761404D01*
X122530077Y-70629442D01*
X122435075Y-70519804D01*
X122435074Y-70519803D01*
X122319547Y-70445558D01*
X122313032Y-70441371D01*
X122313031Y-70441370D01*
X122313030Y-70441370D01*
X122173836Y-70400500D01*
X122098776Y-70400500D01*
X122030655Y-70380498D01*
X121984162Y-70326842D01*
X121974058Y-70256568D01*
X121986505Y-70170000D01*
X121965859Y-70026404D01*
X121905594Y-69894442D01*
X121810592Y-69784804D01*
X121810591Y-69784803D01*
X121689840Y-69707201D01*
X121688549Y-69706371D01*
X121688548Y-69706370D01*
X121688547Y-69706370D01*
X121549353Y-69665500D01*
X121482742Y-69665500D01*
X121414621Y-69645498D01*
X121368128Y-69591842D01*
X121358024Y-69521570D01*
X121359688Y-69510000D01*
X121339042Y-69366404D01*
X121278777Y-69234442D01*
X121183775Y-69124804D01*
X121183774Y-69124803D01*
X121122753Y-69085587D01*
X121061732Y-69046371D01*
X121061731Y-69046370D01*
X121061730Y-69046370D01*
X120922536Y-69005500D01*
X120777464Y-69005500D01*
X120638269Y-69046370D01*
X120638266Y-69046372D01*
X120516225Y-69124803D01*
X120421223Y-69234441D01*
X120421223Y-69234442D01*
X120360958Y-69366404D01*
X120340312Y-69510000D01*
X110124661Y-69510000D01*
X110142807Y-66945600D01*
X120734712Y-66945600D01*
X120755358Y-67089196D01*
X120815623Y-67221158D01*
X120910625Y-67330796D01*
X121032668Y-67409229D01*
X121171864Y-67450100D01*
X121316936Y-67450100D01*
X121456132Y-67409229D01*
X121578175Y-67330796D01*
X121673177Y-67221158D01*
X121733442Y-67089196D01*
X121754088Y-66945600D01*
X121733442Y-66802004D01*
X121673177Y-66670042D01*
X121578175Y-66560404D01*
X121578174Y-66560403D01*
X121457106Y-66482597D01*
X121456132Y-66481971D01*
X121456131Y-66481970D01*
X121456130Y-66481970D01*
X121316936Y-66441100D01*
X121171864Y-66441100D01*
X121032669Y-66481970D01*
X121032666Y-66481972D01*
X120910625Y-66560403D01*
X120815623Y-66670041D01*
X120770495Y-66768859D01*
X120755358Y-66802004D01*
X120734712Y-66945600D01*
X110142807Y-66945600D01*
X110149923Y-65940003D01*
X124940693Y-65940003D01*
X124959849Y-66097779D01*
X124969188Y-66122402D01*
X125016213Y-66246395D01*
X125106502Y-66377201D01*
X125225471Y-66482599D01*
X125225472Y-66482599D01*
X125225474Y-66482601D01*
X125300200Y-66521820D01*
X125366207Y-66556463D01*
X125520529Y-66594500D01*
X125520530Y-66594500D01*
X125679470Y-66594500D01*
X125679471Y-66594500D01*
X125833793Y-66556463D01*
X125974529Y-66482599D01*
X126093498Y-66377201D01*
X126183787Y-66246395D01*
X126240149Y-66097782D01*
X126240149Y-66097781D01*
X126240150Y-66097779D01*
X126259307Y-65940003D01*
X126259307Y-65939996D01*
X126240150Y-65782220D01*
X126204818Y-65689059D01*
X126183787Y-65633605D01*
X126093498Y-65502799D01*
X125974529Y-65397401D01*
X125974528Y-65397400D01*
X125974525Y-65397398D01*
X125833797Y-65323539D01*
X125833795Y-65323538D01*
X125833793Y-65323537D01*
X125833791Y-65323536D01*
X125833790Y-65323536D01*
X125679472Y-65285500D01*
X125679471Y-65285500D01*
X125520529Y-65285500D01*
X125520527Y-65285500D01*
X125366209Y-65323536D01*
X125366202Y-65323539D01*
X125225474Y-65397398D01*
X125225469Y-65397402D01*
X125106501Y-65502800D01*
X125016215Y-65633601D01*
X125016212Y-65633607D01*
X124959849Y-65782220D01*
X124940693Y-65939996D01*
X124940693Y-65940003D01*
X110149923Y-65940003D01*
X110180201Y-61660931D01*
X110189788Y-61613615D01*
X110222959Y-61533533D01*
X110245893Y-61478168D01*
X110245894Y-61478163D01*
X110245897Y-61478157D01*
X110284500Y-61284090D01*
X110284500Y-61250003D01*
X111852693Y-61250003D01*
X111871849Y-61407779D01*
X111928212Y-61556392D01*
X111928215Y-61556398D01*
X111942371Y-61576906D01*
X112018502Y-61687201D01*
X112137471Y-61792599D01*
X112137472Y-61792599D01*
X112137474Y-61792601D01*
X112200132Y-61825486D01*
X112278207Y-61866463D01*
X112432529Y-61904500D01*
X112432530Y-61904500D01*
X112591470Y-61904500D01*
X112591471Y-61904500D01*
X112745793Y-61866463D01*
X112886529Y-61792599D01*
X113005498Y-61687201D01*
X113095787Y-61556395D01*
X113152149Y-61407782D01*
X113152149Y-61407781D01*
X113152150Y-61407779D01*
X113167058Y-61285000D01*
X122595312Y-61285000D01*
X122615958Y-61428596D01*
X122676223Y-61560558D01*
X122771225Y-61670196D01*
X122893268Y-61748629D01*
X123032464Y-61789500D01*
X123177536Y-61789500D01*
X123316732Y-61748629D01*
X123438775Y-61670196D01*
X123533777Y-61560558D01*
X123594042Y-61428596D01*
X123614688Y-61285000D01*
X123594042Y-61141404D01*
X123533777Y-61009442D01*
X123438775Y-60899804D01*
X123438774Y-60899803D01*
X123377753Y-60860587D01*
X123316732Y-60821371D01*
X123316731Y-60821370D01*
X123316730Y-60821370D01*
X123177536Y-60780500D01*
X123032464Y-60780500D01*
X122893269Y-60821370D01*
X122893266Y-60821372D01*
X122771225Y-60899803D01*
X122676223Y-61009441D01*
X122638420Y-61092220D01*
X122615958Y-61141404D01*
X122595312Y-61285000D01*
X113167058Y-61285000D01*
X113171307Y-61250003D01*
X113171307Y-61249996D01*
X113152150Y-61092220D01*
X113120756Y-61009442D01*
X113095787Y-60943605D01*
X113005498Y-60812799D01*
X112886529Y-60707401D01*
X112886528Y-60707400D01*
X112886525Y-60707398D01*
X112745797Y-60633539D01*
X112745795Y-60633538D01*
X112745793Y-60633537D01*
X112745791Y-60633536D01*
X112745790Y-60633536D01*
X112591472Y-60595500D01*
X112591471Y-60595500D01*
X112432529Y-60595500D01*
X112432527Y-60595500D01*
X112278209Y-60633536D01*
X112278202Y-60633539D01*
X112137474Y-60707398D01*
X112137469Y-60707402D01*
X112018501Y-60812800D01*
X111928215Y-60943601D01*
X111928212Y-60943607D01*
X111871849Y-61092220D01*
X111852693Y-61249996D01*
X111852693Y-61250003D01*
X110284500Y-61250003D01*
X110284500Y-61086220D01*
X110245897Y-60892153D01*
X110196420Y-60772706D01*
X110186834Y-60723603D01*
X110193865Y-59730000D01*
X122530312Y-59730000D01*
X122550958Y-59873596D01*
X122611223Y-60005558D01*
X122706225Y-60115196D01*
X122828268Y-60193629D01*
X122967464Y-60234500D01*
X123112536Y-60234500D01*
X123251732Y-60193629D01*
X123373775Y-60115196D01*
X123468777Y-60005558D01*
X123529042Y-59873596D01*
X123549688Y-59730000D01*
X123529042Y-59586404D01*
X123468777Y-59454442D01*
X123373775Y-59344804D01*
X123373774Y-59344803D01*
X123312753Y-59305587D01*
X123251732Y-59266371D01*
X123251731Y-59266370D01*
X123251730Y-59266370D01*
X123112536Y-59225500D01*
X122967464Y-59225500D01*
X122828269Y-59266370D01*
X122828266Y-59266372D01*
X122706225Y-59344803D01*
X122611223Y-59454441D01*
X122594163Y-59491799D01*
X122550958Y-59586404D01*
X122530312Y-59730000D01*
X110193865Y-59730000D01*
X110200308Y-58819460D01*
X124844200Y-58819460D01*
X124861204Y-58904944D01*
X124872860Y-58963542D01*
X124929080Y-59099269D01*
X124983615Y-59180887D01*
X125010698Y-59221419D01*
X125010703Y-59221425D01*
X125114574Y-59325296D01*
X125114580Y-59325301D01*
X125236731Y-59406920D01*
X125372458Y-59463140D01*
X125496521Y-59487817D01*
X125516539Y-59491799D01*
X125516542Y-59491799D01*
X125516545Y-59491800D01*
X125516546Y-59491800D01*
X125663454Y-59491800D01*
X125663455Y-59491800D01*
X125807542Y-59463140D01*
X125943269Y-59406920D01*
X126065420Y-59325301D01*
X126169301Y-59221420D01*
X126250920Y-59099269D01*
X126307140Y-58963542D01*
X126335800Y-58819455D01*
X126335800Y-58672545D01*
X126333162Y-58659285D01*
X126331817Y-58652521D01*
X126307140Y-58528458D01*
X126250920Y-58392731D01*
X126169301Y-58270580D01*
X126169296Y-58270574D01*
X126065425Y-58166703D01*
X126065419Y-58166698D01*
X125989276Y-58115821D01*
X125943269Y-58085080D01*
X125807542Y-58028860D01*
X125751285Y-58017670D01*
X125663460Y-58000200D01*
X125663455Y-58000200D01*
X125516545Y-58000200D01*
X125516539Y-58000200D01*
X125393041Y-58024765D01*
X125372458Y-58028860D01*
X125372455Y-58028860D01*
X125372452Y-58028862D01*
X125236731Y-58085080D01*
X125114580Y-58166698D01*
X125114574Y-58166703D01*
X125010703Y-58270574D01*
X125010698Y-58270580D01*
X124929080Y-58392731D01*
X124872862Y-58528452D01*
X124872860Y-58528459D01*
X124844200Y-58672539D01*
X124844200Y-58819460D01*
X110200308Y-58819460D01*
X110207497Y-57803460D01*
X129924200Y-57803460D01*
X129944671Y-57906374D01*
X129952860Y-57947542D01*
X130009080Y-58083269D01*
X130030831Y-58115821D01*
X130090698Y-58205419D01*
X130090703Y-58205425D01*
X130194574Y-58309296D01*
X130194580Y-58309301D01*
X130316731Y-58390920D01*
X130452458Y-58447140D01*
X130576521Y-58471817D01*
X130596539Y-58475799D01*
X130596542Y-58475799D01*
X130596545Y-58475800D01*
X130596546Y-58475800D01*
X130743454Y-58475800D01*
X130743455Y-58475800D01*
X130887542Y-58447140D01*
X131023269Y-58390920D01*
X131145420Y-58309301D01*
X131249301Y-58205420D01*
X131330920Y-58083269D01*
X131387140Y-57947542D01*
X131415800Y-57803455D01*
X131415800Y-57656545D01*
X131387140Y-57512458D01*
X131330920Y-57376731D01*
X131249301Y-57254580D01*
X131249296Y-57254574D01*
X131145425Y-57150703D01*
X131145419Y-57150698D01*
X131104887Y-57123615D01*
X131023269Y-57069080D01*
X130887542Y-57012860D01*
X130846374Y-57004671D01*
X130743460Y-56984200D01*
X130743455Y-56984200D01*
X130596545Y-56984200D01*
X130596539Y-56984200D01*
X130473041Y-57008765D01*
X130452458Y-57012860D01*
X130452455Y-57012860D01*
X130452452Y-57012862D01*
X130316731Y-57069080D01*
X130194580Y-57150698D01*
X130194574Y-57150703D01*
X130090703Y-57254574D01*
X130090698Y-57254580D01*
X130009080Y-57376731D01*
X129952862Y-57512452D01*
X129952860Y-57512459D01*
X129924200Y-57656539D01*
X129924200Y-57803460D01*
X110207497Y-57803460D01*
X110214686Y-56787460D01*
X124844200Y-56787460D01*
X124855668Y-56845112D01*
X124872860Y-56931542D01*
X124929080Y-57067269D01*
X124983615Y-57148887D01*
X125010698Y-57189419D01*
X125010703Y-57189425D01*
X125114574Y-57293296D01*
X125114580Y-57293301D01*
X125236731Y-57374920D01*
X125372458Y-57431140D01*
X125496521Y-57455817D01*
X125516539Y-57459799D01*
X125516542Y-57459799D01*
X125516545Y-57459800D01*
X125516546Y-57459800D01*
X125663454Y-57459800D01*
X125663455Y-57459800D01*
X125807542Y-57431140D01*
X125943269Y-57374920D01*
X126065420Y-57293301D01*
X126169301Y-57189420D01*
X126250920Y-57067269D01*
X126307140Y-56931542D01*
X126335800Y-56787455D01*
X126335800Y-56640545D01*
X126334219Y-56632599D01*
X126331817Y-56620521D01*
X126307140Y-56496458D01*
X126250920Y-56360731D01*
X126169301Y-56238580D01*
X126169296Y-56238574D01*
X126065425Y-56134703D01*
X126065419Y-56134698D01*
X125998527Y-56090003D01*
X127470693Y-56090003D01*
X127489849Y-56247779D01*
X127493417Y-56257186D01*
X127546213Y-56396395D01*
X127636502Y-56527201D01*
X127755471Y-56632599D01*
X127755472Y-56632599D01*
X127755474Y-56632601D01*
X127830200Y-56671820D01*
X127896207Y-56706463D01*
X128050529Y-56744500D01*
X128050530Y-56744500D01*
X128209470Y-56744500D01*
X128209471Y-56744500D01*
X128363793Y-56706463D01*
X128504529Y-56632599D01*
X128623498Y-56527201D01*
X128713787Y-56396395D01*
X128770149Y-56247782D01*
X128770149Y-56247781D01*
X128770150Y-56247779D01*
X128789307Y-56090003D01*
X128789307Y-56089996D01*
X128770150Y-55932220D01*
X128756538Y-55896331D01*
X128713787Y-55783605D01*
X128623498Y-55652799D01*
X128504529Y-55547401D01*
X128504528Y-55547400D01*
X128504525Y-55547398D01*
X128363797Y-55473539D01*
X128363795Y-55473538D01*
X128363793Y-55473537D01*
X128363791Y-55473536D01*
X128363790Y-55473536D01*
X128209472Y-55435500D01*
X128209471Y-55435500D01*
X128050529Y-55435500D01*
X128050527Y-55435500D01*
X127896209Y-55473536D01*
X127896202Y-55473539D01*
X127755474Y-55547398D01*
X127755469Y-55547402D01*
X127636501Y-55652800D01*
X127546215Y-55783601D01*
X127546212Y-55783607D01*
X127489849Y-55932220D01*
X127470693Y-56089996D01*
X127470693Y-56090003D01*
X125998527Y-56090003D01*
X125998517Y-56089996D01*
X125943269Y-56053080D01*
X125807542Y-55996860D01*
X125766374Y-55988671D01*
X125663460Y-55968200D01*
X125663455Y-55968200D01*
X125516545Y-55968200D01*
X125516539Y-55968200D01*
X125393041Y-55992765D01*
X125372458Y-55996860D01*
X125372455Y-55996860D01*
X125372452Y-55996862D01*
X125236731Y-56053080D01*
X125114580Y-56134698D01*
X125114574Y-56134703D01*
X125010703Y-56238574D01*
X125010698Y-56238580D01*
X124929080Y-56360731D01*
X124872862Y-56496452D01*
X124872860Y-56496459D01*
X124844200Y-56640539D01*
X124844200Y-56787460D01*
X110214686Y-56787460D01*
X110226626Y-55100000D01*
X124320312Y-55100000D01*
X124340958Y-55243596D01*
X124401223Y-55375558D01*
X124496225Y-55485196D01*
X124618268Y-55563629D01*
X124757464Y-55604500D01*
X124902536Y-55604500D01*
X125041732Y-55563629D01*
X125163775Y-55485196D01*
X125258777Y-55375558D01*
X125319042Y-55243596D01*
X125339688Y-55100000D01*
X125319042Y-54956404D01*
X125258777Y-54824442D01*
X125163775Y-54714804D01*
X125163774Y-54714803D01*
X125102753Y-54675587D01*
X125041732Y-54636371D01*
X125041731Y-54636370D01*
X125041730Y-54636370D01*
X124902536Y-54595500D01*
X124757464Y-54595500D01*
X124618269Y-54636370D01*
X124618266Y-54636372D01*
X124496225Y-54714803D01*
X124401223Y-54824441D01*
X124342506Y-54953015D01*
X124340958Y-54956404D01*
X124320312Y-55100000D01*
X110226626Y-55100000D01*
X110230428Y-54562669D01*
X110231611Y-54546330D01*
X110246022Y-54442094D01*
X110254680Y-54410528D01*
X110292248Y-54321175D01*
X110308749Y-54292905D01*
X110368069Y-54216254D01*
X110391302Y-54193186D01*
X110468369Y-54134411D01*
X110496759Y-54118108D01*
X110586371Y-54081175D01*
X110618004Y-54072739D01*
X110690051Y-54063297D01*
X110722327Y-54059068D01*
X110738699Y-54058000D01*
X119572963Y-54058000D01*
X119641084Y-54078002D01*
G37*
%TD.AperFunction*%
%TA.AperFunction,Conductor*%
G36*
X95622325Y-125942659D02*
G01*
X95684816Y-125958060D01*
X95713213Y-125968831D01*
X95770199Y-125998741D01*
X95795194Y-126015994D01*
X95843364Y-126058668D01*
X95863509Y-126081406D01*
X95900064Y-126134366D01*
X95914179Y-126161260D01*
X95937002Y-126221438D01*
X95944271Y-126250932D01*
X95952027Y-126314812D01*
X95952027Y-126345186D01*
X95944271Y-126409067D01*
X95937001Y-126438562D01*
X95914178Y-126498739D01*
X95900064Y-126525632D01*
X95863508Y-126578594D01*
X95843363Y-126601332D01*
X95795195Y-126644004D01*
X95770200Y-126661258D01*
X95713219Y-126691165D01*
X95684816Y-126701937D01*
X95622329Y-126717339D01*
X95592175Y-126721000D01*
X95527825Y-126721000D01*
X95497671Y-126717339D01*
X95435183Y-126701937D01*
X95406784Y-126691166D01*
X95349801Y-126661259D01*
X95324805Y-126644005D01*
X95276632Y-126601328D01*
X95256489Y-126578591D01*
X95219933Y-126525630D01*
X95205817Y-126498736D01*
X95182994Y-126438557D01*
X95175728Y-126409075D01*
X95167970Y-126345177D01*
X95167970Y-126314820D01*
X95175728Y-126250918D01*
X95182995Y-126221438D01*
X95205818Y-126161257D01*
X95219926Y-126134376D01*
X95256495Y-126081398D01*
X95276626Y-126058675D01*
X95324808Y-126015989D01*
X95349801Y-125998740D01*
X95406785Y-125968831D01*
X95435181Y-125958061D01*
X95497674Y-125942659D01*
X95527818Y-125939000D01*
X95592179Y-125939000D01*
X95622325Y-125942659D01*
G37*
%TD.AperFunction*%
%TD*%
%TA.AperFunction,Conductor*%
%TO.N,GND*%
G36*
X99310757Y-55019685D02*
G01*
X99331399Y-55036319D01*
X106257370Y-61962292D01*
X106257374Y-61962295D01*
X106421234Y-62071783D01*
X106421240Y-62071786D01*
X106421241Y-62071787D01*
X106603320Y-62147207D01*
X106796610Y-62185655D01*
X106796613Y-62185656D01*
X106796615Y-62185656D01*
X106999810Y-62185656D01*
X106999830Y-62185655D01*
X108876000Y-62185655D01*
X108943039Y-62205340D01*
X108988794Y-62258144D01*
X109000000Y-62309655D01*
X109000000Y-74156291D01*
X108985087Y-74207090D01*
X108988307Y-74208561D01*
X108924834Y-74347543D01*
X108904353Y-74490000D01*
X108924834Y-74632456D01*
X108988307Y-74771440D01*
X108985076Y-74772915D01*
X109000000Y-74823650D01*
X109000000Y-94850475D01*
X108980315Y-94917514D01*
X108927511Y-94963269D01*
X108919982Y-94966413D01*
X108917636Y-94967302D01*
X108777762Y-95040715D01*
X108659515Y-95145471D01*
X108620146Y-95202507D01*
X108565863Y-95246497D01*
X108496414Y-95254156D01*
X108433850Y-95223052D01*
X108416047Y-95202506D01*
X108390483Y-95165470D01*
X108272240Y-95060717D01*
X108272238Y-95060716D01*
X108272237Y-95060715D01*
X108132365Y-94987303D01*
X107978986Y-94949500D01*
X107978985Y-94949500D01*
X107821015Y-94949500D01*
X107821014Y-94949500D01*
X107667634Y-94987303D01*
X107527762Y-95060715D01*
X107409517Y-95165469D01*
X107377050Y-95212507D01*
X107322766Y-95256497D01*
X107253318Y-95264156D01*
X107190753Y-95233052D01*
X107172950Y-95212507D01*
X107140483Y-95165470D01*
X107022240Y-95060717D01*
X107022238Y-95060716D01*
X107022237Y-95060715D01*
X106882365Y-94987303D01*
X106728986Y-94949500D01*
X106728985Y-94949500D01*
X106571015Y-94949500D01*
X106571014Y-94949500D01*
X106417634Y-94987303D01*
X106277762Y-95060715D01*
X106159517Y-95165469D01*
X106127050Y-95212507D01*
X106072766Y-95256497D01*
X106003318Y-95264156D01*
X105940753Y-95233052D01*
X105922950Y-95212507D01*
X105890483Y-95165470D01*
X105772240Y-95060717D01*
X105772238Y-95060716D01*
X105772237Y-95060715D01*
X105632365Y-94987303D01*
X105478986Y-94949500D01*
X105478985Y-94949500D01*
X105321015Y-94949500D01*
X105321014Y-94949500D01*
X105167634Y-94987303D01*
X105027762Y-95060715D01*
X104909517Y-95165469D01*
X104877050Y-95212507D01*
X104822766Y-95256497D01*
X104753318Y-95264156D01*
X104690753Y-95233052D01*
X104672950Y-95212507D01*
X104640483Y-95165470D01*
X104522240Y-95060717D01*
X104522238Y-95060716D01*
X104522237Y-95060715D01*
X104382365Y-94987303D01*
X104228986Y-94949500D01*
X104228985Y-94949500D01*
X104071015Y-94949500D01*
X104071014Y-94949500D01*
X103917634Y-94987303D01*
X103777762Y-95060715D01*
X103659517Y-95165469D01*
X103627050Y-95212507D01*
X103572766Y-95256497D01*
X103503318Y-95264156D01*
X103440753Y-95233052D01*
X103422950Y-95212507D01*
X103390483Y-95165470D01*
X103272240Y-95060717D01*
X103272238Y-95060716D01*
X103272237Y-95060715D01*
X103132365Y-94987303D01*
X102978986Y-94949500D01*
X102978985Y-94949500D01*
X102821015Y-94949500D01*
X102821014Y-94949500D01*
X102667634Y-94987303D01*
X102527762Y-95060715D01*
X102527760Y-95060717D01*
X102432092Y-95145471D01*
X102409516Y-95165471D01*
X102352050Y-95248725D01*
X102297767Y-95292715D01*
X102228318Y-95300375D01*
X102165754Y-95269271D01*
X102147950Y-95248725D01*
X102116047Y-95202506D01*
X102090483Y-95165470D01*
X101972240Y-95060717D01*
X101972238Y-95060716D01*
X101972237Y-95060715D01*
X101832365Y-94987303D01*
X101678986Y-94949500D01*
X101678985Y-94949500D01*
X101521015Y-94949500D01*
X101521014Y-94949500D01*
X101367634Y-94987303D01*
X101227762Y-95060715D01*
X101227760Y-95060717D01*
X101132092Y-95145471D01*
X101109516Y-95165471D01*
X101052050Y-95248725D01*
X100997767Y-95292715D01*
X100928318Y-95300375D01*
X100865754Y-95269271D01*
X100847950Y-95248725D01*
X100816047Y-95202506D01*
X100790483Y-95165470D01*
X100672240Y-95060717D01*
X100672238Y-95060716D01*
X100672237Y-95060715D01*
X100532365Y-94987303D01*
X100378986Y-94949500D01*
X100378985Y-94949500D01*
X100221015Y-94949500D01*
X100221014Y-94949500D01*
X100067634Y-94987303D01*
X99927762Y-95060715D01*
X99927760Y-95060717D01*
X99832092Y-95145471D01*
X99809516Y-95165471D01*
X99719781Y-95295475D01*
X99719780Y-95295476D01*
X99663762Y-95443181D01*
X99644722Y-95599999D01*
X99644722Y-95600000D01*
X99663762Y-95756817D01*
X99671207Y-95776447D01*
X99692287Y-95832030D01*
X99697654Y-95901692D01*
X99664507Y-95963198D01*
X99603369Y-95997019D01*
X99576345Y-96000000D01*
X89589500Y-96000000D01*
X89522461Y-95980315D01*
X89476706Y-95927511D01*
X89465500Y-95876000D01*
X89465500Y-95050922D01*
X89427052Y-94857636D01*
X89427051Y-94857635D01*
X89427051Y-94857631D01*
X89424087Y-94850475D01*
X89351635Y-94675558D01*
X89351628Y-94675545D01*
X89242140Y-94511685D01*
X89242139Y-94511684D01*
X89102782Y-94372327D01*
X89102781Y-94372326D01*
X88036319Y-93305864D01*
X88002834Y-93244541D01*
X88000000Y-93218183D01*
X88000000Y-82980000D01*
X91184353Y-82980000D01*
X91204834Y-83122456D01*
X91264622Y-83253371D01*
X91264623Y-83253373D01*
X91358872Y-83362143D01*
X91479947Y-83439953D01*
X91479950Y-83439954D01*
X91479949Y-83439954D01*
X91618036Y-83480499D01*
X91618038Y-83480500D01*
X91618039Y-83480500D01*
X91761962Y-83480500D01*
X91761962Y-83480499D01*
X91900053Y-83439953D01*
X92021128Y-83362143D01*
X92115377Y-83253373D01*
X92175165Y-83122457D01*
X92195647Y-82980000D01*
X92175165Y-82837543D01*
X92115377Y-82706627D01*
X92021128Y-82597857D01*
X91900053Y-82520047D01*
X91900051Y-82520046D01*
X91900049Y-82520045D01*
X91900050Y-82520045D01*
X91761963Y-82479500D01*
X91761961Y-82479500D01*
X91618039Y-82479500D01*
X91618036Y-82479500D01*
X91479949Y-82520045D01*
X91358873Y-82597856D01*
X91264623Y-82706626D01*
X91264622Y-82706628D01*
X91204834Y-82837543D01*
X91184353Y-82980000D01*
X88000000Y-82980000D01*
X88000000Y-81220000D01*
X88464353Y-81220000D01*
X88484834Y-81362456D01*
X88493825Y-81382143D01*
X88544623Y-81493373D01*
X88638872Y-81602143D01*
X88731623Y-81661750D01*
X88777378Y-81714554D01*
X88787322Y-81783713D01*
X88758297Y-81847269D01*
X88731625Y-81870381D01*
X88688873Y-81897856D01*
X88594623Y-82006626D01*
X88594622Y-82006628D01*
X88534834Y-82137543D01*
X88514353Y-82280000D01*
X88534834Y-82422456D01*
X88560886Y-82479500D01*
X88594623Y-82553373D01*
X88688872Y-82662143D01*
X88809947Y-82739953D01*
X88809950Y-82739954D01*
X88809949Y-82739954D01*
X88948036Y-82780499D01*
X88948038Y-82780500D01*
X88948039Y-82780500D01*
X89091962Y-82780500D01*
X89091962Y-82780499D01*
X89230053Y-82739953D01*
X89351128Y-82662143D01*
X89445377Y-82553373D01*
X89505165Y-82422457D01*
X89525647Y-82280000D01*
X89505165Y-82137543D01*
X89445377Y-82006627D01*
X89351128Y-81897857D01*
X89351125Y-81897855D01*
X89351123Y-81897853D01*
X89258376Y-81838248D01*
X89212621Y-81785444D01*
X89202677Y-81716286D01*
X89231702Y-81652730D01*
X89258375Y-81629618D01*
X89301128Y-81602143D01*
X89346310Y-81550000D01*
X92824353Y-81550000D01*
X92844834Y-81692456D01*
X92887301Y-81785444D01*
X92904623Y-81823373D01*
X92998872Y-81932143D01*
X93119947Y-82009953D01*
X93119950Y-82009954D01*
X93119949Y-82009954D01*
X93258036Y-82050499D01*
X93258038Y-82050500D01*
X93258039Y-82050500D01*
X93401962Y-82050500D01*
X93401962Y-82050499D01*
X93540053Y-82009953D01*
X93661128Y-81932143D01*
X93755377Y-81823373D01*
X93815165Y-81692457D01*
X93835647Y-81550000D01*
X93815165Y-81407543D01*
X93755377Y-81276627D01*
X93661128Y-81167857D01*
X93540053Y-81090047D01*
X93540051Y-81090046D01*
X93540049Y-81090045D01*
X93540050Y-81090045D01*
X93401963Y-81049500D01*
X93401961Y-81049500D01*
X93258039Y-81049500D01*
X93258036Y-81049500D01*
X93119949Y-81090045D01*
X92998873Y-81167856D01*
X92904623Y-81276626D01*
X92904622Y-81276628D01*
X92844834Y-81407543D01*
X92824353Y-81550000D01*
X89346310Y-81550000D01*
X89395377Y-81493373D01*
X89455165Y-81362457D01*
X89475647Y-81220000D01*
X89455165Y-81077543D01*
X89419752Y-81000000D01*
X101594353Y-81000000D01*
X101614834Y-81142456D01*
X101650248Y-81220000D01*
X101674623Y-81273373D01*
X101768872Y-81382143D01*
X101889947Y-81459953D01*
X101889950Y-81459954D01*
X101889949Y-81459954D01*
X102028036Y-81500499D01*
X102028038Y-81500500D01*
X102028039Y-81500500D01*
X102171962Y-81500500D01*
X102171962Y-81500499D01*
X102310053Y-81459953D01*
X102431128Y-81382143D01*
X102525377Y-81273373D01*
X102585165Y-81142457D01*
X102605647Y-81000000D01*
X102585165Y-80857543D01*
X102525377Y-80726627D01*
X102431128Y-80617857D01*
X102310053Y-80540047D01*
X102310051Y-80540046D01*
X102310049Y-80540045D01*
X102310050Y-80540045D01*
X102171963Y-80499500D01*
X102171961Y-80499500D01*
X102028039Y-80499500D01*
X102028036Y-80499500D01*
X101889949Y-80540045D01*
X101768873Y-80617856D01*
X101674623Y-80726626D01*
X101674622Y-80726628D01*
X101614834Y-80857543D01*
X101594353Y-81000000D01*
X89419752Y-81000000D01*
X89395376Y-80946624D01*
X89393839Y-80944233D01*
X89393038Y-80941505D01*
X89391693Y-80938560D01*
X89392116Y-80938366D01*
X89374155Y-80877194D01*
X89393840Y-80810155D01*
X89404443Y-80795992D01*
X89410936Y-80788498D01*
X89415377Y-80783373D01*
X89475165Y-80652457D01*
X89495647Y-80510000D01*
X89475165Y-80367543D01*
X89415377Y-80236627D01*
X89321128Y-80127857D01*
X89200053Y-80050047D01*
X89200051Y-80050046D01*
X89200049Y-80050045D01*
X89200050Y-80050045D01*
X89061963Y-80009500D01*
X89061961Y-80009500D01*
X88918039Y-80009500D01*
X88918036Y-80009500D01*
X88779949Y-80050045D01*
X88658873Y-80127856D01*
X88564623Y-80236626D01*
X88564622Y-80236628D01*
X88504834Y-80367543D01*
X88484353Y-80510000D01*
X88504834Y-80652456D01*
X88564622Y-80783372D01*
X88566162Y-80785768D01*
X88566963Y-80788498D01*
X88568307Y-80791440D01*
X88567883Y-80791633D01*
X88585844Y-80852808D01*
X88566157Y-80919847D01*
X88555560Y-80934003D01*
X88544625Y-80946622D01*
X88544622Y-80946628D01*
X88484834Y-81077543D01*
X88464353Y-81220000D01*
X88000000Y-81220000D01*
X88000000Y-77830000D01*
X88664353Y-77830000D01*
X88684834Y-77972456D01*
X88744622Y-78103371D01*
X88744623Y-78103373D01*
X88838872Y-78212143D01*
X88959947Y-78289953D01*
X88959950Y-78289954D01*
X88959949Y-78289954D01*
X89098036Y-78330499D01*
X89098038Y-78330500D01*
X89098039Y-78330500D01*
X89241962Y-78330500D01*
X89241962Y-78330499D01*
X89380053Y-78289953D01*
X89501128Y-78212143D01*
X89595377Y-78103373D01*
X89655165Y-77972457D01*
X89675647Y-77830000D01*
X89655165Y-77687543D01*
X89595377Y-77556627D01*
X89501128Y-77447857D01*
X89380053Y-77370047D01*
X89380051Y-77370046D01*
X89380049Y-77370045D01*
X89380050Y-77370045D01*
X89241963Y-77329500D01*
X89241961Y-77329500D01*
X89098039Y-77329500D01*
X89098036Y-77329500D01*
X88959949Y-77370045D01*
X88838873Y-77447856D01*
X88744623Y-77556626D01*
X88744622Y-77556628D01*
X88684834Y-77687543D01*
X88664353Y-77830000D01*
X88000000Y-77830000D01*
X88000000Y-74960000D01*
X88834353Y-74960000D01*
X88854834Y-75102456D01*
X88914622Y-75233371D01*
X88914623Y-75233373D01*
X89008872Y-75342143D01*
X89129947Y-75419953D01*
X89129950Y-75419954D01*
X89129949Y-75419954D01*
X89268036Y-75460499D01*
X89268038Y-75460500D01*
X89268039Y-75460500D01*
X89411962Y-75460500D01*
X89411962Y-75460499D01*
X89550053Y-75419953D01*
X89671128Y-75342143D01*
X89765377Y-75233373D01*
X89825165Y-75102457D01*
X89845647Y-74960000D01*
X89825165Y-74817543D01*
X89765377Y-74686627D01*
X89671128Y-74577857D01*
X89550053Y-74500047D01*
X89550051Y-74500046D01*
X89550049Y-74500045D01*
X89550050Y-74500045D01*
X89411963Y-74459500D01*
X89411961Y-74459500D01*
X89268039Y-74459500D01*
X89268036Y-74459500D01*
X89129949Y-74500045D01*
X89008873Y-74577856D01*
X88914623Y-74686626D01*
X88914622Y-74686628D01*
X88854834Y-74817543D01*
X88834353Y-74960000D01*
X88000000Y-74960000D01*
X88000000Y-74110000D01*
X92064353Y-74110000D01*
X92084834Y-74252456D01*
X92128260Y-74347543D01*
X92144623Y-74383373D01*
X92238872Y-74492143D01*
X92359947Y-74569953D01*
X92359950Y-74569954D01*
X92359949Y-74569954D01*
X92498036Y-74610499D01*
X92498038Y-74610500D01*
X92498039Y-74610500D01*
X92641962Y-74610500D01*
X92641962Y-74610499D01*
X92780053Y-74569953D01*
X92901128Y-74492143D01*
X92995377Y-74383373D01*
X93055165Y-74252457D01*
X93075647Y-74110000D01*
X93055165Y-73967543D01*
X92995377Y-73836627D01*
X92911650Y-73740000D01*
X102314353Y-73740000D01*
X102334834Y-73882456D01*
X102388744Y-74000500D01*
X102394623Y-74013373D01*
X102488872Y-74122143D01*
X102609947Y-74199953D01*
X102609950Y-74199954D01*
X102609949Y-74199954D01*
X102748036Y-74240499D01*
X102748038Y-74240500D01*
X102748039Y-74240500D01*
X102891962Y-74240500D01*
X102891962Y-74240499D01*
X103030053Y-74199953D01*
X103151128Y-74122143D01*
X103245377Y-74013373D01*
X103305165Y-73882457D01*
X103325647Y-73740000D01*
X103305165Y-73597543D01*
X103245377Y-73466627D01*
X103151128Y-73357857D01*
X103030053Y-73280047D01*
X103030051Y-73280046D01*
X103030049Y-73280045D01*
X103030050Y-73280045D01*
X102891963Y-73239500D01*
X102891961Y-73239500D01*
X102748039Y-73239500D01*
X102748036Y-73239500D01*
X102609949Y-73280045D01*
X102488873Y-73357856D01*
X102394623Y-73466626D01*
X102394622Y-73466628D01*
X102334834Y-73597543D01*
X102314353Y-73740000D01*
X92911650Y-73740000D01*
X92901128Y-73727857D01*
X92780053Y-73650047D01*
X92780051Y-73650046D01*
X92780049Y-73650045D01*
X92780050Y-73650045D01*
X92641963Y-73609500D01*
X92641961Y-73609500D01*
X92498039Y-73609500D01*
X92498036Y-73609500D01*
X92359949Y-73650045D01*
X92238873Y-73727856D01*
X92144623Y-73836626D01*
X92144622Y-73836628D01*
X92084834Y-73967543D01*
X92064353Y-74110000D01*
X88000000Y-74110000D01*
X88000000Y-73500000D01*
X90194353Y-73500000D01*
X90214834Y-73642456D01*
X90218300Y-73650045D01*
X90274623Y-73773373D01*
X90368872Y-73882143D01*
X90489947Y-73959953D01*
X90489950Y-73959954D01*
X90489949Y-73959954D01*
X90628036Y-74000499D01*
X90628038Y-74000500D01*
X90628039Y-74000500D01*
X90771962Y-74000500D01*
X90771962Y-74000499D01*
X90910053Y-73959953D01*
X91031128Y-73882143D01*
X91125377Y-73773373D01*
X91185165Y-73642457D01*
X91205647Y-73500000D01*
X91185165Y-73357543D01*
X91125377Y-73226627D01*
X91031128Y-73117857D01*
X90910053Y-73040047D01*
X90910051Y-73040046D01*
X90910049Y-73040045D01*
X90910050Y-73040045D01*
X90771963Y-72999500D01*
X90771961Y-72999500D01*
X90628039Y-72999500D01*
X90628036Y-72999500D01*
X90489949Y-73040045D01*
X90368873Y-73117856D01*
X90274623Y-73226626D01*
X90274622Y-73226628D01*
X90214834Y-73357543D01*
X90194353Y-73500000D01*
X88000000Y-73500000D01*
X88000000Y-71220000D01*
X91674722Y-71220000D01*
X91693762Y-71376818D01*
X91742195Y-71504523D01*
X91749780Y-71524523D01*
X91839517Y-71654530D01*
X91957760Y-71759283D01*
X91957762Y-71759284D01*
X92097634Y-71832696D01*
X92251014Y-71870500D01*
X92251015Y-71870500D01*
X92408985Y-71870500D01*
X92562365Y-71832696D01*
X92600471Y-71812696D01*
X92702240Y-71759283D01*
X92820483Y-71654530D01*
X92869853Y-71583003D01*
X92924134Y-71539015D01*
X92993582Y-71531355D01*
X93056147Y-71562458D01*
X93073952Y-71583005D01*
X93109517Y-71634530D01*
X93227760Y-71739283D01*
X93227762Y-71739284D01*
X93367634Y-71812696D01*
X93521014Y-71850500D01*
X93521015Y-71850500D01*
X93678985Y-71850500D01*
X93832365Y-71812696D01*
X93972240Y-71739283D01*
X94090483Y-71634530D01*
X94180220Y-71504523D01*
X94236237Y-71356818D01*
X94255278Y-71200000D01*
X94243022Y-71099057D01*
X94236237Y-71043181D01*
X94214992Y-70987164D01*
X94180220Y-70895477D01*
X94114267Y-70799927D01*
X94092384Y-70733572D01*
X94109850Y-70665921D01*
X94114258Y-70659060D01*
X94200220Y-70534523D01*
X94256237Y-70386818D01*
X94275278Y-70230000D01*
X94258666Y-70093182D01*
X94256237Y-70073181D01*
X94234992Y-70017164D01*
X94200220Y-69925477D01*
X94110814Y-69795950D01*
X94088932Y-69729598D01*
X94106397Y-69661946D01*
X94110802Y-69655092D01*
X94180220Y-69554523D01*
X94236237Y-69406818D01*
X94255278Y-69250000D01*
X94238666Y-69113182D01*
X94236237Y-69093181D01*
X94214992Y-69037164D01*
X94180220Y-68945477D01*
X94114267Y-68849927D01*
X94092384Y-68783572D01*
X94109850Y-68715921D01*
X94114258Y-68709060D01*
X94200220Y-68584523D01*
X94256237Y-68436818D01*
X94275278Y-68280000D01*
X94258666Y-68143182D01*
X94256237Y-68123181D01*
X94234992Y-68067164D01*
X94200220Y-67975477D01*
X94110483Y-67845470D01*
X94110481Y-67845467D01*
X94105509Y-67839855D01*
X94106694Y-67838804D01*
X94074238Y-67787062D01*
X94075004Y-67717196D01*
X94091535Y-67683004D01*
X94180220Y-67554523D01*
X94236237Y-67406818D01*
X94255278Y-67250000D01*
X94238666Y-67113182D01*
X94236237Y-67093181D01*
X94214992Y-67037164D01*
X94180220Y-66945477D01*
X94095825Y-66823209D01*
X94073942Y-66756854D01*
X94091408Y-66689203D01*
X94106493Y-66671017D01*
X94105509Y-66670145D01*
X94110481Y-66664532D01*
X94110481Y-66664531D01*
X94110483Y-66664530D01*
X94200220Y-66534523D01*
X94256237Y-66386818D01*
X94275278Y-66230000D01*
X94258666Y-66093182D01*
X94256237Y-66073181D01*
X94234932Y-66017006D01*
X94200220Y-65925477D01*
X94110483Y-65795470D01*
X93992240Y-65690717D01*
X93992238Y-65690716D01*
X93992237Y-65690715D01*
X93852365Y-65617303D01*
X93698986Y-65579500D01*
X93698985Y-65579500D01*
X93541015Y-65579500D01*
X93541014Y-65579500D01*
X93387634Y-65617303D01*
X93247762Y-65690715D01*
X93225184Y-65710717D01*
X93129517Y-65795470D01*
X93087157Y-65856837D01*
X93080147Y-65866995D01*
X93025864Y-65910985D01*
X92956415Y-65918644D01*
X92893850Y-65887540D01*
X92876047Y-65866994D01*
X92840483Y-65815470D01*
X92722240Y-65710717D01*
X92722238Y-65710716D01*
X92722237Y-65710715D01*
X92582365Y-65637303D01*
X92428986Y-65599500D01*
X92428985Y-65599500D01*
X92271015Y-65599500D01*
X92271014Y-65599500D01*
X92117634Y-65637303D01*
X91977762Y-65710715D01*
X91977760Y-65710717D01*
X91882092Y-65795471D01*
X91859516Y-65815471D01*
X91769781Y-65945475D01*
X91769780Y-65945476D01*
X91713762Y-66093181D01*
X91694722Y-66249999D01*
X91694722Y-66250000D01*
X91713762Y-66406818D01*
X91769780Y-66554523D01*
X91769781Y-66554524D01*
X91854174Y-66676790D01*
X91876057Y-66743145D01*
X91858591Y-66810797D01*
X91843526Y-66829001D01*
X91844491Y-66829856D01*
X91839515Y-66835472D01*
X91749781Y-66965475D01*
X91749780Y-66965476D01*
X91693762Y-67113181D01*
X91674722Y-67269999D01*
X91674722Y-67270000D01*
X91693762Y-67426818D01*
X91749780Y-67574523D01*
X91749781Y-67574524D01*
X91839518Y-67704532D01*
X91844491Y-67710145D01*
X91843305Y-67711195D01*
X91875761Y-67762936D01*
X91874995Y-67832801D01*
X91858458Y-67867004D01*
X91769781Y-67995475D01*
X91769780Y-67995476D01*
X91713762Y-68143181D01*
X91694722Y-68299999D01*
X91694722Y-68300000D01*
X91713762Y-68456818D01*
X91769780Y-68604523D01*
X91769781Y-68604524D01*
X91835732Y-68700072D01*
X91857615Y-68766427D01*
X91840149Y-68834079D01*
X91835732Y-68840951D01*
X91749783Y-68965470D01*
X91749780Y-68965476D01*
X91693762Y-69113181D01*
X91674722Y-69269999D01*
X91674722Y-69270000D01*
X91693762Y-69426818D01*
X91735264Y-69536248D01*
X91749780Y-69574523D01*
X91769634Y-69603287D01*
X91839184Y-69704047D01*
X91861067Y-69770401D01*
X91843602Y-69838053D01*
X91839184Y-69844927D01*
X91769781Y-69945475D01*
X91769780Y-69945476D01*
X91713762Y-70093181D01*
X91694722Y-70249999D01*
X91694722Y-70250000D01*
X91713762Y-70406818D01*
X91769780Y-70554523D01*
X91769781Y-70554524D01*
X91835732Y-70650072D01*
X91857615Y-70716427D01*
X91840149Y-70784079D01*
X91835732Y-70790951D01*
X91749783Y-70915470D01*
X91749780Y-70915476D01*
X91693762Y-71063181D01*
X91674722Y-71219999D01*
X91674722Y-71220000D01*
X88000000Y-71220000D01*
X88000000Y-69603287D01*
X88019685Y-69536248D01*
X88036316Y-69515608D01*
X89744378Y-67807547D01*
X89744382Y-67807545D01*
X89883739Y-67668188D01*
X89993232Y-67504320D01*
X90068651Y-67322241D01*
X90068651Y-67322238D01*
X90068653Y-67322234D01*
X90073133Y-67299705D01*
X90079043Y-67270000D01*
X90088393Y-67222994D01*
X90107100Y-67128947D01*
X90107100Y-58999182D01*
X90126785Y-58932143D01*
X90143419Y-58911501D01*
X94018601Y-55036319D01*
X94079924Y-55002834D01*
X94106282Y-55000000D01*
X99243718Y-55000000D01*
X99310757Y-55019685D01*
G37*
%TD.AperFunction*%
%TD*%
M02*
